<svg xmlns="http://www.w3.org/2000/svg" width="187" height="56" viewBox="0 0 187 56" fill="none">
  <path d="M16.793 31.496C13.753 30.07 10.798 28.506 7.81 26.98C5.265 25.684 2.717 24.41 0.621002 22.528C7.723 18.157 14.475 13.256 21.875 9.38201C28.82 5.74701 36.451 3.52603 44.131 2.11303C51.305 0.791026 58.674 0.312992 65.949 0.827992C66.013 0.831992 66.08 0.845035 66.146 0.847035C69.382 1.54504 72.609 2.44903 75.869 3.13103C81.357 4.27603 90.26 5.72299 94.748 1.30999C95.004 1.34199 95.27 1.44298 95.332 1.66698C95.443 2.05998 95.58 2.564 95.725 3.062C95.995 2.563 96.252 2.05898 96.481 1.52898C96.493 1.50298 96.51 1.485 96.524 1.463C98.571 3.36 101.077 4.19199 104.198 3.70299C105.563 3.48899 106.991 3.11304 108.434 2.77404C110.104 2.63704 111.7 2.539 113.036 2.726C117.165 3.305 119.171 5.00102 121.702 7.54302C121.684 7.02502 121.714 6.50599 121.829 5.90599C121.839 5.85899 121.86 5.822 121.882 5.786C122.579 6.15 123.296 6.48703 123.999 6.84703C124.612 7.59403 125.147 8.38901 125.69 9.19201C125.715 9.09001 125.743 8.97399 125.78 8.83599C125.909 8.30999 126.794 8.43099 127.083 8.68999C130.103 11.418 132.657 14.911 135.013 18.436C135.771 16.235 137.089 14.185 138.826 12.348C139.316 14.031 140.195 15.717 141.002 17.269C141.363 18.739 141.877 20.161 142.543 21.553C143.166 20.154 144.123 19.099 145.34 17.847C145.438 17.745 145.672 17.662 145.92 17.629C146.004 18.479 146.131 19.321 146.318 20.149C146.086 21.477 145.918 22.78 146.119 24.142C148.367 22.207 149.867 20.861 153.139 19.899C155.584 19.181 157.772 18.623 160.199 19.144C158.949 19.886 157.822 20.92 156.855 21.898C155.828 22.941 155.046 24.047 154.363 25.198C154.261 25.299 154.158 25.397 154.056 25.501C152.404 27.231 151.279 29.211 150.861 31.579C150.709 32.45 151.257 33.433 151.158 34.365C151.131 34.626 150.902 34.789 150.633 34.863C152.242 37.005 154.08 38.863 156.266 40.572C158.243 42.119 161.03 42.785 163.41 43.717C160.994 44.663 158.502 45.226 155.953 45.543C151.881 45.544 147.582 45.004 144.187 43.409C144.728 44.011 145.281 44.606 145.837 45.198C144.103 45.732 142.308 45.837 140.532 45.568C138.807 44.808 137.19 43.682 135.895 42.371C136.143 43.471 136.338 44.638 136.442 45.814C135.573 48.433 133.93 51.781 131.614 53.755C131.497 52.293 131.69 50.841 131.708 49.381C129.511 52.253 126.405 54.323 122.95 55.44C120.298 55.841 117.62 55.868 114.923 55.441C114.935 55.418 114.939 55.397 114.954 55.372C115.802 54.066 116.821 53.054 117.897 52.069C116.176 52.878 114.485 53.715 112.684 54.134C111.12 54.354 109.514 54.095 107.967 53.681C107.963 53.616 107.969 53.549 108.01 53.476C108.836 51.933 110.303 51 111.699 49.987C112.355 49.51 112.945 48.977 113.512 48.423C113.194 48.737 112.655 48.931 112.039 49.062C107.963 50.885 103.584 52.295 99.252 52.756C96.602 53.035 94.147 53.03 91.533 52.521C87.734 51.783 85.508 48.84 81.256 49.016C80.959 49.029 80.311 48.805 80.506 48.381C80.824 47.684 81.195 47.032 81.588 46.4C79.959 46.996 78.233 47.446 77.002 46.828C74.607 45.625 72.34 44.337 69.817 43.373C68.196 42.755 66.514 42.557 64.877 42.063C64.861 42.06 64.854 42.048 64.842 42.042C60.502 41.448 56.139 40.995 51.799 40.467C46.91 39.874 42.027 39.21 37.207 38.204C31.576 37.027 26.113 35.274 20.736 33.259C19.413 32.687 18.097 32.107 16.793 31.496Z" fill="url(#paint0_linear_1_884)"/>
  <path d="M0.648987 22.553C2.73899 24.419 5.27799 25.69 7.80899 26.981C10.797 28.506 13.752 30.071 16.792 31.497C18.096 32.108 19.412 32.688 20.734 33.263C26.111 35.279 31.574 37.031 37.205 38.208C42.025 39.213 46.908 39.878 51.797 40.471C56.137 40.998 60.5 41.452 64.84 42.046C64.852 42.052 64.86 42.064 64.875 42.067C66.512 42.56 68.193 42.758 69.815 43.377C72.338 44.341 74.606 45.629 77 46.832C78.23 47.45 79.957 47.001 81.586 46.404C81.193 47.037 80.822 47.688 80.504 48.385C80.309 48.808 80.957 49.033 81.254 49.02C85.506 48.844 87.732 51.787 91.531 52.525C94.144 53.034 96.599 53.04 99.25 52.76C103.582 52.299 107.961 50.889 112.037 49.066C112.652 48.935 113.191 48.74 113.51 48.427C112.944 48.981 112.354 49.514 111.697 49.991C110.301 51.005 108.834 51.937 108.008 53.48C107.967 53.553 107.961 53.62 107.965 53.685C109.512 54.099 111.117 54.358 112.682 54.138C114.483 53.718 116.174 52.881 117.895 52.073C116.819 53.057 115.799 54.07 114.952 55.376C114.936 55.4 114.932 55.422 114.921 55.445C117.618 55.871 120.296 55.845 122.948 55.444C126.403 54.327 129.509 52.256 131.706 49.385C131.688 50.845 131.495 52.297 131.612 53.759C133.928 51.785 135.571 48.437 136.44 45.818C136.336 44.641 136.141 43.474 135.893 42.375C137.188 43.686 138.805 44.812 140.53 45.572C142.305 45.842 144.1 45.736 145.835 45.202C145.278 44.611 144.726 44.015 144.185 43.413C147.58 45.008 151.878 45.548 155.951 45.547C158.5 45.23 160.992 44.667 163.408 43.721C161.027 42.789 158.24 42.123 156.264 40.576C154.079 38.867 152.241 37.009 150.631 34.867C150.9 34.793 151.129 34.63 151.156 34.369C151.256 33.437 150.707 32.454 150.859 31.583C151.277 29.215 152.402 27.235 154.054 25.505C154.156 25.401 154.259 25.302 154.361 25.202C155.045 24.051 155.826 22.945 156.853 21.902C157.82 20.924 158.947 19.89 160.197 19.148C160.14 19.137 160.086 19.126 160.029 19.116C155.699 21.104 151.578 24.16 149.242 28.354C149.183 28.461 148.932 28.493 148.906 28.338C148.66 26.917 149.422 25.7 150.232 24.596C148.789 25.448 147.474 26.669 146.828 28.218C146.775 28.345 146.578 28.328 146.506 28.235C145.746 27.245 146.514 25.902 147.072 25.012C147.935 23.63 149.101 22.413 150.316 21.341C150.619 21.073 150.931 20.823 151.251 20.579C149.188 21.473 147.88 22.626 146.116 24.145C145.915 22.784 146.083 21.48 146.315 20.152C146.127 19.325 146 18.482 145.917 17.632C145.896 17.633 145.872 17.64 145.849 17.646C145.978 18.635 145.661 19.738 145.435 20.651C145.195 21.63 145.068 22.63 144.837 23.611C144.542 24.887 144.163 26.144 143.839 27.414C143.806 27.546 143.521 27.533 143.501 27.398C143.403 26.686 143.316 25.975 143.257 25.262C143.173 26.423 143.146 27.587 143.136 28.755C143.132 28.924 142.882 28.893 142.804 28.807C140.64 26.301 139.499 22.814 138.79 19.627C138.327 17.547 138.011 15.229 138.249 13.028C136.216 16.874 136.894 22.058 137.63 26.112C137.663 26.284 137.388 26.328 137.306 26.201C136.355 24.71 135.46 23.178 134.663 21.596C135.067 23.166 135.378 24.759 135.474 26.379C135.484 26.553 135.179 26.529 135.128 26.399C133.067 21.037 129.196 17.008 125.112 13.149C126.323 14.844 127.313 16.707 127.884 18.705C127.929 18.863 127.675 18.912 127.587 18.824C124.874 16.081 122.538 12.873 119.192 10.842C116.997 9.50804 114.696 8.106 112.212 7.349C115.698 9.354 118.798 11.867 121.298 15.159C122.454 16.683 123.648 18.148 124.605 19.815C125.49 21.354 126.326 23.218 125.98 25.031C125.955 25.158 125.767 25.207 125.675 25.112C122.96 22.271 120.618 18.973 117.45 16.623C118.938 18.222 119.999 20.193 121.073 22.095C121.167 22.266 120.899 22.339 120.79 22.243C119.089 20.768 117.55 19.124 115.905 17.586C114.165 15.954 112.217 14.644 110.135 13.485C107.989 12.29 105.748 11.282 103.508 10.274C104.174 10.686 104.84 11.103 105.5 11.523C106.815 12.361 107.842 13.258 108.914 14.407C110.58 16.188 112.269 18.241 112.951 20.626C112.996 20.786 112.74 20.832 112.652 20.744C111.257 19.352 109.554 18.329 108.054 17.068C108.732 17.886 109.452 18.671 110.064 19.542C110.175 19.695 109.919 19.76 109.818 19.713C106.39 18.174 103.488 15.647 100.726 13.148C98.29 10.944 95.841 8.71701 93.746 6.18701C96.422 10.257 99.719 13.874 102.726 17.714C102.837 17.858 102.58 17.947 102.478 17.886C98.205 15.408 94.681 11.88 91.714 7.96002C92.064 10.049 93.439 11.85 94.786 13.422C96.241 15.119 97.899 16.63 99.335 18.342C99.421 18.441 99.269 18.548 99.175 18.535C97.769 18.338 96.646 17.43 95.612 16.519C94.233 15.303 92.817 14.142 91.432 12.935C90.744 12.338 90.079 11.718 89.432 11.076C90.645 12.951 91.901 14.799 92.823 16.841C92.895 16.999 92.606 17.026 92.524 16.958C88.264 13.348 83.608 10.148 78.254 8.44604C81.309 10.769 85.102 12.412 86.742 16.101C86.806 16.244 86.562 16.285 86.478 16.241C83.943 14.886 81.556 13.278 79.07 11.841C76.89 10.583 74.558 9.636 72.3 8.539C74.583 10.344 77.187 11.741 79.169 13.908C79.284 14.037 79.128 14.169 78.987 14.126C76.559 13.356 74.27 12.251 71.96 11.193C69.378 10.01 66.7 9.10004 64.034 8.12604C60.88 6.97804 57.755 5.74602 54.749 4.27002C59.792 7.62502 65.905 9.31402 71.12 12.382C71.296 12.487 71.134 12.673 70.975 12.623C68.065 11.715 65.161 10.9 62.213 10.131C59.795 9.50204 57.36 8.55604 54.832 8.56604C58.029 9.81304 61.348 10.746 64.228 12.673C64.396 12.784 64.158 12.911 64.048 12.892C59.388 12.039 54.952 10.307 50.333 9.29199C47.128 8.58599 43.878 8.146 40.626 7.729C44.024 8.407 47.388 9.34502 50.159 11.421C50.311 11.536 50.095 11.667 49.975 11.637C45.51 10.546 40.989 9.56704 36.366 9.57904C33.235 9.58804 30.139 10.09 27.053 10.622C29.908 10.575 32.795 10.971 35.428 11.876C35.621 11.942 35.549 12.129 35.367 12.137C31.783 12.292 28.168 12.14 24.646 12.926C21.076 13.724 17.54 14.97 14.12 16.259C10.649 17.572 7.26701 19.102 3.98001 20.822C2.87601 21.402 1.76599 21.987 0.648987 22.553ZM116.151 49.771C118.428 47.678 121.2 46.09 123.102 43.616C120.289 44.622 117.264 46.222 114.237 45.62C114.134 45.601 114.059 45.458 114.171 45.392C118.011 43.13 121.396 40.23 124.296 36.853C124.39 36.746 124.675 36.799 124.612 36.973C124.134 38.274 123.399 39.414 122.526 40.453C124.19 39.169 125.788 37.809 127.255 36.297C127.368 36.178 127.669 36.271 127.55 36.446C126.65 37.795 125.802 39.165 124.775 40.413C126.947 39.065 129.136 37.786 131.629 37.147C131.979 36.922 132.326 36.697 132.672 36.465C132.756 36.41 132.883 36.426 132.945 36.507C133.482 37.202 134.087 37.838 134.814 38.323C134.664 37.902 134.515 37.478 134.361 37.053C134.316 36.921 134.5 36.882 134.586 36.899C136.176 37.17 137.752 37.521 139.305 37.962C138.741 37.69 138.18 37.416 137.655 37.071C137.516 36.977 137.592 36.807 137.755 36.823C141.388 37.134 145.278 37.43 148.417 39.472C148.585 39.579 148.434 39.757 148.27 39.709C146.481 39.202 144.655 38.873 142.821 38.579C144.751 39.844 147.053 40.338 149.075 41.437C149.21 41.509 149.157 41.655 149.022 41.68C145.02 42.431 140.622 40.936 137.026 39.167C137.909 40.917 139.376 42.377 141.073 43.337C141.219 43.419 141.128 43.606 140.971 43.583C139.233 43.33 137.512 42.525 135.979 41.704C135.243 41.311 134.038 40.695 133.377 39.877C133.531 42.548 134.059 45.29 132.633 47.692C132.567 47.803 132.338 47.825 132.293 47.675C131.902 46.256 132.031 44.746 131.611 43.342C129.867 47.833 125.879 51.294 121.088 52.103C120.981 52.121 120.797 52.016 120.9 51.895C122.943 49.447 125.808 47.669 127.369 44.85C124.197 47.448 120.408 49.324 116.34 49.975C116.247 49.991 116.028 49.882 116.151 49.771ZM63.218 38.023C68.111 33.923 73.654 29.181 80.24 28.458C78.722 28.173 77.211 27.862 75.658 27.935C75.51 27.943 75.412 27.734 75.58 27.681C78.908 26.641 82.693 26.459 86.174 26.96C88.436 26.877 90.682 26.896 92.758 27.995C92.899 28.068 92.83 28.207 92.703 28.239C89.842 28.994 86.848 29.593 84.359 31.26C88.476 30.469 92.828 28.683 96.968 30.119C97.087 30.16 97.148 30.313 96.999 30.366C94.936 31.104 92.817 31.889 91.093 33.27C95.683 31.917 101.058 30.298 105.634 32.264C105.749 32.313 105.726 32.452 105.622 32.496C101.483 34.261 97.729 36.883 93.466 38.352C99.331 38.195 104.948 36.526 110.589 35.024C110.718 34.991 110.905 35.164 110.749 35.258C109.272 36.126 107.968 37.225 106.624 38.273C108.872 37.343 111.058 36.261 113.36 35.472C113.505 35.424 113.715 35.556 113.563 35.693C111.208 37.795 108.387 39.243 105.87 41.121C110.669 40.803 115.194 38.947 119.804 37.718C119.907 37.692 120.099 37.815 119.992 37.926C115.82 42.273 110.797 47.352 104.269 46.973C104.156 46.967 104.017 46.823 104.158 46.736C106.785 45.112 109.763 44.081 112.068 41.985C108.4 43.352 105.314 46.209 101.197 46.131C101.088 46.127 100.943 45.974 101.086 45.895C102.975 44.849 105.066 44.118 106.795 42.817C101.242 45.043 95.459 46.054 89.465 45.222C89.334 45.201 89.205 45.029 89.389 44.964C93.039 43.718 96.926 42.443 99.932 39.937C94.043 41.375 88.2 43.145 82.08 43.147C81.887 43.147 81.859 42.925 82.047 42.881C83.619 42.509 85.168 41.828 86.453 40.833C83.728 41.299 80.93 41.089 78.217 41.658C78.057 41.693 77.903 41.477 78.096 41.406C81.485 40.153 85.348 38.989 88.391 36.84C84.225 37.75 79.887 38.142 75.821 39.471C75.653 39.527 75.442 39.315 75.657 39.23C79.284 37.814 82.692 35.929 86.11 34.075C78.928 35.893 71.641 37.277 64.469 39.141C64.303 39.184 64.168 38.975 64.348 38.888C67.127 37.557 69.823 36.059 72.561 34.653C69.448 35.645 66.301 36.581 63.459 38.225C63.315 38.307 63.042 38.17 63.218 38.023ZM5.211 23.82C13.222 22.041 21.198 20.029 29.366 19.108C29.497 19.094 29.675 19.225 29.528 19.341C27.801 20.693 26.005 21.915 24.106 22.945C27.729 21.785 31.378 20.708 34.961 19.436C35.098 19.387 35.332 19.529 35.162 19.657C31.344 22.51 27.473 25.418 22.912 26.871C29.267 25.96 35.072 23.016 41.055 20.792C41.188 20.745 41.428 20.899 41.256 21.016C40.207 21.714 39.164 22.41 38.09 23.059C40.205 22.372 42.32 21.679 44.498 21.209C47.008 20.667 49.545 20.634 52.08 20.372C52.332 20.337 52.586 20.307 52.84 20.289C53.037 20.273 53.153 20.524 52.922 20.552C52.654 20.587 52.389 20.614 52.121 20.642C49.103 21.062 46.297 22.516 43.482 23.632C44.886 23.35 46.298 23.099 47.718 22.891C47.878 22.87 48.033 23.058 47.841 23.144C45.763 24.064 43.673 24.96 41.675 26.04C45.183 24.825 48.814 23.852 52.468 23.261C56.576 22.595 60.763 22.647 64.857 21.871C65.017 21.843 65.175 22.054 64.98 22.125C62.269 23.094 59.576 24.105 56.96 25.303C59.091 24.67 61.208 23.992 63.384 23.515C64.665 23.236 65.937 23.07 67.249 23.085C68.69 23.101 70.122 23.255 71.565 23.135C71.758 23.118 71.876 23.36 71.645 23.399C60.922 25.181 53.43 33.999 43.526 37.753C43.389 37.806 43.151 37.652 43.325 37.531C46.923 35.007 50.233 32.11 53.669 29.375C48.819 31.644 44.163 34.446 38.722 34.977C38.562 34.995 38.411 34.817 38.601 34.725C42.402 32.867 46.847 31.363 49.689 28.072C42.398 30.574 35.291 33.848 27.433 33.895C27.242 33.897 27.216 33.676 27.402 33.629C31.132 32.689 34.502 30.814 37.947 29.147C33.785 30.422 29.406 31.32 25.066 31.141C24.961 31.135 24.808 30.98 24.955 30.904C26.455 30.103 28.008 29.397 29.543 28.662C27.5 29.185 25.416 29.581 23.328 29.817C20.574 30.125 17.493 30.186 14.972 28.869C14.863 28.814 14.874 28.687 14.985 28.64C17.083 27.718 19.196 26.826 21.176 25.675C18.161 26.624 14.866 27.78 11.811 26.666C11.722 26.632 11.622 26.507 11.745 26.436C12.852 25.812 14.086 25.457 15.224 24.912C14.084 24.962 12.937 24.907 11.791 24.864C9.54299 24.783 7.26799 25.009 5.15799 24.064C5.01299 23.999 5.09 23.848 5.211 23.82Z" fill="url(#paint1_linear_1_884)"/>
  <path d="M144.35 44.317C144.506 44.307 144.514 44.145 144.407 44.073C143.501 43.473 142.616 42.829 141.807 42.106C144.157 43.196 146.707 43.881 149.248 44.276C153.031 44.864 157.084 44.791 160.713 43.469C160.912 43.394 160.742 43.199 160.588 43.216C160.465 43.23 160.34 43.239 160.217 43.244C160.207 43.204 160.174 43.1691 160.104 43.1491C157.538 42.4911 154.954 41.726 152.534 40.628C151.522 40.059 150.53 39.4621 149.532 38.8711C150.458 39.0491 151.374 39.25 152.329 39.198C152.511 39.189 152.485 38.985 152.343 38.94C148.034 37.522 144.058 35.176 139.501 34.578C139.343 34.559 139.257 34.74 139.401 34.825C140.653 35.569 142.044 36.01 143.36 36.617C139.731 36.503 135.893 35.6731 132.807 33.7561C132.727 33.7061 132.53 33.737 132.538 33.859C132.569 34.425 132.682 34.9691 132.821 35.5141C132.034 34.9911 131.446 34.2441 130.774 33.5741C130.7 33.4991 130.464 33.5141 130.471 33.6551C130.516 34.5221 130.746 35.3411 130.992 36.1651C130.312 35.6111 129.939 34.726 129.406 34.044C129.355 33.978 129.246 33.9441 129.168 33.9831C128.406 34.3661 127.863 35.066 127.117 35.46C127.281 34.552 127.519 33.659 127.666 32.747C127.691 32.597 127.455 32.59 127.373 32.638C126.273 33.278 125.209 33.977 124.172 34.718C124.713 33.975 125.168 33.1771 125.502 32.3321C125.549 32.2171 125.393 32.131 125.297 32.158C123.221 32.708 121.627 34.205 119.799 35.24C117.619 36.473 115.262 37.37 112.844 38.008C115.522 36.218 118.565 35.033 121.182 33.14C121.284 33.068 121.227 32.933 121.116 32.911C118.016 32.287 114.968 33.621 111.989 34.396C113.655 33.41 115.573 32.877 117.108 31.659C117.227 31.563 117.126 31.424 116.997 31.422C111.558 31.421 106.683 34.1721 101.587 35.7351C103.153 34.6471 104.917 33.907 106.663 33.145C107.78 32.656 108.851 32.152 110.009 31.776C111.183 31.392 112.366 31.023 113.536 30.627C113.938 30.491 114.944 30.327 115.206 29.939C115.317 29.769 115.005 29.646 114.909 29.789C114.792 29.966 114.286 30.067 114.1 30.133C113.672 30.285 113.243 30.429 112.813 30.572C112.795 30.554 112.77 30.5381 112.731 30.5301C107.549 29.3251 102.143 28.835 96.825 29.104C97.813 28.701 98.831 28.407 99.88 28.171C100.03 28.137 100.062 27.952 99.892 27.913C93.287 26.398 86.349 23.9991 79.488 25.0271C72.994 26.0021 67.56 29.6901 61.853 32.6651C65.554 28.9781 70.478 26.494 75.261 24.551C75.482 24.461 75.265 24.257 75.097 24.31C69.369 26.075 63.755 28.221 58.474 31.051C64.081 27.12 70.085 23.325 76.994 22.546C77.158 22.528 77.164 22.3241 77.004 22.2871C74.637 21.7091 72.221 21.444 69.807 21.153C69.86 21.077 69.817 20.955 69.672 20.947C68.944 20.905 68.217 20.875 67.49 20.854C66.99 20.783 66.496 20.705 65.998 20.62C65.842 20.594 65.727 20.749 65.803 20.827C60.651 20.794 55.526 21.266 50.43 22.099C53.508 20.837 56.801 20.082 60.106 19.766C60.305 19.746 60.251 19.5041 60.071 19.4981C55.21 19.3811 50.348 19.539 45.503 19.958C47.747 19.339 50.054 18.965 52.323 18.443C52.471 18.41 52.512 18.216 52.335 18.184C44.136 16.682 35.708 17.0771 27.468 18.0841C33.165 15.9531 39.388 15.4131 45.411 15.0371C48.776 14.8261 52.198 14.584 55.565 14.908C58.643 15.202 61.534 16.432 64.614 16.7C64.772 16.716 64.864 16.5441 64.716 16.4541C61.583 14.5791 58.023 13.721 54.577 12.609C62.278 12.34 70.013 15.009 76.854 18.317C76.95 18.365 77.227 18.288 77.102 18.146C75.098 15.875 72.299 14.581 69.485 13.515C74.116 14.776 78.348 17.0961 82.489 19.5191C82.589 19.5801 82.852 19.487 82.737 19.348C82.032 18.495 81.237 17.742 80.391 17.042C83.971 18.593 87.729 19.788 91.389 21.083C91.528 21.133 91.69 20.991 91.571 20.865C89.378 18.611 86.768 16.919 84.036 15.416C84.718 15.613 85.403 15.8091 86.083 16.0191C86.218 16.0901 86.349 16.168 86.483 16.241C86.536 16.269 86.655 16.262 86.717 16.213C87.35 16.414 87.977 16.6221 88.598 16.8421C88.928 17.0141 89.254 17.1891 89.575 17.3711C92.888 19.2531 96.013 21.5501 99.675 22.7251C99.78 22.7581 99.968 22.6651 99.882 22.5371C97.948 19.7171 94.796 18.1371 92.448 15.7251C96.593 18.7451 100.905 21.541 105.673 23.49C105.802 23.542 106.048 23.438 105.894 23.289L102.884 20.401C104.661 21.634 106.601 22.657 108.56 23.51C108.689 23.568 108.939 23.453 108.783 23.31C107.896 22.5 107.029 21.673 106.174 20.831C108.707 22.639 111.385 24.2471 114.213 25.5371C114.313 25.5811 114.58 25.513 114.461 25.364C113.106 23.669 111.453 22.2461 110.047 20.6001C112.735 22.1321 115.121 24.1261 117.49 26.1051C117.576 26.1771 117.849 26.1511 117.789 25.9881C116.615 22.8061 114.34 20.1731 111.752 17.9701C111.67 17.8381 111.588 17.7101 111.502 17.5821C112.938 18.5931 114.258 19.7761 115.527 20.9881C117.523 22.8981 118.734 25.518 121.058 27.101C121.15 27.165 121.408 27.1581 121.357 26.9851C120.91 25.4881 120.15 24.108 119.277 22.802C121.435 24.849 123.984 26.495 126.203 28.478C126.305 28.571 126.602 28.485 126.486 28.33C125.334 26.823 124.06 25.416 122.886 23.926C125.072 25.648 127.474 27.119 129.864 28.426C129.975 28.486 130.149 28.428 130.128 28.288C129.815 25.991 128.642 24.002 127.398 22.088C129.074 23.628 130.349 25.5741 132.111 27.0371C132.199 27.1101 132.47 27.0831 132.41 26.9201C131.406 24.1771 129.807 21.696 127.889 19.5C130.832 22.334 132.952 25.954 136.024 28.687C136.11 28.762 136.385 28.7311 136.323 28.5711C136.024 27.7951 135.723 27.01 135.462 26.216C135.401 25.309 135.273 24.4111 135.099 23.5221C135.751 24.2391 136.16 25.2261 136.576 26.0581C137.097 27.1071 137.635 28.161 138.508 28.965C138.6 29.049 138.85 29.0111 138.807 28.8471C138.629 28.1971 138.401 27.563 138.17 26.93C138.922 27.959 139.879 28.85 140.945 29.513C141.052 29.582 141.289 29.4881 141.193 29.3421C140.023 27.5691 139.258 25.649 138.795 23.614C139.533 24.714 140.131 25.9071 140.893 27.0091C141.871 28.4251 143.071 29.46 144.709 30.029C144.781 30.055 144.947 30.013 144.937 29.909C144.775 28.378 144.775 26.799 145.279 25.344C145.26 27.165 145.396 29.129 146.867 30.357C146.969 30.439 147.142 30.4111 147.172 30.2771C147.324 29.5651 147.5 28.8971 147.838 28.2901C147.768 28.9801 147.914 29.661 148.408 30.213C148.488 30.305 148.621 30.313 148.709 30.229C150.814 28.211 152.26 25.693 154.588 23.89C155.053 23.529 155.526 23.1851 156.004 22.8471C155.375 23.6051 154.846 24.3901 154.365 25.1991C154.263 25.3001 154.16 25.398 154.058 25.502C152.406 27.232 151.281 29.212 150.863 31.58C150.711 32.451 151.259 33.434 151.16 34.366C151.133 34.627 150.904 34.79 150.635 34.864C152.244 37.006 154.082 38.864 156.268 40.573C158.245 42.12 161.032 42.786 163.412 43.718C160.996 44.664 158.504 45.227 155.955 45.544C151.883 45.545 147.584 45.0051 144.189 43.4101C144.73 44.0121 145.283 44.6071 145.839 45.1991C144.105 45.7331 142.31 45.8381 140.534 45.5691C138.864 44.8351 137.298 43.75 136.022 42.492C138.612 43.745 141.372 44.523 144.35 44.317Z" fill="url(#paint2_linear_1_884)"/>
  <path d="M90.925 46.086C89.392 46.742 87.82 47.311 86.187 47.66C86.001 47.701 86.031 47.938 86.222 47.927C90.613 47.693 95.015 47.7 99.4 47.339C95.435 48.46 91.423 49.382 87.302 49.7C87.163 49.709 87.122 49.88 87.249 49.943C92.294 52.51 98.345 51.846 103.663 50.582C106.364 49.941 108.979 49.011 111.645 48.243C113.493 47.707 115.434 47.189 117.383 47.031C114.494 48.64 111.891 50.793 109.231 52.733C109.075 52.847 109.266 52.979 109.389 52.968C112.448 52.694 115.366 51.885 118.346 51.209C119.356 50.979 120.471 50.785 121.536 50.469C120.19 51.728 118.876 53.021 117.567 54.319C117.471 54.412 117.614 54.532 117.708 54.529C120.665 54.445 123.769 53.559 126.378 52.185C128.657 50.983 131.013 49.155 131.36 46.478C131.796 47.606 131.612 48.938 132.397 49.937C132.475 50.032 132.614 50.034 132.7 49.952C134.774 48.029 135.468 45.06 135.659 42.311C135.743 42.351 135.823 42.4 135.907 42.44C136.149 43.519 136.341 44.663 136.44 45.816C135.571 48.435 133.928 51.783 131.612 53.757C131.495 52.295 131.688 50.843 131.706 49.383C129.509 52.255 126.403 54.325 122.948 55.442C120.296 55.843 117.618 55.87 114.921 55.443C114.933 55.42 114.937 55.399 114.952 55.374C115.8 54.068 116.819 53.056 117.895 52.071C116.174 52.88 114.483 53.717 112.682 54.136C111.118 54.356 109.512 54.097 107.965 53.683C107.961 53.618 107.967 53.551 108.008 53.478C108.834 51.935 110.301 51.002 111.697 49.989C112.353 49.512 112.943 48.979 113.51 48.425C113.192 48.739 112.653 48.933 112.037 49.064C107.961 50.887 103.582 52.297 99.25 52.758C96.6 53.037 94.145 53.032 91.531 52.523C87.732 51.785 85.506 48.842 81.254 49.018C81.145 49.021 80.99 48.994 80.85 48.938C84.026 47.45 87.405 46.492 90.925 46.086Z" fill="url(#paint3_linear_1_884)"/>
  <path d="M58.807 39.904C62.178 39.858 65.573 39.969 68.916 39.432C72.09 38.924 75.084 37.744 78.215 37.078C75.379 39.114 71.596 39.5 69.133 42.132C69.061 42.209 69.143 42.317 69.227 42.337C71.995 42.886 74.811 42.476 77.584 42.151C76.342 42.79 74.969 43.165 73.82 43.988C73.697 44.078 73.806 44.227 73.931 44.224C76.331 44.167 78.704 43.895 81.033 43.341C80.133 43.968 79.223 44.585 78.385 45.297C78.223 45.432 78.448 45.562 78.588 45.519C81.481 44.601 84.438 43.887 87.447 43.458C86.15 44.091 84.711 44.375 83.455 45.093C82.689 45.53 81.959 46.02 81.24 46.527C79.717 47.06 78.144 47.41 77 46.833C74.605 45.63 72.338 44.342 69.815 43.378C68.194 42.76 66.512 42.562 64.875 42.068C64.859 42.065 64.852 42.053 64.84 42.047C60.5 41.453 56.137 41 51.797 40.472C50.619 40.328 49.44 40.18 48.262 40.029C51.778 40.01 55.292 39.949 58.807 39.904Z" fill="url(#paint4_linear_1_884)"/>
  <path d="M6.216 21.603C19.736 17.458 33.542 15.32 47.677 16.768C51.355 17.143 55.03 17.569 58.7 18.039C58.843 18.052 58.983 18.076 59.128 18.091C59.505 18.141 59.886 18.1861 60.263 18.2351C61.413 18.3731 62.556 18.525 63.697 18.705C74.8 20.242 85.849 22.188 96.789 24.564C108.977 27.215 121.357 30.177 133.83 31.056C146.17 31.925 159.334 31.541 170.937 26.737C174.212 25.382 176.81 23.129 179.798 21.307C181.128 20.496 183.138 19.4571 184.743 19.8991C189.907 21.3171 183.585 26.641 181.731 28.043C167.327 38.941 148.108 37.104 136.174 35.803C132.692 35.424 129.238 34.817 125.822 34.043C120.828 32.91 115.863 31.636 110.859 30.549C96.509 27.431 82.132 24.292 67.711 21.523C63.928 20.797 60.115 19.888 56.291 19.382C47.994 18.28 39.783 17.368 31.402 17.766C22.955 18.168 14.577 19.945 6.414 22.062C6.034 22.161 5.768 21.741 6.216 21.603Z" fill="url(#paint5_linear_1_884)"/>
  <g opacity="0.6">
    <path d="M105.815 27.876C120.313 31.764 139.559 34.5101 152.592 34.9411C165.623 35.3721 179.323 28.461 182.967 24.664C185.686 21.833 184.807 20.37 184.186 19.809C184.376 19.825 184.563 19.8501 184.743 19.8991C189.907 21.3171 183.585 26.641 181.731 28.043C167.327 38.941 148.108 37.1041 136.174 35.8031C132.692 35.4241 129.238 34.817 125.822 34.043C120.828 32.91 115.863 31.636 110.859 30.549C96.509 27.431 82.132 24.292 67.711 21.523C63.928 20.797 60.115 19.888 56.291 19.382C47.994 18.28 39.783 17.368 31.402 17.766C24.004 18.12 16.657 19.527 9.45898 21.292C35.86 11.019 91.407 24.012 105.815 27.876Z" fill="url(#paint6_linear_1_884)"/>
  </g>
  <path d="M183.436 20.556C183.436 20.556 181.35 20.949 174.721 25.184C168.09 29.418 150.141 34.583 124.324 30.317C124.324 30.317 154.187 36.245 169.238 30.004C184.28 23.77 183.436 20.556 183.436 20.556Z" fill="url(#paint7_linear_1_884)"/>
  <path d="M39.649 17.8291C39.649 17.8291 62.366 19.251 81.526 24.213L97.594 27.177C97.594 27.177 57.11 16.4751 39.649 17.8291Z" fill="url(#paint8_linear_1_884)"/>
  <path d="M82.919 14.813C81.892 14.273 80.855 13.75 79.819 13.231C81.143 13.707 82.475 14.185 83.792 14.697C84.198 14.94 84.605 15.181 85.013 15.419C84.317 15.214 83.618 15.015 82.919 14.813Z" fill="white"/>
  <path d="M97.272 3.47302C97.131 3.31202 97.477 3.214 97.588 3.302C99.865 5.095 102.817 5.575 105.486 6.518C107.756 7.32 110.008 8.18902 112.187 9.21002C109.357 7.41102 106.339 6.19702 103.181 4.89502C102.898 4.77902 103.21 4.58202 103.4 4.63202C105.531 5.21902 107.644 5.62099 109.685 6.48999C111.664 7.32599 113.478 8.561 115.181 9.854C118.115 12.078 120.857 15.042 122.701 18.289C123.412 19.218 124.015 20.212 124.375 21.339C124.482 21.675 123.877 21.697 123.736 21.473C120.625 16.449 115.707 12.692 110.402 10.214C107.943 9.06499 105.435 7.99502 102.933 6.93902C100.884 6.07302 98.764 5.19002 97.272 3.47302Z" fill="white"/>
  <path d="M108.224 3.922C111.659 3.913 114.937 4.81605 117.874 6.59705C120.704 8.31405 123.681 11.207 124.868 14.346C124.964 14.601 124.466 14.673 124.344 14.507C122.442 11.907 120.084 9.88503 117.395 8.12403C114.6 6.29903 111.542 4.589 108.18 4.159C107.979 4.132 108.046 3.923 108.224 3.922Z" fill="white"/>
  <path d="M131.927 19.263C130.525 17.254 129.042 15.355 127.413 13.521C125.499 11.368 123.161 9.73798 120.923 7.94798C120.737 7.79998 121.052 7.69702 121.179 7.76702C123.806 9.19702 126.181 10.786 128.163 12.757C127.507 11.918 126.815 11.104 126.124 10.297C125.985 10.133 126.331 10.032 126.44 10.123C128.26 11.612 129.856 13.233 131.17 15.189C132.498 17.158 133.072 19.096 133.662 21.343C133.728 21.586 133.285 21.665 133.166 21.494C132.675 20.807 132.288 20.043 131.927 19.263Z" fill="white"/>
  <path d="M97.597 9.711C95.827 7.891 93.284 5.59201 93.154 2.87201C93.146 2.69601 93.478 2.70105 93.543 2.82905C94.789 5.33805 96.91 7.24205 98.93 9.14905C98.01 8.04805 97.211 6.87304 96.405 5.56904C96.286 5.37004 96.721 5.34601 96.823 5.44001C98.589 7.07701 100.171 8.84202 102.016 10.403C104.055 12.129 105.69 14.267 107.893 15.801C108.038 15.904 107.795 15.987 107.698 15.938C106.532 15.335 105.423 14.658 104.356 13.919C105.276 14.698 106.186 15.49 107.067 16.317C107.356 16.588 106.696 16.747 106.501 16.625C103.306 14.633 100.227 12.417 97.597 9.711Z" fill="white"/>
  <path d="M90.161 5.30902C90.19 5.14202 90.577 5.16301 90.589 5.33801C90.677 6.89801 90.939 8.27599 91.607 9.69799C92.312 11.194 93.498 12.407 94.183 13.922C94.331 14.252 93.683 14.298 93.521 14.127C91.077 11.513 89.501 8.95302 90.161 5.30902Z" fill="white"/>
  <path d="M72.089 4.10005C73.53 4.38605 74.986 4.45405 76.421 4.79805C78.12 5.20605 79.737 5.87801 81.304 6.64101C84.119 8.02001 86.722 10.144 88.64 12.63C88.855 12.908 88.316 13.039 88.134 12.906C85.536 11.038 83.142 9.06005 80.284 7.56905C77.565 6.15105 74.796 5.35704 71.927 4.36904C71.682 4.28504 71.911 4.06505 72.089 4.10005Z" fill="white"/>
  <path d="M27.688 8.11901C28.917 7.72701 30.116 7.25301 31.319 6.79601C35.219 4.99901 39.6 3.90002 43.794 3.08202C45.921 2.66602 48.132 2.43301 50.288 2.25701C50.559 2.23401 50.833 2.227 51.104 2.226C60.03 1.285 69.215 3.169 76.176 9.187C76.422 9.401 75.867 9.55301 75.699 9.44701C71.963 7.08601 67.631 5.80001 63.463 4.40301C62.326 4.02401 61.172 3.72003 60.006 3.47503C64.506 4.58203 68.746 6.59203 72.076 9.56603C72.373 9.83003 71.707 9.95598 71.529 9.86498C65.191 6.62598 58.685 3.73299 51.705 3.11999C49.289 3.25199 46.892 3.50299 44.473 3.93499C48.643 3.75399 53.118 4.43101 56.645 6.58501C56.96 6.77701 56.477 6.98303 56.28 6.91503C51.555 5.31603 46.473 4.688 41.505 5.268C40.896 5.339 40.29 5.43002 39.689 5.53802C40.83 5.49002 41.984 5.504 43.162 5.604C45.312 5.784 47.396 6.23404 49.47 6.83404C51.497 7.42504 53.318 8.45803 55.296 9.16503C55.579 9.26603 55.267 9.47999 55.077 9.42699C53.415 8.97199 51.821 8.29099 50.169 7.80199C48.066 7.17799 45.786 6.85398 43.603 6.71398C41.72 6.59098 39.814 6.65299 37.935 6.78899C35.904 6.93599 33.921 7.49199 31.888 7.58099C31.818 7.58399 31.749 7.564 31.687 7.536C30.431 7.868 29.167 8.17701 27.886 8.42101C27.69 8.45701 27.399 8.21001 27.688 8.11901Z" fill="white"/>
  <path d="M12.251 16.062C17.237 12.592 22.911 10.882 28.989 11.073C29.229 11.08 29.239 11.323 28.995 11.337C23.282 11.644 17.665 13.795 12.599 16.351C12.413 16.444 11.985 16.248 12.251 16.062Z" fill="white"/>
  <path d="M142.858 24.165C142.11 22.487 143.352 19.975 144.672 18.914C144.764 18.841 145.059 18.901 144.945 19.047C143.8 20.526 143.855 22.419 143.486 24.151C143.434 24.395 142.946 24.36 142.858 24.165Z" fill="white"/>
  <path d="M148.212 24.219C150.335 21.215 154.355 19.103 158.042 19.221C158.206 19.223 158.29 19.4031 158.093 19.4461C154.542 20.1901 151.476 22.279 148.616 24.418C148.479 24.518 148.052 24.443 148.212 24.219Z" fill="white"/>
  <path d="M117.544 48.825C119.784 47.505 122.06 46.384 124.155 44.823C125.245 44.01 126.266 43.127 127.208 42.144C128.023 41.296 128.997 40.689 129.382 39.512C129.427 39.372 129.79 39.373 129.771 39.538C129.652 40.458 129.166 41.143 128.607 41.863C127.847 42.844 127.086 43.897 126.14 44.706C123.761 46.738 120.954 48.378 117.941 49.262C117.7 49.333 117.184 49.037 117.544 48.825Z" fill="white"/>
  <path d="M91.122 44.547C93.302 44.866 95.936 43.984 98.048 43.494C100.691 42.881 103.118 42.032 105.558 40.854C105.769 40.754 106.224 40.9441 105.945 41.1751C103.81 42.9591 101.101 43.797 98.416 44.331C96.115 44.787 93.287 45.475 90.971 44.801C90.731 44.73 90.96 44.522 91.122 44.547Z" fill="white"/>
  <defs>
    <linearGradient id="paint0_linear_1_884" x1="161.009" y1="34.7402" x2="32.2967" y2="19.284" gradientUnits="userSpaceOnUse">
      <stop offset="0.0387" stop-color="#DCD8BE"/>
      <stop offset="1" stop-color="#E8E8E8"/>
    </linearGradient>
    <linearGradient id="paint1_linear_1_884" x1="69.3705" y1="80.2075" x2="93.5416" y2="-9.681" gradientUnits="userSpaceOnUse">
      <stop offset="0.0387" stop-color="#DCD8BE"/>
      <stop offset="1" stop-color="#E8E8E8"/>
    </linearGradient>
    <linearGradient id="paint2_linear_1_884" x1="82.3368" y1="82.6854" x2="104.744" y2="-5.89654" gradientUnits="userSpaceOnUse">
      <stop offset="0.0387" stop-color="#DCD8BE"/>
      <stop offset="1" stop-color="#E8E8E8"/>
    </linearGradient>
    <linearGradient id="paint3_linear_1_884" x1="98.6692" y1="86.8143" x2="121.077" y2="-1.76654" gradientUnits="userSpaceOnUse">
      <stop offset="0.0387" stop-color="#DCD8BE"/>
      <stop offset="1" stop-color="#E8E8E8"/>
    </linearGradient>
    <linearGradient id="paint4_linear_1_884" x1="58.9889" y1="76.7918" x2="81.4029" y2="-11.815" gradientUnits="userSpaceOnUse">
      <stop offset="0.0387" stop-color="#DCD8BE"/>
      <stop offset="1" stop-color="#E8E8E8"/>
    </linearGradient>
    <linearGradient id="paint5_linear_1_884" x1="100.213" y1="47.3771" x2="90.7534" y2="-15.428" gradientUnits="userSpaceOnUse">
      <stop offset="0.0387" stop-color="#C1BFA8"/>
      <stop offset="0.5217" stop-color="#E0DECD"/>
      <stop offset="1" stop-color="#E8E8E8"/>
    </linearGradient>
    <linearGradient id="paint6_linear_1_884" x1="95.6772" y1="32.1144" x2="99.9995" y2="13.4588" gradientUnits="userSpaceOnUse">
      <stop offset="0.0387" stop-color="#C1BFA8"/>
      <stop offset="0.5217" stop-color="#E0DECD"/>
      <stop offset="1" stop-color="#E8E8E8"/>
    </linearGradient>
    <linearGradient id="paint7_linear_1_884" x1="154.709" y1="28.57" x2="157.072" y2="37.5025" gradientUnits="userSpaceOnUse">
      <stop offset="0.0387" stop-color="#DCD8BE"/>
      <stop offset="1" stop-color="#E8E8E8"/>
    </linearGradient>
    <linearGradient id="paint8_linear_1_884" x1="68.7259" y1="11.1085" x2="68.5753" y2="27.6068" gradientUnits="userSpaceOnUse">
      <stop offset="0.0397" stop-color="#757466"/>
      <stop offset="1" stop-color="#E8E8E8"/>
    </linearGradient>
  </defs>
</svg>