<svg width="708" height="60" viewBox="0 0 708 60" fill="none" xmlns="http://www.w3.org/2000/svg">
<path d="M359.571 41.2006C359.571 41.2006 359.863 41.413 360.433 41.8266C361 42.2436 361.853 42.8514 362.977 43.6403C365.234 45.2009 368.583 47.4932 373.139 50.011C375.42 51.2603 378.003 52.5677 380.921 53.7754C382.379 54.3806 383.921 54.9571 385.544 55.4981C387.172 56.0227 388.876 56.5238 390.666 56.9391C392.456 57.35 394.324 57.6977 396.266 57.956C398.209 58.2031 400.224 58.3531 402.301 58.3982C402.82 58.4008 403.343 58.4216 403.869 58.4103C404.395 58.3999 404.926 58.3895 405.459 58.3791C405.992 58.3514 406.529 58.3236 407.069 58.2959C407.609 58.2734 408.151 58.2101 408.697 58.1684C410.881 57.969 413.11 57.6509 415.372 57.2096C417.626 56.7639 419.899 56.157 422.151 55.3542C424.406 54.5592 426.627 53.5335 428.753 52.2712C429.807 51.6253 430.849 50.9386 431.835 50.1627C432.82 49.3867 433.766 48.5483 434.653 47.6371C436.402 45.7983 437.935 43.6871 439.016 41.3099C440.103 38.9404 440.795 36.3429 440.981 33.65C441.019 33.3154 441.014 32.9755 441.033 32.6374C441.053 32.2993 441.047 31.9594 441.042 31.6187L441.038 31.108C441.033 30.9381 441.017 30.769 441.007 30.6C440.984 30.261 440.961 29.922 440.938 29.5821C440.786 28.2287 440.522 26.8849 440.128 25.568C439.711 24.2588 439.163 22.9843 438.49 21.7636C437.824 20.5386 436.998 19.3889 436.083 18.3026C435.163 17.2189 434.145 16.1984 433.032 15.2647C431.917 14.3326 430.723 13.4752 429.467 12.6906C426.957 11.1161 424.187 9.86593 421.295 8.89231C418.398 7.92735 415.362 7.24069 412.277 6.96672C409.162 6.68841 405.992 6.72657 402.823 7.08377C399.655 7.46524 396.491 8.16057 393.37 9.13333C387.123 11.0953 381.08 14.1168 375.128 17.5423C369.164 20.9617 363.259 24.7842 357.074 28.4039C355.533 29.2951 353.997 30.1838 352.465 31.0699C350.944 31.9542 349.431 32.855 347.922 33.7515C344.905 35.547 341.903 37.3434 338.894 39.0904C332.877 42.5843 326.83 45.8954 320.636 48.6931C317.54 50.0907 314.406 51.3591 311.23 52.4377C308.055 53.5171 304.831 54.4014 301.571 55.0039C298.314 55.6065 295.019 55.9273 291.746 55.8605C291.337 55.8501 290.928 55.8475 290.521 55.8302C290.113 55.799 289.706 55.7678 289.3 55.7365L288.692 55.6889L288.387 55.6655L288.085 55.6256C287.681 55.5701 287.278 55.5155 286.876 55.46L286.273 55.3767C286.072 55.3507 285.876 55.3013 285.678 55.2649C285.283 55.186 284.887 55.1062 284.494 55.0274C283.702 54.8912 282.929 54.6554 282.153 54.4517C281.372 54.2661 280.62 53.9731 279.862 53.7191L279.295 53.5231C279.109 53.4512 278.926 53.3671 278.741 53.2899C278.373 53.1321 278.005 52.9743 277.638 52.8174C277.267 52.6717 276.917 52.4749 276.561 52.292C276.208 52.1073 275.854 51.9227 275.501 51.738C275.154 51.5412 274.821 51.3192 274.482 51.1112L273.977 50.7938L273.725 50.6352C273.642 50.5788 273.564 50.5173 273.484 50.4583C273.165 50.2199 272.846 49.9823 272.528 49.7457C272.372 49.6234 272.206 49.5159 272.058 49.3815L271.613 48.9879C271.317 48.7243 271.021 48.4617 270.726 48.1998C270.453 47.9137 270.18 47.6285 269.907 47.3441L269.501 46.9167C269.372 46.7684 269.252 46.6124 269.127 46.4606C268.881 46.1546 268.635 45.8494 268.39 45.5442C268.16 45.2278 267.948 44.8992 267.728 44.5775L267.402 44.0929C267.294 43.9308 267.207 43.7565 267.109 43.5892C266.919 43.2511 266.729 42.9138 266.54 42.5765C266.366 42.2323 266.212 41.8786 266.048 41.5301L265.807 41.0064C265.729 40.8313 265.67 40.6484 265.602 40.4706C265.469 40.1126 265.337 39.7545 265.205 39.3973C265.089 39.0349 264.992 38.6682 264.885 38.3049L264.729 37.7596C264.68 37.5775 264.648 37.3911 264.607 37.2081C264.53 36.8397 264.453 36.4729 264.377 36.1062C264.315 35.7377 264.271 35.3667 264.218 34.9982L264.142 34.4459C264.118 34.2621 264.112 34.0766 264.097 33.8919C264.071 33.5226 264.045 33.155 264.019 32.7874C264.002 32.4198 264.01 32.053 264.004 31.6863C264.003 31.3204 263.993 30.9546 264.022 30.5913C264.043 30.228 264.063 29.8656 264.084 29.5032C264.102 29.1417 264.161 28.7845 264.197 28.4256L264.261 27.8898L264.293 27.6219L264.34 27.3574C264.402 27.0046 264.464 26.6526 264.527 26.3014C265.636 20.7094 268.26 15.634 272.023 11.8695C273.893 10.0428 275.877 8.43367 277.941 7.02915C278.465 6.69015 278.973 6.33382 279.502 6.0165C280.035 5.70526 280.565 5.39661 281.091 5.08969C282.171 4.52268 283.236 3.95741 284.334 3.49444C286.514 2.54248 288.711 1.76306 290.911 1.23853C291.455 1.08247 292.008 0.983641 292.553 0.867464C293.099 0.75649 293.639 0.631633 294.185 0.561407C294.727 0.479043 295.268 0.397555 295.803 0.316058C296.343 0.263172 296.878 0.21028 297.409 0.15826C297.94 0.0949703 298.469 0.0793616 298.995 0.0550859C299.257 0.0429481 299.519 0.0316769 299.779 0.0195391C300.04 0.0056673 300.3 -0.00472704 300.559 0.00220887C301.076 0.00567682 301.591 0.00913906 302.1 0.012607L302.482 0.0169462L302.862 0.0386156C303.114 0.0533544 303.365 0.068102 303.616 0.0828408C303.866 0.0975796 304.115 0.112314 304.364 0.127053L304.736 0.150455L305.104 0.191214C305.595 0.244968 306.082 0.298719 306.564 0.351605C307.047 0.39322 307.52 0.492048 307.992 0.561407C308.461 0.64117 308.93 0.70447 309.39 0.79637C313.071 1.5151 316.394 2.61183 319.333 3.87244C322.273 5.1339 324.829 6.55751 327.046 7.95422C331.446 10.8144 334.488 13.535 336.463 15.4433C337.467 16.384 338.173 17.1599 338.662 17.6671C339.148 18.1769 339.396 18.4378 339.396 18.4378C339.396 18.4378 339.139 18.1855 338.636 17.6922C338.131 17.2015 337.401 16.4507 336.368 15.5456C334.337 13.7076 331.219 11.0936 326.777 8.39032C324.54 7.07163 321.973 5.7382 319.043 4.57644C316.115 3.41554 312.823 2.4289 309.209 1.81941C308.758 1.74138 308.298 1.69196 307.837 1.62521C307.375 1.56885 306.912 1.48389 306.44 1.45528C305.968 1.4154 305.493 1.37552 305.013 1.33477L304.654 1.30442L304.291 1.29055C304.049 1.28274 303.806 1.27407 303.562 1.26627C303.318 1.25847 303.073 1.2498 302.828 1.242L302.458 1.22986L302.087 1.23506C301.592 1.24373 301.093 1.25241 300.59 1.26195C300.339 1.26108 300.087 1.27754 299.834 1.29748C299.582 1.31482 299.329 1.33303 299.074 1.35037C298.565 1.38592 298.052 1.4128 297.54 1.48736C297.027 1.54978 296.51 1.61307 295.99 1.67636C295.474 1.7674 294.955 1.85843 294.431 1.95033C293.906 2.03009 293.388 2.1636 292.863 2.28238C292.34 2.40636 291.809 2.51301 291.289 2.676C289.181 3.22914 287.086 4.02763 285.015 4.98652C280.863 6.89216 276.898 9.70641 273.408 13.2385C273 13.6911 272.565 14.1211 272.191 14.6136C271.999 14.8537 271.8 15.0904 271.611 15.3358C271.432 15.5889 271.251 15.8421 271.071 16.0961L270.799 16.4776C270.714 16.6085 270.633 16.7429 270.55 16.8755C270.384 17.1417 270.218 17.4079 270.051 17.6758C269.888 17.9454 269.746 18.2289 269.593 18.5046C269.446 18.7855 269.278 19.0551 269.15 19.3482C268.883 19.9265 268.591 20.4961 268.365 21.0986C268.246 21.3969 268.12 21.6934 268.006 21.996C267.902 22.302 267.798 22.6081 267.693 22.915L267.536 23.3753L267.404 23.8452C267.317 24.1582 267.229 24.473 267.141 24.7877C267.06 25.1041 266.999 25.4258 266.926 25.7457C266.858 26.0665 266.776 26.3855 266.732 26.7115C266.68 27.0366 266.628 27.3618 266.576 27.6886L266.537 27.9331L266.513 28.1802L266.464 28.6744C266.436 29.0047 266.386 29.3333 266.375 29.6662C266.362 29.9983 266.349 30.3303 266.336 30.6641C266.314 30.997 266.33 31.3308 266.337 31.6646C266.348 31.9984 266.345 32.3339 266.367 32.6677C266.396 33.0015 266.426 33.3353 266.454 33.67C266.471 33.8373 266.478 34.0055 266.503 34.172L266.581 34.6705C266.634 35.0025 266.679 35.3372 266.739 35.6684C266.814 35.997 266.888 36.3255 266.964 36.6559C267.003 36.8197 267.034 36.9871 267.08 37.1501L267.228 37.6356C267.329 37.959 267.421 38.2858 267.528 38.6075C267.651 38.923 267.775 39.2404 267.898 39.5568C267.962 39.7146 268.015 39.8767 268.087 40.0311L268.309 40.4914C268.459 40.7975 268.598 41.1096 268.757 41.4113C268.928 41.7061 269.101 42.0017 269.274 42.2974C269.363 42.4439 269.441 42.5973 269.538 42.7387L269.834 43.16C270.033 43.44 270.222 43.727 270.428 44.0027C270.649 44.268 270.87 44.5333 271.091 44.7995C271.203 44.9313 271.308 45.0683 271.425 45.1966L271.79 45.5676C272.033 45.8156 272.277 46.0636 272.52 46.3124C272.785 46.5404 273.05 46.7676 273.315 46.9964L273.713 47.3398C273.844 47.4568 273.996 47.5496 274.136 47.6562C274.421 47.8626 274.706 48.0698 274.992 48.2778C275.064 48.329 275.134 48.3836 275.207 48.4322L275.435 48.57L275.891 48.8466C276.197 49.0287 276.495 49.2237 276.808 49.3963C277.128 49.5575 277.448 49.7188 277.769 49.8809C278.091 50.0413 278.406 50.2156 278.746 50.3421C279.081 50.48 279.416 50.6187 279.752 50.7574C279.92 50.8259 280.087 50.8996 280.257 50.9629L280.778 51.1346C281.476 51.3574 282.16 51.6184 282.886 51.7796C283.605 51.9573 284.315 52.168 285.056 52.2842C285.424 52.3536 285.791 52.4221 286.16 52.4914C286.345 52.5226 286.528 52.5677 286.713 52.5894L287.271 52.6587C287.642 52.7056 288.014 52.7515 288.387 52.7983L288.667 52.8321L288.95 52.8503L289.515 52.8868C289.891 52.9119 290.269 52.9362 290.647 52.9613C291.025 52.9726 291.406 52.97 291.787 52.9752C294.832 53.0038 297.925 52.6735 301.01 52.0718C304.096 51.471 307.176 50.5979 310.23 49.5315C313.285 48.466 316.318 47.2123 319.33 45.8286C325.356 43.0577 331.295 39.7692 337.254 36.2805C340.235 34.5361 343.221 32.7388 346.242 30.9338C347.753 30.0321 349.271 29.1261 350.807 28.2313C352.337 27.3453 353.872 26.4566 355.411 25.5654C361.515 21.9934 367.434 18.1769 373.512 14.7185C379.578 11.2575 385.845 8.14929 392.438 6.12574C395.732 5.12263 399.097 4.40737 402.476 4.02936C405.857 3.67476 409.245 3.66436 412.559 3.99381C415.906 4.325 419.137 5.0949 422.22 6.15869C425.299 7.23376 428.246 8.60446 430.944 10.3419C432.293 11.208 433.583 12.1583 434.79 13.196C435.997 14.2364 437.109 15.3791 438.117 16.5998C439.119 17.8232 440.025 19.1254 440.758 20.516C441.496 21.9015 442.095 23.3511 442.541 24.8345C442.964 26.3248 443.238 27.8395 443.381 29.3515C443.401 29.7295 443.421 30.1075 443.44 30.4846C443.448 30.6728 443.462 30.8618 443.465 31.0491L443.461 31.6109C443.459 31.9845 443.46 32.3573 443.432 32.7301C443.406 33.1021 443.403 33.474 443.358 33.8434C443.104 36.8059 442.289 39.6756 441.043 42.2662C439.803 44.868 438.08 47.149 436.147 49.1041C435.169 50.0734 434.132 50.956 433.062 51.7666C431.99 52.5772 430.867 53.2873 429.736 53.9488C427.456 55.2415 425.103 56.268 422.736 57.0474C420.371 57.8355 418.003 58.4121 415.671 58.8204C413.345 59.2227 411.053 59.4958 408.812 59.6493C408.251 59.6787 407.695 59.7308 407.141 59.7412C406.587 59.7568 406.037 59.7724 405.49 59.788C404.943 59.7854 404.401 59.7836 403.861 59.7811C403.322 59.7793 402.787 59.7464 402.256 59.7299C400.132 59.6328 398.074 59.4282 396.097 59.1265C394.12 58.8135 392.225 58.4103 390.414 57.9439C388.603 57.474 386.886 56.9191 385.25 56.3426C383.62 55.7495 382.074 55.1227 380.617 54.4707C377.702 53.1685 375.139 51.7762 372.883 50.4523C368.377 47.7863 365.099 45.3847 362.892 43.7504C361.793 42.9242 360.961 42.2878 360.408 41.8509C359.855 41.4226 359.571 41.2006 359.571 41.2006Z" fill="url(#paint0_linear_6_29674)"/>
<path d="M393.805 19.4912C393.805 19.4912 393.532 19.5328 393.016 19.6126C392.759 19.6542 392.439 19.6941 392.063 19.76C391.689 19.8294 391.257 19.9091 390.772 19.9993C388.836 20.3773 386.072 21.0769 382.801 22.2968C379.528 23.5097 375.775 25.294 371.749 27.5559C367.719 29.8153 363.414 32.5481 358.82 35.3875C356.522 36.8041 354.256 38.1731 352.022 39.4389C350.906 40.0727 349.798 40.6804 348.7 41.257C347.629 41.8274 346.579 42.3866 345.554 42.9337C341.481 45.1541 337.818 47.2747 334.657 48.9142C334.263 49.1206 333.879 49.3226 333.504 49.5185C333.124 49.7066 332.754 49.8904 332.393 50.069C331.673 50.421 330.994 50.7531 330.356 51.0643C329.058 51.6391 327.952 52.1463 327.029 52.5209C325.167 53.2396 324.14 53.6159 324.14 53.6159C324.14 53.6159 325.089 53.0497 326.799 52.0622C327.647 51.5525 328.662 50.8901 329.853 50.1549C330.438 49.7665 331.063 49.3512 331.724 48.9116C332.056 48.6923 332.396 48.4677 332.746 48.2362C333.093 47.9978 333.448 47.7542 333.812 47.5045C335.276 46.5005 336.873 45.4055 338.582 44.2325C339.445 43.6446 340.335 43.0369 341.262 42.4196C342.197 41.8092 343.153 41.1746 344.151 40.5426C345.154 39.9253 346.201 39.2785 347.246 38.6534C348.288 38.0361 349.347 37.3937 350.423 36.7313C352.581 35.3927 354.812 34.0081 357.097 32.5905C361.689 29.7512 366.189 27.1389 370.475 25.0937C374.757 23.045 378.818 21.5781 382.317 20.7267C385.817 19.8658 388.718 19.5632 390.712 19.4877C391.209 19.4756 391.652 19.4652 392.037 19.4565C392.421 19.4522 392.746 19.4669 393.008 19.4704C393.529 19.4852 393.805 19.4912 393.805 19.4912Z" fill="url(#paint1_linear_6_29674)"/>
<path d="M385.677 8.07907C385.677 8.07907 385.404 8.12068 384.888 8.20044C384.631 8.24206 384.311 8.28194 383.935 8.34783C383.561 8.41719 383.129 8.49695 382.644 8.58712C380.708 8.96513 377.944 9.66479 374.673 10.8846C371.399 12.0976 367.647 13.8818 363.621 16.1438C359.59 18.4032 355.286 21.135 350.692 23.9753C348.393 25.392 346.127 26.7609 343.893 28.0267C342.777 28.6605 341.669 29.2683 340.571 29.8448C339.5 30.4153 338.451 30.9745 337.425 31.5216C333.352 33.7419 329.689 35.8626 326.528 37.502C326.134 37.7084 325.75 37.9104 325.375 38.1063C324.995 38.2945 324.625 38.4783 324.265 38.6569C323.545 39.0089 322.866 39.3409 322.228 39.6522C320.93 40.227 319.824 40.7333 318.901 41.1087C317.039 41.8266 316.011 42.2037 316.011 42.2037C316.011 42.2037 316.96 41.6376 318.67 40.6501C319.518 40.1403 320.533 39.4779 321.724 38.7436C322.309 38.3552 322.934 37.9399 323.596 37.5003C323.927 37.281 324.268 37.0564 324.617 36.8249C324.964 36.5874 325.319 36.3429 325.683 36.0932C327.147 35.0892 328.744 33.9942 330.453 32.822C331.316 32.2342 332.207 31.6265 333.133 31.0092C334.068 30.3979 335.024 29.7642 336.022 29.1321C337.025 28.5149 338.073 27.8681 339.117 27.243C340.159 26.6257 341.218 25.9832 342.294 25.3209C344.452 23.9822 346.683 22.5977 348.968 21.1801C353.561 18.3407 358.06 15.7285 362.346 13.6833C366.629 11.6346 370.689 10.1676 374.188 9.31626C377.688 8.45534 380.589 8.15276 382.583 8.07733C383.081 8.06519 383.524 8.05479 383.909 8.04613C384.292 8.04179 384.617 8.05652 384.879 8.05999C385.401 8.07213 385.677 8.07907 385.677 8.07907Z" fill="url(#paint2_linear_6_29674)"/>
<path d="M708 33.5971C708 33.5971 704.206 12.994 678.311 33.7159C678.311 33.7159 702.723 54.6485 708 33.5971ZM702.047 33.7124C702.05 34.2578 701.609 34.7017 701.063 34.7043C700.518 34.7069 700.074 34.2656 700.071 33.7202C700.069 33.1749 700.51 32.7301 701.055 32.7284C701.601 32.7267 702.045 33.1671 702.047 33.7124ZM684.731 33.754C684.731 33.754 686.4 27.5525 698.282 33.6994C698.282 33.6994 687.203 40.0631 684.731 33.754Z" fill="url(#paint3_linear_6_29674)"/>
<path d="M676.393 36.544C674.886 36.5501 673.659 35.3337 673.653 33.826C673.647 32.3192 674.864 31.0924 676.371 31.0863C677.878 31.0803 679.105 32.2966 679.111 33.8043C679.117 35.3112 677.9 36.5379 676.393 36.544Z" fill="url(#paint4_linear_6_29674)"/>
<path d="M655.43 36.6272C653.923 36.6333 652.697 35.4169 652.691 33.9092C652.684 32.4024 653.901 31.1756 655.409 31.1695C656.915 31.1635 658.142 32.3799 658.148 33.8876C658.154 35.3953 656.938 36.6212 655.43 36.6272Z" fill="url(#paint5_linear_6_29674)"/>
<path d="M665.9 41.0871C665.9 41.0871 675.236 33.8572 675.153 33.82C675.235 33.7818 665.842 26.6266 665.842 26.6266C664.755 28.9908 656.533 33.8841 656.549 33.8936C656.416 33.9717 664.793 38.7323 665.9 41.0871Z" fill="url(#paint6_linear_6_29674)"/>
<path d="M422.427 33.7792C405.563 20.2854 403.093 33.702 403.093 33.702C406.529 47.4108 422.427 33.7792 422.427 33.7792ZM407.615 33.1359C407.971 33.1376 408.258 33.4263 408.256 33.7818C408.254 34.1372 407.966 34.4242 407.61 34.4225C407.255 34.4208 406.968 34.132 406.97 33.7766C406.97 33.422 407.26 33.135 407.615 33.1359ZM409.421 33.7688C417.159 29.765 418.246 33.8043 418.246 33.8043C416.636 37.913 409.421 33.7688 409.421 33.7688Z" fill="url(#paint7_linear_6_29674)"/>
<path d="M423.676 35.6207C424.657 35.6241 425.455 34.8317 425.46 33.8512C425.463 32.8697 424.672 32.0712 423.69 32.0669C422.709 32.0626 421.91 32.855 421.906 33.8364C421.902 34.8179 422.694 35.6163 423.676 35.6207Z" fill="url(#paint8_linear_6_29674)"/>
<path d="M655.42 32.9339H425.459V34.8647H655.42V32.9339Z" fill="url(#paint9_linear_6_29674)"/>
<path d="M29.6892 33.7159C3.79308 12.994 0 33.5971 0 33.5971C5.27649 54.6485 29.6892 33.7159 29.6892 33.7159ZM6.94457 32.7284C7.48991 32.731 7.93121 33.1749 7.92861 33.7202C7.92601 34.2656 7.4821 34.706 6.93677 34.7043C6.39143 34.7025 5.95101 34.2578 5.95274 33.7124C5.95534 33.1671 6.39924 32.7267 6.94457 32.7284ZM9.71893 33.7003C21.601 27.5525 23.27 33.7549 23.27 33.7549C20.7973 40.0631 9.71893 33.7003 9.71893 33.7003Z" fill="url(#paint10_linear_6_29674)"/>
<path d="M31.6069 36.544C33.1138 36.5501 34.3406 35.3337 34.3466 33.826C34.3527 32.3192 33.1363 31.0924 31.6286 31.0863C30.1218 31.0803 28.895 32.2966 28.8889 33.8043C28.8829 35.3112 30.1001 36.5379 31.6069 36.544Z" fill="url(#paint11_linear_6_29674)"/>
<path d="M52.569 36.6273C54.0758 36.6333 55.3026 35.4169 55.3086 33.9092C55.3147 32.4024 54.0983 31.1756 52.5906 31.1696C51.0838 31.1635 49.857 32.3799 49.8509 33.8876C49.8457 35.3953 51.0621 36.6212 52.569 36.6273Z" fill="url(#paint12_linear_6_29674)"/>
<path d="M42.1001 41.0871C42.1001 41.0871 32.7644 33.8572 32.8467 33.82C32.7652 33.7818 42.1582 26.6266 42.1582 26.6266C43.2454 28.9908 51.467 33.8841 51.4497 33.8936C51.585 33.9717 43.2064 38.7323 42.1001 41.0871Z" fill="url(#paint13_linear_6_29674)"/>
<path d="M304.908 33.702C304.908 33.702 302.438 20.2854 285.574 33.7792C285.574 33.7792 301.471 47.4109 304.908 33.702ZM301.03 33.7775C301.032 34.1329 300.745 34.4216 300.39 34.4234C300.034 34.4251 299.746 34.1381 299.744 33.7827C299.742 33.4272 300.029 33.1385 300.385 33.1368C300.74 33.135 301.03 33.422 301.03 33.7775ZM289.754 33.8043C289.754 33.8043 290.842 29.7659 298.579 33.7688C298.579 33.7688 291.364 37.913 289.754 33.8043Z" fill="url(#paint14_linear_6_29674)"/>
<path d="M284.325 35.6207C283.343 35.6242 282.545 34.8317 282.54 33.8512C282.537 32.8697 283.328 32.0712 284.31 32.0669C285.291 32.0626 286.09 32.855 286.094 33.8364C286.098 34.8179 285.306 35.6164 284.325 35.6207Z" fill="url(#paint15_linear_6_29674)"/>
<path d="M282.541 32.9339H52.5802V34.8647H282.541V32.9339Z" fill="url(#paint16_linear_6_29674)"/>
<defs>
<linearGradient id="paint0_linear_6_29674" x1="264.005" y1="29.899" x2="443.467" y2="29.899" gradientUnits="userSpaceOnUse">
<stop stop-color="#9A7A5F"/>
<stop offset="0.077" stop-color="#C9A885"/>
<stop offset="0.1472" stop-color="#D4B895"/>
<stop offset="0.2662" stop-color="#E2CDAB"/>
<stop offset="0.3818" stop-color="#EBDAB8"/>
<stop offset="0.4892" stop-color="#EEDEBC"/>
<stop offset="0.5877" stop-color="#EBDAB8"/>
<stop offset="0.6903" stop-color="#E3CEAB"/>
<stop offset="0.7944" stop-color="#D5B997"/>
<stop offset="0.8616" stop-color="#C9A885"/>
<stop offset="1" stop-color="#9A7A5F"/>
</linearGradient>
<linearGradient id="paint1_linear_6_29674" x1="324.141" y1="36.537" x2="393.805" y2="36.537" gradientUnits="userSpaceOnUse">
<stop stop-color="#9A7A5F"/>
<stop offset="0.077" stop-color="#C9A885"/>
<stop offset="0.1472" stop-color="#D4B895"/>
<stop offset="0.2662" stop-color="#E2CDAB"/>
<stop offset="0.3818" stop-color="#EBDAB8"/>
<stop offset="0.4892" stop-color="#EEDEBC"/>
<stop offset="0.5877" stop-color="#EBDAB8"/>
<stop offset="0.6903" stop-color="#E3CEAB"/>
<stop offset="0.7944" stop-color="#D5B997"/>
<stop offset="0.8616" stop-color="#C9A885"/>
<stop offset="1" stop-color="#9A7A5F"/>
</linearGradient>
<linearGradient id="paint2_linear_6_29674" x1="316.012" y1="25.1247" x2="385.677" y2="25.1247" gradientUnits="userSpaceOnUse">
<stop stop-color="#9A7A5F"/>
<stop offset="0.077" stop-color="#C9A885"/>
<stop offset="0.1472" stop-color="#D4B895"/>
<stop offset="0.2662" stop-color="#E2CDAB"/>
<stop offset="0.3818" stop-color="#EBDAB8"/>
<stop offset="0.4892" stop-color="#EEDEBC"/>
<stop offset="0.5877" stop-color="#EBDAB8"/>
<stop offset="0.6903" stop-color="#E3CEAB"/>
<stop offset="0.7944" stop-color="#D5B997"/>
<stop offset="0.8616" stop-color="#C9A885"/>
<stop offset="1" stop-color="#9A7A5F"/>
</linearGradient>
<linearGradient id="paint3_linear_6_29674" x1="678.31" y1="33.7298" x2="708" y2="33.7298" gradientUnits="userSpaceOnUse">
<stop stop-color="#9A7A5F"/>
<stop offset="0.077" stop-color="#C9A885"/>
<stop offset="0.1472" stop-color="#D4B895"/>
<stop offset="0.2662" stop-color="#E2CDAB"/>
<stop offset="0.3818" stop-color="#EBDAB8"/>
<stop offset="0.4892" stop-color="#EEDEBC"/>
<stop offset="0.5877" stop-color="#EBDAB8"/>
<stop offset="0.6903" stop-color="#E3CEAB"/>
<stop offset="0.7944" stop-color="#D5B997"/>
<stop offset="0.8616" stop-color="#C9A885"/>
<stop offset="1" stop-color="#9A7A5F"/>
</linearGradient>
<linearGradient id="paint4_linear_6_29674" x1="673.654" y1="33.8151" x2="679.111" y2="33.8151" gradientUnits="userSpaceOnUse">
<stop stop-color="#9A7A5F"/>
<stop offset="0.077" stop-color="#C9A885"/>
<stop offset="0.1472" stop-color="#D4B895"/>
<stop offset="0.2662" stop-color="#E2CDAB"/>
<stop offset="0.3818" stop-color="#EBDAB8"/>
<stop offset="0.4892" stop-color="#EEDEBC"/>
<stop offset="0.5877" stop-color="#EBDAB8"/>
<stop offset="0.6903" stop-color="#E3CEAB"/>
<stop offset="0.7944" stop-color="#D5B997"/>
<stop offset="0.8616" stop-color="#C9A885"/>
<stop offset="1" stop-color="#9A7A5F"/>
</linearGradient>
<linearGradient id="paint5_linear_6_29674" x1="652.691" y1="33.899" x2="658.148" y2="33.899" gradientUnits="userSpaceOnUse">
<stop stop-color="#9A7A5F"/>
<stop offset="0.077" stop-color="#C9A885"/>
<stop offset="0.1472" stop-color="#D4B895"/>
<stop offset="0.2662" stop-color="#E2CDAB"/>
<stop offset="0.3818" stop-color="#EBDAB8"/>
<stop offset="0.4892" stop-color="#EEDEBC"/>
<stop offset="0.5877" stop-color="#EBDAB8"/>
<stop offset="0.6903" stop-color="#E3CEAB"/>
<stop offset="0.7944" stop-color="#D5B997"/>
<stop offset="0.8616" stop-color="#C9A885"/>
<stop offset="1" stop-color="#9A7A5F"/>
</linearGradient>
<linearGradient id="paint6_linear_6_29674" x1="656.548" y1="33.8572" x2="675.154" y2="33.8572" gradientUnits="userSpaceOnUse">
<stop stop-color="#9A7A5F"/>
<stop offset="0.077" stop-color="#C9A885"/>
<stop offset="0.1472" stop-color="#D4B895"/>
<stop offset="0.2662" stop-color="#E2CDAB"/>
<stop offset="0.3818" stop-color="#EBDAB8"/>
<stop offset="0.4892" stop-color="#EEDEBC"/>
<stop offset="0.5877" stop-color="#EBDAB8"/>
<stop offset="0.6903" stop-color="#E3CEAB"/>
<stop offset="0.7944" stop-color="#D5B997"/>
<stop offset="0.8616" stop-color="#C9A885"/>
<stop offset="1" stop-color="#9A7A5F"/>
</linearGradient>
<linearGradient id="paint7_linear_6_29674" x1="403.093" y1="33.7882" x2="422.427" y2="33.7882" gradientUnits="userSpaceOnUse">
<stop stop-color="#9A7A5F"/>
<stop offset="0.077" stop-color="#C9A885"/>
<stop offset="0.1472" stop-color="#D4B895"/>
<stop offset="0.2662" stop-color="#E2CDAB"/>
<stop offset="0.3818" stop-color="#EBDAB8"/>
<stop offset="0.4892" stop-color="#EEDEBC"/>
<stop offset="0.5877" stop-color="#EBDAB8"/>
<stop offset="0.6903" stop-color="#E3CEAB"/>
<stop offset="0.7944" stop-color="#D5B997"/>
<stop offset="0.8616" stop-color="#C9A885"/>
<stop offset="1" stop-color="#9A7A5F"/>
</linearGradient>
<linearGradient id="paint8_linear_6_29674" x1="421.905" y1="33.8439" x2="425.459" y2="33.8439" gradientUnits="userSpaceOnUse">
<stop stop-color="#9A7A5F"/>
<stop offset="0.077" stop-color="#C9A885"/>
<stop offset="0.1472" stop-color="#D4B895"/>
<stop offset="0.2662" stop-color="#E2CDAB"/>
<stop offset="0.3818" stop-color="#EBDAB8"/>
<stop offset="0.4892" stop-color="#EEDEBC"/>
<stop offset="0.5877" stop-color="#EBDAB8"/>
<stop offset="0.6903" stop-color="#E3CEAB"/>
<stop offset="0.7944" stop-color="#D5B997"/>
<stop offset="0.8616" stop-color="#C9A885"/>
<stop offset="1" stop-color="#9A7A5F"/>
</linearGradient>
<linearGradient id="paint9_linear_6_29674" x1="425.459" y1="33.899" x2="655.42" y2="33.899" gradientUnits="userSpaceOnUse">
<stop stop-color="#9A7A5F"/>
<stop offset="0.077" stop-color="#C9A885"/>
<stop offset="0.1472" stop-color="#D4B895"/>
<stop offset="0.2662" stop-color="#E2CDAB"/>
<stop offset="0.3818" stop-color="#EBDAB8"/>
<stop offset="0.4892" stop-color="#EEDEBC"/>
<stop offset="0.5877" stop-color="#EBDAB8"/>
<stop offset="0.6903" stop-color="#E3CEAB"/>
<stop offset="0.7944" stop-color="#D5B997"/>
<stop offset="0.8616" stop-color="#C9A885"/>
<stop offset="1" stop-color="#9A7A5F"/>
</linearGradient>
<linearGradient id="paint10_linear_6_29674" x1="8.66988e-05" y1="33.7298" x2="29.6895" y2="33.7298" gradientUnits="userSpaceOnUse">
<stop stop-color="#9A7A5F"/>
<stop offset="0.077" stop-color="#C9A885"/>
<stop offset="0.1472" stop-color="#D4B895"/>
<stop offset="0.2662" stop-color="#E2CDAB"/>
<stop offset="0.3818" stop-color="#EBDAB8"/>
<stop offset="0.4892" stop-color="#EEDEBC"/>
<stop offset="0.5877" stop-color="#EBDAB8"/>
<stop offset="0.6903" stop-color="#E3CEAB"/>
<stop offset="0.7944" stop-color="#D5B997"/>
<stop offset="0.8616" stop-color="#C9A885"/>
<stop offset="1" stop-color="#9A7A5F"/>
</linearGradient>
<linearGradient id="paint11_linear_6_29674" x1="28.8891" y1="33.8151" x2="34.3463" y2="33.8151" gradientUnits="userSpaceOnUse">
<stop stop-color="#9A7A5F"/>
<stop offset="0.077" stop-color="#C9A885"/>
<stop offset="0.1472" stop-color="#D4B895"/>
<stop offset="0.2662" stop-color="#E2CDAB"/>
<stop offset="0.3818" stop-color="#EBDAB8"/>
<stop offset="0.4892" stop-color="#EEDEBC"/>
<stop offset="0.5877" stop-color="#EBDAB8"/>
<stop offset="0.6903" stop-color="#E3CEAB"/>
<stop offset="0.7944" stop-color="#D5B997"/>
<stop offset="0.8616" stop-color="#C9A885"/>
<stop offset="1" stop-color="#9A7A5F"/>
</linearGradient>
<linearGradient id="paint12_linear_6_29674" x1="49.8517" y1="33.899" x2="55.3088" y2="33.899" gradientUnits="userSpaceOnUse">
<stop stop-color="#9A7A5F"/>
<stop offset="0.077" stop-color="#C9A885"/>
<stop offset="0.1472" stop-color="#D4B895"/>
<stop offset="0.2662" stop-color="#E2CDAB"/>
<stop offset="0.3818" stop-color="#EBDAB8"/>
<stop offset="0.4892" stop-color="#EEDEBC"/>
<stop offset="0.5877" stop-color="#EBDAB8"/>
<stop offset="0.6903" stop-color="#E3CEAB"/>
<stop offset="0.7944" stop-color="#D5B997"/>
<stop offset="0.8616" stop-color="#C9A885"/>
<stop offset="1" stop-color="#9A7A5F"/>
</linearGradient>
<linearGradient id="paint13_linear_6_29674" x1="32.8462" y1="33.8572" x2="51.4517" y2="33.8572" gradientUnits="userSpaceOnUse">
<stop stop-color="#9A7A5F"/>
<stop offset="0.077" stop-color="#C9A885"/>
<stop offset="0.1472" stop-color="#D4B895"/>
<stop offset="0.2662" stop-color="#E2CDAB"/>
<stop offset="0.3818" stop-color="#EBDAB8"/>
<stop offset="0.4892" stop-color="#EEDEBC"/>
<stop offset="0.5877" stop-color="#EBDAB8"/>
<stop offset="0.6903" stop-color="#E3CEAB"/>
<stop offset="0.7944" stop-color="#D5B997"/>
<stop offset="0.8616" stop-color="#C9A885"/>
<stop offset="1" stop-color="#9A7A5F"/>
</linearGradient>
<linearGradient id="paint14_linear_6_29674" x1="285.573" y1="33.7882" x2="304.907" y2="33.7882" gradientUnits="userSpaceOnUse">
<stop stop-color="#9A7A5F"/>
<stop offset="0.077" stop-color="#C9A885"/>
<stop offset="0.1472" stop-color="#D4B895"/>
<stop offset="0.2662" stop-color="#E2CDAB"/>
<stop offset="0.3818" stop-color="#EBDAB8"/>
<stop offset="0.4892" stop-color="#EEDEBC"/>
<stop offset="0.5877" stop-color="#EBDAB8"/>
<stop offset="0.6903" stop-color="#E3CEAB"/>
<stop offset="0.7944" stop-color="#D5B997"/>
<stop offset="0.8616" stop-color="#C9A885"/>
<stop offset="1" stop-color="#9A7A5F"/>
</linearGradient>
<linearGradient id="paint15_linear_6_29674" x1="282.541" y1="33.8439" x2="286.094" y2="33.8439" gradientUnits="userSpaceOnUse">
<stop stop-color="#9A7A5F"/>
<stop offset="0.077" stop-color="#C9A885"/>
<stop offset="0.1472" stop-color="#D4B895"/>
<stop offset="0.2662" stop-color="#E2CDAB"/>
<stop offset="0.3818" stop-color="#EBDAB8"/>
<stop offset="0.4892" stop-color="#EEDEBC"/>
<stop offset="0.5877" stop-color="#EBDAB8"/>
<stop offset="0.6903" stop-color="#E3CEAB"/>
<stop offset="0.7944" stop-color="#D5B997"/>
<stop offset="0.8616" stop-color="#C9A885"/>
<stop offset="1" stop-color="#9A7A5F"/>
</linearGradient>
<linearGradient id="paint16_linear_6_29674" x1="52.5802" y1="33.899" x2="282.541" y2="33.899" gradientUnits="userSpaceOnUse">
<stop stop-color="#9A7A5F"/>
<stop offset="0.077" stop-color="#C9A885"/>
<stop offset="0.1472" stop-color="#D4B895"/>
<stop offset="0.2662" stop-color="#E2CDAB"/>
<stop offset="0.3818" stop-color="#EBDAB8"/>
<stop offset="0.4892" stop-color="#EEDEBC"/>
<stop offset="0.5877" stop-color="#EBDAB8"/>
<stop offset="0.6903" stop-color="#E3CEAB"/>
<stop offset="0.7944" stop-color="#D5B997"/>
<stop offset="0.8616" stop-color="#C9A885"/>
<stop offset="1" stop-color="#9A7A5F"/>
</linearGradient>
</defs>
</svg>
