<svg width="807" height="116" viewBox="0 0 807 116" fill="none" xmlns="http://www.w3.org/2000/svg">
<path d="M806.64 8.9614C806.64 8.9614 802.913 -11.2776 777.475 9.0784C777.475 9.0784 801.457 29.6414 806.64 8.9614ZM800.792 9.07541C800.794 9.61141 800.361 10.0474 799.825 10.0494C799.289 10.0514 798.853 9.61841 798.851 9.08341C798.849 8.54741 799.282 8.11141 799.817 8.10941C800.354 8.10641 800.79 8.53941 800.792 9.07541ZM783.782 9.11636C783.782 9.11636 785.421 3.02439 797.093 9.06339C797.093 9.06339 786.21 15.3134 783.782 9.11636Z" fill="url(#paint0_linear_30_41113)"/>
<path d="M775.592 11.8565C774.112 11.8625 772.907 10.6674 772.901 9.18642C772.895 7.70642 774.09 6.50144 775.571 6.49544C777.051 6.48944 778.256 7.68443 778.262 9.16543C778.267 10.6454 777.072 11.8505 775.592 11.8565Z" fill="url(#paint1_linear_30_41113)"/>
<path d="M755 11.9384C753.52 11.9444 752.315 10.7495 752.309 9.26846C752.303 7.78846 753.498 6.58342 754.979 6.57742C756.459 6.57142 757.664 7.76646 757.67 9.24746C757.675 10.7275 756.48 11.9324 755 11.9384Z" fill="url(#paint2_linear_30_41113)"/>
<path d="M765.284 16.3194C765.284 16.3194 774.455 9.21742 774.374 9.18042C774.454 9.14242 765.227 2.11444 765.227 2.11444C764.159 4.43644 756.083 9.24442 756.099 9.25342C755.967 9.33042 764.197 14.0054 765.284 16.3194Z" fill="url(#paint3_linear_30_41113)"/>
<path d="M526.112 9.14046C509.546 -4.11554 507.119 9.06441 507.119 9.06441C510.495 22.5314 526.112 9.14046 526.112 9.14046ZM511.563 8.50942C511.912 8.51042 512.194 8.79445 512.192 9.14345C512.191 9.49245 511.907 9.77446 511.558 9.77346C511.209 9.77246 510.927 9.48745 510.928 9.13845C510.929 8.78945 511.213 8.50742 511.563 8.50942ZM513.337 9.13045C520.938 5.19745 522.006 9.16543 522.006 9.16543C520.424 13.2014 513.337 9.13045 513.337 9.13045Z" fill="url(#paint4_linear_30_41113)"/>
<path d="M527.339 10.9494C528.303 10.9534 529.088 10.1754 529.092 9.21144C529.096 8.24744 528.318 7.46245 527.354 7.45845C526.39 7.45445 525.605 8.2324 525.601 9.1974C525.597 10.1614 526.375 10.9454 527.339 10.9494Z" fill="url(#paint5_linear_30_41113)"/>
<path d="M754.988 8.31042H529.091V10.2064H754.988V8.31042Z" fill="url(#paint6_linear_30_41113)"/>
<path d="M403.907 100.566C403.907 100.566 403.723 100.46 403.364 100.254C403.179 100.161 402.974 100.005 402.73 99.8234C402.474 99.6554 402.223 99.4044 401.932 99.1324C401.377 98.5594 400.771 97.7654 400.297 96.7034C399.818 95.6454 399.47 94.3374 399.305 92.8384C398.973 89.8354 399.377 86.0874 400.532 81.9504C401.12 79.8844 401.884 77.7074 402.918 75.5184C403.438 74.4244 404.014 73.3324 404.704 72.2764C405.411 71.1784 406.135 70.0524 406.878 68.8994C409.849 64.3044 413.151 59.3104 417.263 54.4664C419.323 52.0544 421.59 49.6894 424.132 47.5234C425.409 46.4504 426.749 45.4244 428.16 44.4734C429.581 43.5394 431.072 42.6854 432.632 41.9404C434.189 41.1874 435.835 40.5974 437.525 40.1234C438.368 39.8734 439.236 39.7094 440.103 39.5294C440.98 39.3994 441.853 39.2554 442.781 39.1944C446.435 38.8274 450.2 38.8324 453.861 39.5024C455.697 39.8094 457.481 40.3574 459.168 41.0784C460.867 41.7834 462.412 42.7894 463.694 44.0044C464.972 45.2224 465.947 46.7034 466.397 48.3084C466.873 49.9114 466.696 51.6184 466.03 53.1534C465.921 53.4174 465.816 53.6834 465.645 53.9214C465.488 54.1654 465.353 54.4214 465.186 54.6594C464.802 55.1074 464.47 55.5924 464.003 55.9824C463.166 56.8394 462.092 57.4804 461.019 58.0924C458.783 59.2154 456.26 59.8534 453.704 60.1574C451.135 60.4354 448.534 60.3824 445.966 60.1844C443.49 59.9394 441.028 59.3194 438.642 58.5224C433.863 56.9044 429.371 54.6444 425.126 52.2994C420.882 49.9354 416.873 47.4494 413.064 44.9954C405.45 40.0784 398.612 35.3284 392.527 31.2094C386.449 27.0774 381.136 23.5464 376.748 20.7704C372.513 17.7674 367.267 14.1234 360.9 10.3664C357.711 8.49837 354.229 6.62039 350.404 4.89439C346.568 3.20539 342.377 1.63138 337.713 0.829384C335.387 0.432384 332.939 0.240383 330.424 0.441383C327.915 0.639383 325.338 1.25637 322.929 2.40537C322.318 2.67237 321.754 3.03842 321.161 3.35642C320.592 3.71142 320.042 4.10338 319.486 4.48838C318.963 4.92438 318.44 5.32137 317.914 5.80137C317.385 6.30137 316.874 6.84641 316.441 7.47941C315.546 8.71141 314.962 10.2774 314.836 11.8564C314.699 13.4454 315.009 14.9994 315.524 16.4084C316.603 19.2214 318.435 21.5224 320.514 23.4974C322.609 25.4464 325.023 27.1474 327.682 28.3334C328.974 29.0164 330.356 29.4634 331.722 29.9804C332.411 30.2154 333.117 30.3844 333.817 30.5894L334.872 30.8834C335.225 30.9744 335.583 31.0334 335.939 31.1104C336.653 31.2544 337.368 31.3984 338.085 31.5434C338.806 31.6424 339.528 31.7424 340.252 31.8414L341.339 31.9874L342.43 32.0734C343.158 32.1294 343.888 32.1864 344.619 32.2434C353.232 32.6564 361.505 31.5524 369.334 30.1734C371.294 29.8274 373.226 29.4494 375.133 29.0634C375.615 28.9644 376.095 28.8664 376.574 28.7674C377.086 28.6584 377.582 28.5314 378.072 28.3984C379.045 28.1234 379.993 27.8234 380.912 27.4944C384.593 26.1814 388.004 24.6334 391.317 23.1034C397.924 20.0174 404.072 16.9174 409.882 14.1384C415.685 11.3524 421.128 8.85538 426.185 6.80338C431.238 4.74338 435.909 3.13841 440.1 2.08341C444.289 1.03641 448.008 0.571389 451.038 0.722389C454.07 0.859389 456.362 1.63138 457.754 2.42338C458.112 2.60638 458.409 2.79937 458.66 2.97337C458.92 3.13637 459.126 3.28942 459.283 3.42442C459.607 3.68342 459.772 3.81541 459.772 3.81541C459.772 3.81541 459.615 3.67237 459.31 3.39237C459.161 3.24637 458.965 3.07939 458.715 2.89939C458.473 2.70739 458.186 2.49338 457.836 2.28538C456.481 1.39438 454.184 0.456405 451.084 0.138405C447.989 -0.193595 444.158 0.075392 439.842 0.925392C435.525 1.78339 430.711 3.18937 425.517 5.05137C420.319 6.90637 414.735 9.21039 408.812 11.8084C402.887 14.3984 396.63 17.3214 390.018 20.2174C386.712 21.6494 383.308 23.1004 379.809 24.2724C378.935 24.5674 378.057 24.8254 377.18 25.0584C376.742 25.1694 376.305 25.2734 375.871 25.3574L374.467 25.6214C372.57 25.9744 370.657 26.3184 368.725 26.6344C361.012 27.8944 352.956 28.8904 344.814 28.4964C344.126 28.4434 343.44 28.3904 342.756 28.3374L341.73 28.2584L340.718 28.1224C340.044 28.0324 339.371 27.9424 338.7 27.8524C338.04 27.7214 337.381 27.5914 336.723 27.4604C336.395 27.3914 336.063 27.3404 335.74 27.2584L334.781 26.9944C334.145 26.8114 333.497 26.6634 332.875 26.4554C331.651 25.9954 330.396 25.6094 329.256 25.0124C326.892 23.9914 324.8 22.5374 322.952 20.8704C321.13 19.1974 319.586 17.2454 318.758 15.1744C318.362 14.1424 318.149 13.0954 318.217 12.1094C318.283 11.1254 318.592 10.1924 319.169 9.35941C319.44 8.93641 319.792 8.54742 320.167 8.17442C320.562 7.79842 321.032 7.42438 321.456 7.04838C321.92 6.71638 322.376 6.3724 322.848 6.0604C323.342 5.7864 323.806 5.4584 324.317 5.2244C328.339 3.1714 332.982 2.92742 337.293 3.54142C341.635 4.14442 345.723 5.50441 349.507 7.00541C353.287 8.54241 356.785 10.2464 360.012 11.9534C366.46 15.3884 371.863 18.7554 376.241 21.5214C380.465 24.5214 385.582 28.3014 391.471 32.6904C397.37 37.0684 404.024 42.0814 411.541 47.2774C415.302 49.8714 419.287 52.5024 423.565 55.0264C427.851 57.5304 432.423 59.9684 437.514 61.7934C440.061 62.6914 442.753 63.4264 445.61 63.7474C448.379 64.0004 451.218 64.0934 454.109 63.8064C456.992 63.4874 459.935 62.7944 462.713 61.4144C464.072 60.6614 465.434 59.8424 466.591 58.6874C467.206 58.1604 467.705 57.4904 468.227 56.8514C468.467 56.5124 468.675 56.1444 468.897 55.7884C469.131 55.4394 469.301 55.0494 469.466 54.6564C470.475 52.3744 470.713 49.6854 470.003 47.3134C469.329 44.9274 467.924 42.8894 466.25 41.3144C464.567 39.7394 462.633 38.5394 460.621 37.7194C458.614 36.8824 456.551 36.2874 454.491 35.9664C450.369 35.2694 446.299 35.3464 442.415 35.8074C441.448 35.8894 440.459 36.0674 439.481 36.2364C438.513 36.4544 437.549 36.6624 436.615 36.9594C434.743 37.5274 432.934 38.2284 431.244 39.0954C429.55 39.9544 427.952 40.9274 426.447 41.9764C424.954 43.0424 423.554 44.1774 422.234 45.3554C419.609 47.7284 417.326 50.2734 415.283 52.8374C411.21 57.9834 408.066 63.1794 405.281 67.9164C404.59 69.1014 403.914 70.2584 403.256 71.3854C402.568 72.5474 402.01 73.7374 401.523 74.8994C400.553 77.2304 399.879 79.5054 399.381 81.6584C398.41 85.9664 398.203 89.8364 398.724 92.9194C398.983 94.4584 399.424 95.7924 399.985 96.8554C400.542 97.9234 401.218 98.7024 401.82 99.2494C402.136 99.5094 402.406 99.7454 402.676 99.8994C402.935 100.068 403.15 100.21 403.343 100.291C403.716 100.472 403.907 100.566 403.907 100.566Z" fill="url(#paint7_linear_30_41113)"/>
<path d="M403.973 100.566C403.973 100.566 404.164 100.473 404.536 100.291C404.729 100.21 404.944 100.067 405.203 99.8994C405.473 99.7454 405.743 99.5094 406.059 99.2494C406.662 98.7024 407.337 97.9234 407.894 96.8554C408.455 95.7924 408.896 94.4574 409.156 92.9194C409.677 89.8364 409.47 85.9664 408.499 81.6584C408.002 79.5054 407.328 77.2304 406.357 74.8994C405.87 73.7374 405.312 72.5474 404.624 71.3854C403.966 70.2584 403.291 69.1014 402.599 67.9164C399.814 63.1794 396.67 57.9834 392.597 52.8374C390.554 50.2734 388.271 47.7294 385.646 45.3554C384.326 44.1774 382.926 43.0414 381.433 41.9764C379.928 40.9274 378.33 39.9544 376.636 39.0954C374.946 38.2284 373.137 37.5274 371.265 36.9594C370.331 36.6624 369.366 36.4554 368.399 36.2364C367.421 36.0674 366.433 35.8904 365.465 35.8074C361.581 35.3464 357.511 35.2694 353.389 35.9664C351.329 36.2874 349.266 36.8814 347.259 37.7194C345.247 38.5394 343.313 39.7404 341.63 41.3144C339.957 42.8884 338.551 44.9274 337.877 47.3134C337.167 49.6864 337.405 52.3744 338.414 54.6564C338.58 55.0494 338.749 55.4404 338.983 55.7884C339.205 56.1444 339.413 56.5124 339.653 56.8514C340.175 57.4914 340.674 58.1614 341.289 58.6874C342.446 59.8424 343.808 60.6614 345.167 61.4144C347.946 62.7944 350.888 63.4874 353.771 63.8064C356.662 64.0934 359.501 64.0004 362.27 63.7474C365.128 63.4264 367.819 62.6914 370.366 61.7934C375.457 59.9684 380.029 57.5304 384.315 55.0264C388.593 52.5024 392.578 49.8714 396.339 47.2774C403.856 42.0814 410.51 37.0684 416.409 32.6904C422.299 28.3014 427.416 24.5214 431.639 21.5214C436.017 18.7564 441.42 15.3894 447.868 11.9534C451.095 10.2454 454.593 8.54242 458.373 7.00542C462.157 5.50442 466.245 4.14443 470.587 3.54143C474.897 2.92743 479.541 3.17141 483.563 5.22441C484.074 5.45841 484.538 5.78641 485.032 6.06041C485.504 6.37241 485.959 6.71639 486.424 7.04839C486.848 7.42439 487.318 7.79842 487.713 8.17442C488.088 8.54742 488.44 8.93642 488.711 9.35942C489.288 10.1924 489.597 11.1254 489.663 12.1094C489.731 13.0954 489.517 14.1424 489.122 15.1744C488.294 17.2454 486.75 19.1974 484.929 20.8704C483.08 22.5374 480.989 23.9924 478.625 25.0124C477.486 25.6104 476.231 25.9954 475.006 26.4554C474.384 26.6634 473.735 26.8114 473.1 26.9944L472.141 27.2584C471.819 27.3404 471.486 27.3914 471.159 27.4604C470.502 27.5904 469.843 27.7214 469.182 27.8524C468.511 27.9424 467.838 28.0324 467.164 28.1224L466.152 28.2584L465.126 28.3374C464.441 28.3904 463.755 28.4434 463.068 28.4964C454.927 28.8904 446.871 27.8944 439.157 26.6344C437.225 26.3194 435.312 25.9744 433.415 25.6214L432.011 25.3574C431.578 25.2734 431.141 25.1694 430.702 25.0584C429.825 24.8264 428.946 24.5674 428.073 24.2724C424.575 23.0994 421.171 21.6494 417.864 20.2174C411.251 17.3214 404.995 14.3984 399.07 11.8084C393.147 9.2104 387.564 6.90538 382.365 5.05138C377.172 3.18838 372.357 1.7834 368.04 0.925399C363.725 0.0753994 359.894 -0.194588 356.798 0.138412C353.698 0.456412 351.401 1.39438 350.046 2.28538C349.696 2.49338 349.409 2.7074 349.167 2.8994C348.917 3.0804 348.72 3.24638 348.572 3.39238C348.266 3.67238 348.11 3.81541 348.11 3.81541C348.11 3.81541 348.276 3.68342 348.599 3.42442C348.756 3.28942 348.962 3.13637 349.222 2.97337C349.473 2.79937 349.77 2.60639 350.128 2.42339C351.519 1.63139 353.812 0.858397 356.844 0.722396C359.874 0.571396 363.593 1.03642 367.782 2.08342C371.973 3.13842 376.644 4.74339 381.697 6.80339C386.754 8.85539 392.197 11.3534 398 14.1384C403.809 16.9174 409.958 20.0164 416.565 23.1034C419.878 24.6334 423.289 26.1814 426.97 27.4944C427.889 27.8234 428.838 28.1234 429.81 28.3984C430.3 28.5314 430.796 28.6584 431.308 28.7674C431.787 28.8654 432.267 28.9644 432.749 29.0634C434.655 29.4494 436.588 29.8264 438.548 30.1734C446.377 31.5524 454.65 32.6564 463.263 32.2434C463.994 32.1864 464.724 32.1304 465.452 32.0734L466.543 31.9874L467.63 31.8414C468.354 31.7414 469.076 31.6424 469.797 31.5434C470.514 31.3994 471.229 31.2544 471.943 31.1104C472.299 31.0334 472.657 30.9744 473.01 30.8834L474.065 30.5894C474.765 30.3844 475.471 30.2154 476.16 29.9804C477.526 29.4634 478.907 29.0164 480.2 28.3334C482.86 27.1464 485.273 25.4454 487.368 23.4974C489.446 21.5224 491.279 19.2214 492.358 16.4084C492.873 14.9994 493.182 13.4454 493.046 11.8564C492.921 10.2774 492.337 8.71142 491.442 7.47942C491.01 6.84642 490.498 6.30138 489.969 5.80138C489.443 5.32138 488.92 4.92439 488.397 4.48839C487.84 4.10339 487.29 3.71143 486.722 3.35643C486.129 3.03843 485.566 2.67238 484.954 2.40538C482.545 1.25638 479.968 0.640391 477.459 0.441391C474.945 0.240391 472.496 0.432391 470.17 0.829391C465.506 1.63139 461.315 3.20539 457.479 4.89439C453.654 6.62039 450.172 8.49738 446.983 10.3664C440.615 14.1224 435.37 17.7674 431.135 20.7704C426.747 23.5464 421.434 27.0774 415.356 31.2094C409.271 35.3294 402.433 40.0784 394.819 44.9954C391.01 47.4494 387.001 49.9354 382.757 52.2994C378.512 54.6444 374.02 56.9034 369.241 58.5224C366.855 59.3194 364.393 59.9394 361.917 60.1844C359.348 60.3824 356.748 60.4354 354.179 60.1574C351.623 59.8534 349.1 59.2154 346.864 58.0924C345.791 57.4804 344.717 56.8384 343.88 55.9824C343.412 55.5934 343.081 55.1084 342.697 54.6594C342.53 54.4204 342.395 54.1654 342.238 53.9214C342.067 53.6824 341.962 53.4164 341.853 53.1534C341.187 51.6174 341.011 49.9114 341.486 48.3084C341.936 46.7034 342.911 45.2214 344.188 44.0044C345.471 42.7894 347.015 41.7844 348.715 41.0784C350.402 40.3574 352.186 39.8094 354.022 39.5024C357.683 38.8324 361.448 38.8274 365.102 39.1944C366.03 39.2554 366.904 39.3994 367.78 39.5294C368.648 39.7094 369.515 39.8734 370.358 40.1234C372.048 40.5974 373.694 41.1874 375.251 41.9404C376.811 42.6854 378.302 43.5394 379.723 44.4734C381.134 45.4254 382.474 46.4504 383.751 47.5234C386.293 49.6894 388.56 52.0544 390.62 54.4664C394.731 59.3104 398.033 64.3034 401.004 68.8994C401.747 70.0534 402.472 71.1794 403.178 72.2764C403.869 73.3314 404.445 74.4244 404.965 75.5184C405.999 77.7074 406.763 79.8854 407.351 81.9504C408.506 86.0884 408.911 89.8364 408.578 92.8384C408.413 94.3374 408.065 95.6454 407.586 96.7034C407.111 97.7654 406.506 98.5594 405.951 99.1324C405.659 99.4054 405.408 99.6554 405.153 99.8234C404.909 100.006 404.704 100.162 404.519 100.254C404.157 100.46 403.973 100.566 403.973 100.566Z" fill="url(#paint8_linear_30_41113)"/>
<path d="M404.447 99.6254C392.862 113.462 404.024 115.774 404.024 115.774C415.54 113.157 404.447 99.6254 404.447 99.6254ZM403.636 111.985C403.644 111.688 403.891 111.454 404.187 111.462C404.484 111.47 404.718 111.717 404.71 112.014C404.702 112.311 404.455 112.545 404.159 112.537C403.862 112.529 403.628 112.282 403.636 111.985ZM404.198 110.488C400.997 103.95 404.391 103.117 404.391 103.117C407.793 104.538 404.198 110.488 404.198 110.488Z" fill="url(#paint9_linear_30_41113)"/>
<path d="M406.009 98.6164C406.03 97.7964 405.383 97.1145 404.564 97.0935C403.744 97.0725 403.062 97.7194 403.041 98.5384C403.02 99.3584 403.667 100.04 404.486 100.061C405.306 100.082 405.987 99.4354 406.009 98.6164Z" fill="url(#paint10_linear_30_41113)"/>
<path d="M29.165 9.07844C3.72701 -11.2766 0 8.96144 0 8.96144C5.183 29.6414 29.165 9.07844 29.165 9.07844ZM6.82201 8.10841C7.35801 8.11041 7.791 8.54641 7.789 9.08241C7.787 9.61841 7.351 10.0514 6.815 10.0484C6.279 10.0464 5.84601 9.61042 5.84801 9.07442C5.85001 8.53942 6.28601 8.10641 6.82201 8.10841ZM9.54701 9.06245C21.219 3.02345 22.858 9.11543 22.858 9.11543C20.43 15.3134 9.54701 9.06245 9.54701 9.06245Z" fill="url(#paint11_linear_30_41113)"/>
<path d="M31.0479 11.8565C32.5279 11.8625 33.733 10.6674 33.739 9.18642C33.745 7.70642 32.5499 6.50144 31.0689 6.49544C29.5889 6.48944 28.3839 7.68443 28.3779 9.16543C28.3729 10.6454 29.5679 11.8505 31.0479 11.8565Z" fill="url(#paint12_linear_30_41113)"/>
<path d="M51.64 11.9384C53.12 11.9444 54.325 10.7495 54.331 9.26846C54.337 7.78846 53.142 6.58342 51.661 6.57742C50.181 6.57142 48.976 7.76646 48.97 9.24746C48.965 10.7275 50.16 11.9324 51.64 11.9384Z" fill="url(#paint13_linear_30_41113)"/>
<path d="M41.356 16.3194C41.356 16.3194 32.185 9.21742 32.266 9.18042C32.186 9.14242 41.413 2.11444 41.413 2.11444C42.481 4.43644 50.557 9.24442 50.541 9.25342C50.673 9.33042 42.443 14.0054 41.356 16.3194Z" fill="url(#paint14_linear_30_41113)"/>
<path d="M299.52 9.06441C299.52 9.06441 297.093 -4.11554 280.527 9.14046C280.527 9.14046 296.145 22.5314 299.52 9.06441ZM295.712 9.13845C295.713 9.48745 295.432 9.77146 295.083 9.77346C294.734 9.77446 294.45 9.49245 294.448 9.14345C294.446 8.79445 294.728 8.51042 295.077 8.50942C295.426 8.50742 295.711 8.78945 295.712 9.13845ZM284.635 9.16543C284.635 9.16543 285.703 5.19845 293.304 9.13045C293.304 9.13045 286.216 13.2014 284.635 9.16543Z" fill="url(#paint15_linear_30_41113)"/>
<path d="M279.301 10.9494C278.337 10.9534 277.552 10.1754 277.548 9.21144C277.544 8.24744 278.323 7.46245 279.287 7.45845C280.251 7.45445 281.036 8.2324 281.039 9.1974C281.043 10.1614 280.265 10.9454 279.301 10.9494Z" fill="url(#paint16_linear_30_41113)"/>
<path d="M277.548 8.31042H51.651V10.2064H277.548V8.31042Z" fill="url(#paint17_linear_30_41113)"/>
<defs>
<linearGradient id="paint0_linear_30_41113" x1="777.475" y1="9.092" x2="806.64" y2="9.092" gradientUnits="userSpaceOnUse">
<stop stop-color="#9A7A5F"/>
<stop offset="0.077" stop-color="#C9A885"/>
<stop offset="0.1472" stop-color="#D4B895"/>
<stop offset="0.2662" stop-color="#E2CDAB"/>
<stop offset="0.3818" stop-color="#EBDAB8"/>
<stop offset="0.4892" stop-color="#EEDEBC"/>
<stop offset="0.5877" stop-color="#EBDAB8"/>
<stop offset="0.6903" stop-color="#E3CEAB"/>
<stop offset="0.7944" stop-color="#D5B997"/>
<stop offset="0.8616" stop-color="#C9A885"/>
<stop offset="1" stop-color="#9A7A5F"/>
</linearGradient>
<linearGradient id="paint1_linear_30_41113" x1="772.901" y1="9.17596" x2="778.261" y2="9.17596" gradientUnits="userSpaceOnUse">
<stop stop-color="#9A7A5F"/>
<stop offset="0.077" stop-color="#C9A885"/>
<stop offset="0.1472" stop-color="#D4B895"/>
<stop offset="0.2662" stop-color="#E2CDAB"/>
<stop offset="0.3818" stop-color="#EBDAB8"/>
<stop offset="0.4892" stop-color="#EEDEBC"/>
<stop offset="0.5877" stop-color="#EBDAB8"/>
<stop offset="0.6903" stop-color="#E3CEAB"/>
<stop offset="0.7944" stop-color="#D5B997"/>
<stop offset="0.8616" stop-color="#C9A885"/>
<stop offset="1" stop-color="#9A7A5F"/>
</linearGradient>
<linearGradient id="paint2_linear_30_41113" x1="752.309" y1="9.25823" x2="757.669" y2="9.25823" gradientUnits="userSpaceOnUse">
<stop stop-color="#9A7A5F"/>
<stop offset="0.077" stop-color="#C9A885"/>
<stop offset="0.1472" stop-color="#D4B895"/>
<stop offset="0.2662" stop-color="#E2CDAB"/>
<stop offset="0.3818" stop-color="#EBDAB8"/>
<stop offset="0.4892" stop-color="#EEDEBC"/>
<stop offset="0.5877" stop-color="#EBDAB8"/>
<stop offset="0.6903" stop-color="#E3CEAB"/>
<stop offset="0.7944" stop-color="#D5B997"/>
<stop offset="0.8616" stop-color="#C9A885"/>
<stop offset="1" stop-color="#9A7A5F"/>
</linearGradient>
<linearGradient id="paint3_linear_30_41113" x1="756.097" y1="9.21732" x2="774.374" y2="9.21732" gradientUnits="userSpaceOnUse">
<stop stop-color="#9A7A5F"/>
<stop offset="0.077" stop-color="#C9A885"/>
<stop offset="0.1472" stop-color="#D4B895"/>
<stop offset="0.2662" stop-color="#E2CDAB"/>
<stop offset="0.3818" stop-color="#EBDAB8"/>
<stop offset="0.4892" stop-color="#EEDEBC"/>
<stop offset="0.5877" stop-color="#EBDAB8"/>
<stop offset="0.6903" stop-color="#E3CEAB"/>
<stop offset="0.7944" stop-color="#D5B997"/>
<stop offset="0.8616" stop-color="#C9A885"/>
<stop offset="1" stop-color="#9A7A5F"/>
</linearGradient>
<linearGradient id="paint4_linear_30_41113" x1="507.12" y1="9.14954" x2="526.112" y2="9.14954" gradientUnits="userSpaceOnUse">
<stop stop-color="#9A7A5F"/>
<stop offset="0.077" stop-color="#C9A885"/>
<stop offset="0.1472" stop-color="#D4B895"/>
<stop offset="0.2662" stop-color="#E2CDAB"/>
<stop offset="0.3818" stop-color="#EBDAB8"/>
<stop offset="0.4892" stop-color="#EEDEBC"/>
<stop offset="0.5877" stop-color="#EBDAB8"/>
<stop offset="0.6903" stop-color="#E3CEAB"/>
<stop offset="0.7944" stop-color="#D5B997"/>
<stop offset="0.8616" stop-color="#C9A885"/>
<stop offset="1" stop-color="#9A7A5F"/>
</linearGradient>
<linearGradient id="paint5_linear_30_41113" x1="525.601" y1="9.20413" x2="529.092" y2="9.20413" gradientUnits="userSpaceOnUse">
<stop stop-color="#9A7A5F"/>
<stop offset="0.077" stop-color="#C9A885"/>
<stop offset="0.1472" stop-color="#D4B895"/>
<stop offset="0.2662" stop-color="#E2CDAB"/>
<stop offset="0.3818" stop-color="#EBDAB8"/>
<stop offset="0.4892" stop-color="#EEDEBC"/>
<stop offset="0.5877" stop-color="#EBDAB8"/>
<stop offset="0.6903" stop-color="#E3CEAB"/>
<stop offset="0.7944" stop-color="#D5B997"/>
<stop offset="0.8616" stop-color="#C9A885"/>
<stop offset="1" stop-color="#9A7A5F"/>
</linearGradient>
<linearGradient id="paint6_linear_30_41113" x1="529.092" y1="9.25833" x2="754.989" y2="9.25833" gradientUnits="userSpaceOnUse">
<stop stop-color="#9A7A5F"/>
<stop offset="0.077" stop-color="#C9A885"/>
<stop offset="0.1472" stop-color="#D4B895"/>
<stop offset="0.2662" stop-color="#E2CDAB"/>
<stop offset="0.3818" stop-color="#EBDAB8"/>
<stop offset="0.4892" stop-color="#EEDEBC"/>
<stop offset="0.5877" stop-color="#EBDAB8"/>
<stop offset="0.6903" stop-color="#E3CEAB"/>
<stop offset="0.7944" stop-color="#D5B997"/>
<stop offset="0.8616" stop-color="#C9A885"/>
<stop offset="1" stop-color="#9A7A5F"/>
</linearGradient>
<linearGradient id="paint7_linear_30_41113" x1="314.803" y1="50.2835" x2="470.412" y2="50.2835" gradientUnits="userSpaceOnUse">
<stop stop-color="#9A7A5F"/>
<stop offset="0.077" stop-color="#C9A885"/>
<stop offset="0.1472" stop-color="#D4B895"/>
<stop offset="0.2662" stop-color="#E2CDAB"/>
<stop offset="0.3818" stop-color="#EBDAB8"/>
<stop offset="0.4892" stop-color="#EEDEBC"/>
<stop offset="0.5877" stop-color="#EBDAB8"/>
<stop offset="0.6903" stop-color="#E3CEAB"/>
<stop offset="0.7944" stop-color="#D5B997"/>
<stop offset="0.8616" stop-color="#C9A885"/>
<stop offset="1" stop-color="#9A7A5F"/>
</linearGradient>
<linearGradient id="paint8_linear_30_41113" x1="337.469" y1="50.2835" x2="493.077" y2="50.2835" gradientUnits="userSpaceOnUse">
<stop stop-color="#9A7A5F"/>
<stop offset="0.077" stop-color="#C9A885"/>
<stop offset="0.1472" stop-color="#D4B895"/>
<stop offset="0.2662" stop-color="#E2CDAB"/>
<stop offset="0.3818" stop-color="#EBDAB8"/>
<stop offset="0.4892" stop-color="#EEDEBC"/>
<stop offset="0.5877" stop-color="#EBDAB8"/>
<stop offset="0.6903" stop-color="#E3CEAB"/>
<stop offset="0.7944" stop-color="#D5B997"/>
<stop offset="0.8616" stop-color="#C9A885"/>
<stop offset="1" stop-color="#9A7A5F"/>
</linearGradient>
<linearGradient id="paint9_linear_30_41113" x1="399.187" y1="107.7" x2="409.255" y2="107.7" gradientUnits="userSpaceOnUse">
<stop stop-color="#9A7A5F"/>
<stop offset="0.077" stop-color="#C9A885"/>
<stop offset="0.1472" stop-color="#D4B895"/>
<stop offset="0.2662" stop-color="#E2CDAB"/>
<stop offset="0.3818" stop-color="#EBDAB8"/>
<stop offset="0.4892" stop-color="#EEDEBC"/>
<stop offset="0.5877" stop-color="#EBDAB8"/>
<stop offset="0.6903" stop-color="#E3CEAB"/>
<stop offset="0.7944" stop-color="#D5B997"/>
<stop offset="0.8616" stop-color="#C9A885"/>
<stop offset="1" stop-color="#9A7A5F"/>
</linearGradient>
<linearGradient id="paint10_linear_30_41113" x1="403.04" y1="98.5772" x2="406.009" y2="98.5772" gradientUnits="userSpaceOnUse">
<stop stop-color="#9A7A5F"/>
<stop offset="0.077" stop-color="#C9A885"/>
<stop offset="0.1472" stop-color="#D4B895"/>
<stop offset="0.2662" stop-color="#E2CDAB"/>
<stop offset="0.3818" stop-color="#EBDAB8"/>
<stop offset="0.4892" stop-color="#EEDEBC"/>
<stop offset="0.5877" stop-color="#EBDAB8"/>
<stop offset="0.6903" stop-color="#E3CEAB"/>
<stop offset="0.7944" stop-color="#D5B997"/>
<stop offset="0.8616" stop-color="#C9A885"/>
<stop offset="1" stop-color="#9A7A5F"/>
</linearGradient>
<linearGradient id="paint11_linear_30_41113" x1="0" y1="9.09204" x2="29.1649" y2="9.09204" gradientUnits="userSpaceOnUse">
<stop stop-color="#9A7A5F"/>
<stop offset="0.077" stop-color="#C9A885"/>
<stop offset="0.1472" stop-color="#D4B895"/>
<stop offset="0.2662" stop-color="#E2CDAB"/>
<stop offset="0.3818" stop-color="#EBDAB8"/>
<stop offset="0.4892" stop-color="#EEDEBC"/>
<stop offset="0.5877" stop-color="#EBDAB8"/>
<stop offset="0.6903" stop-color="#E3CEAB"/>
<stop offset="0.7944" stop-color="#D5B997"/>
<stop offset="0.8616" stop-color="#C9A885"/>
<stop offset="1" stop-color="#9A7A5F"/>
</linearGradient>
<linearGradient id="paint12_linear_30_41113" x1="28.3786" y1="9.17596" x2="33.7393" y2="9.17596" gradientUnits="userSpaceOnUse">
<stop stop-color="#9A7A5F"/>
<stop offset="0.077" stop-color="#C9A885"/>
<stop offset="0.1472" stop-color="#D4B895"/>
<stop offset="0.2662" stop-color="#E2CDAB"/>
<stop offset="0.3818" stop-color="#EBDAB8"/>
<stop offset="0.4892" stop-color="#EEDEBC"/>
<stop offset="0.5877" stop-color="#EBDAB8"/>
<stop offset="0.6903" stop-color="#E3CEAB"/>
<stop offset="0.7944" stop-color="#D5B997"/>
<stop offset="0.8616" stop-color="#C9A885"/>
<stop offset="1" stop-color="#9A7A5F"/>
</linearGradient>
<linearGradient id="paint13_linear_30_41113" x1="48.9709" y1="9.25823" x2="54.3315" y2="9.25823" gradientUnits="userSpaceOnUse">
<stop stop-color="#9A7A5F"/>
<stop offset="0.077" stop-color="#C9A885"/>
<stop offset="0.1472" stop-color="#D4B895"/>
<stop offset="0.2662" stop-color="#E2CDAB"/>
<stop offset="0.3818" stop-color="#EBDAB8"/>
<stop offset="0.4892" stop-color="#EEDEBC"/>
<stop offset="0.5877" stop-color="#EBDAB8"/>
<stop offset="0.6903" stop-color="#E3CEAB"/>
<stop offset="0.7944" stop-color="#D5B997"/>
<stop offset="0.8616" stop-color="#C9A885"/>
<stop offset="1" stop-color="#9A7A5F"/>
</linearGradient>
<linearGradient id="paint14_linear_30_41113" x1="32.2658" y1="9.21732" x2="50.5426" y2="9.21732" gradientUnits="userSpaceOnUse">
<stop stop-color="#9A7A5F"/>
<stop offset="0.077" stop-color="#C9A885"/>
<stop offset="0.1472" stop-color="#D4B895"/>
<stop offset="0.2662" stop-color="#E2CDAB"/>
<stop offset="0.3818" stop-color="#EBDAB8"/>
<stop offset="0.4892" stop-color="#EEDEBC"/>
<stop offset="0.5877" stop-color="#EBDAB8"/>
<stop offset="0.6903" stop-color="#E3CEAB"/>
<stop offset="0.7944" stop-color="#D5B997"/>
<stop offset="0.8616" stop-color="#C9A885"/>
<stop offset="1" stop-color="#9A7A5F"/>
</linearGradient>
<linearGradient id="paint15_linear_30_41113" x1="280.527" y1="9.14954" x2="299.52" y2="9.14954" gradientUnits="userSpaceOnUse">
<stop stop-color="#9A7A5F"/>
<stop offset="0.077" stop-color="#C9A885"/>
<stop offset="0.1472" stop-color="#D4B895"/>
<stop offset="0.2662" stop-color="#E2CDAB"/>
<stop offset="0.3818" stop-color="#EBDAB8"/>
<stop offset="0.4892" stop-color="#EEDEBC"/>
<stop offset="0.5877" stop-color="#EBDAB8"/>
<stop offset="0.6903" stop-color="#E3CEAB"/>
<stop offset="0.7944" stop-color="#D5B997"/>
<stop offset="0.8616" stop-color="#C9A885"/>
<stop offset="1" stop-color="#9A7A5F"/>
</linearGradient>
<linearGradient id="paint16_linear_30_41113" x1="277.548" y1="9.20413" x2="281.039" y2="9.20413" gradientUnits="userSpaceOnUse">
<stop stop-color="#9A7A5F"/>
<stop offset="0.077" stop-color="#C9A885"/>
<stop offset="0.1472" stop-color="#D4B895"/>
<stop offset="0.2662" stop-color="#E2CDAB"/>
<stop offset="0.3818" stop-color="#EBDAB8"/>
<stop offset="0.4892" stop-color="#EEDEBC"/>
<stop offset="0.5877" stop-color="#EBDAB8"/>
<stop offset="0.6903" stop-color="#E3CEAB"/>
<stop offset="0.7944" stop-color="#D5B997"/>
<stop offset="0.8616" stop-color="#C9A885"/>
<stop offset="1" stop-color="#9A7A5F"/>
</linearGradient>
<linearGradient id="paint17_linear_30_41113" x1="51.6512" y1="9.25833" x2="277.549" y2="9.25833" gradientUnits="userSpaceOnUse">
<stop stop-color="#9A7A5F"/>
<stop offset="0.077" stop-color="#C9A885"/>
<stop offset="0.1472" stop-color="#D4B895"/>
<stop offset="0.2662" stop-color="#E2CDAB"/>
<stop offset="0.3818" stop-color="#EBDAB8"/>
<stop offset="0.4892" stop-color="#EEDEBC"/>
<stop offset="0.5877" stop-color="#EBDAB8"/>
<stop offset="0.6903" stop-color="#E3CEAB"/>
<stop offset="0.7944" stop-color="#D5B997"/>
<stop offset="0.8616" stop-color="#C9A885"/>
<stop offset="1" stop-color="#9A7A5F"/>
</linearGradient>
</defs>
</svg>
