<svg width="798" height="54" viewBox="0 0 798 54" fill="none" xmlns="http://www.w3.org/2000/svg">
<path d="M594.669 14.3957C594.669 14.3957 594.403 14.1327 593.896 13.6317C593.383 13.1357 592.653 12.3627 591.582 11.5167C589.506 9.75466 586.226 7.43366 581.711 5.42566C581.146 5.17866 580.571 4.91366 579.974 4.66666C579.369 4.43966 578.751 4.20765 578.12 3.97165C577.803 3.85465 577.483 3.73765 577.16 3.61865C576.832 3.51565 576.502 3.41167 576.168 3.30667C575.499 3.09967 574.819 2.87767 574.121 2.67667C571.32 1.90767 568.279 1.26265 565.048 0.795653C561.815 0.361653 558.4 0.0906542 554.857 0.0156542C551.315 -0.0513458 547.652 0.0986486 543.921 0.428649C533.772 1.35165 524.483 3.58067 516.793 6.10367C512.945 7.36767 509.491 8.71166 506.499 10.0207C503.503 11.3257 500.985 12.6217 498.962 13.6777C494.648 15.2087 488.422 17.5957 480.953 20.4277C477.211 21.8157 473.165 23.3397 468.851 24.7877C464.537 26.2357 459.968 27.6507 455.199 28.8747C448.177 30.6447 441.379 31.7827 435.126 32.2577C429.009 32.8467 423.444 31.7717 418.798 30.6717C416.474 30.1137 414.379 29.5197 412.534 28.9917C410.69 28.4647 409.096 28.0016 407.785 27.6486C406.476 27.2926 405.449 27.0436 404.751 26.8936C404.052 26.7476 403.685 26.6717 403.685 26.6717C403.685 26.6717 404.034 26.8076 404.699 27.0666C405.362 27.3256 406.331 27.7286 407.57 28.2686C408.811 28.8106 410.328 29.4727 412.09 30.2427C413.859 31.0047 415.891 31.8547 418.195 32.6807C420.499 33.5057 423.076 34.3197 425.939 34.9247C426.656 35.0727 427.384 35.2307 428.139 35.3317C428.89 35.4497 429.655 35.5707 430.442 35.6297C430.835 35.6667 431.231 35.7037 431.63 35.7417C432.03 35.7707 432.436 35.7737 432.843 35.7897C433.251 35.8017 433.662 35.8137 434.076 35.8257C434.477 35.8157 434.881 35.8047 435.288 35.7937C441.797 35.7027 448.957 34.7767 456.231 32.9407C461.169 31.6737 465.836 30.0986 470.171 28.4286C474.509 26.7576 478.498 24.9537 482.148 23.2577C489.422 19.8137 495.305 16.7107 499.368 14.6117C501.525 13.8357 504.144 12.8817 507.211 11.9307C510.276 10.9737 513.779 9.99165 517.635 9.05865C525.346 7.19465 534.478 5.49966 544.297 4.60766C547.908 4.28866 551.439 4.07965 554.849 4.03165C558.258 3.99165 561.543 4.09165 564.664 4.31665C567.78 4.57265 570.725 4.96866 573.462 5.46966C574.144 5.60366 574.808 5.75866 575.465 5.89566C575.793 5.96566 576.119 6.03567 576.441 6.10467C576.759 6.18767 577.074 6.27066 577.386 6.35266C578.011 6.51766 578.623 6.67965 579.223 6.83765C579.816 7.01365 580.39 7.20865 580.955 7.38565C585.473 8.83265 588.926 10.6336 591.199 12.0536C592.367 12.7276 593.194 13.3677 593.779 13.7747C594.363 14.1797 594.669 14.3957 594.669 14.3957Z" fill="url(#paint0_linear_6_29625)"/>
<path d="M593.527 11.7956C593.527 11.7956 593.189 11.6416 592.545 11.3486C591.897 11.0636 590.951 10.6126 589.704 10.0956C587.193 9.12164 583.492 7.77162 578.7 6.83362C573.92 5.88762 568.056 5.41465 561.582 5.85465C558.356 6.12465 554.973 6.54663 551.527 7.25663C548.084 7.96863 544.558 8.87162 541.022 9.99362C536.211 11.5116 531.678 13.2786 527.453 15.0736C523.227 16.8706 519.304 18.6956 515.71 20.4046C508.53 23.8416 502.633 26.7656 498.534 28.7016C496.376 29.3916 493.719 30.2076 490.655 31.1136C487.574 32.0056 484.121 32.9126 480.244 33.9076C476.396 34.9156 472.249 36.0476 467.863 37.1296C463.478 38.2096 458.85 39.2386 454.049 39.9526C446.995 41.0136 440.206 41.1796 434.237 40.0506C433.865 39.9786 433.495 39.9066 433.127 39.8356C432.763 39.7486 432.402 39.6626 432.043 39.5776C431.319 39.4226 430.629 39.1926 429.934 39.0036C429.258 38.7846 428.562 38.5576 427.936 38.3276C427.322 38.1036 426.727 37.8126 426.142 37.5156C423.81 36.2796 421.742 34.6806 419.812 33.2636C417.885 31.8316 416.081 30.5416 414.38 29.5796C412.686 28.6066 411.096 27.9766 409.758 27.6556C408.42 27.3236 407.349 27.2856 406.638 27.3146C406.282 27.3116 406.012 27.3596 405.831 27.3706C405.651 27.3886 405.558 27.3976 405.558 27.3976C405.558 27.3976 405.651 27.4046 405.832 27.4176C406.013 27.4366 406.282 27.4346 406.629 27.4946C407.324 27.5786 408.344 27.7796 409.558 28.2786C410.775 28.7676 412.171 29.5606 413.654 30.6876C415.145 31.8056 416.719 33.2446 418.476 34.8766C420.245 36.4936 422.173 38.3456 424.697 39.9886C425.336 40.3886 426.001 40.7866 426.731 41.1246C427.447 41.4566 428.14 41.7436 428.872 42.0426C429.608 42.3056 430.348 42.6086 431.121 42.8326C431.506 42.9516 431.894 43.0716 432.284 43.1926C432.679 43.2956 433.076 43.3996 433.476 43.5046C434.275 43.7246 435.097 43.8706 435.925 44.0496C436.758 44.1846 437.6 44.3506 438.457 44.4436C440.168 44.6786 441.925 44.7886 443.71 44.8376C447.282 44.9216 450.96 44.6446 454.664 44.0996C459.7 43.3496 464.452 42.1626 468.872 40.8656C473.293 39.5656 477.389 38.1546 481.142 36.8416C483.015 36.1866 484.807 35.5586 486.525 34.9176C486.953 34.7596 487.374 34.6036 487.791 34.4496C488.203 34.2856 488.609 34.1246 489.009 33.9656C489.807 33.6446 490.582 33.3326 491.332 33.0316C494.31 31.7786 496.855 30.6266 498.907 29.6446C503.244 28.2816 509.496 26.0686 516.917 23.2246C524.351 20.4156 532.948 16.9516 542.287 13.9896C545.722 12.8996 549.102 11.9696 552.387 11.1746C555.674 10.3826 558.878 9.82462 561.946 9.37262C568.089 8.57162 573.706 8.50363 578.412 8.90863C583.122 9.30463 586.898 10.1246 589.506 10.7186C592.093 11.4116 593.527 11.7956 593.527 11.7956Z" fill="url(#paint1_linear_6_29625)"/>
<path d="M594.669 14.3957C594.669 14.3957 594.363 14.1797 593.781 13.7697C593.491 13.5607 593.126 13.3117 592.681 13.0377C592.24 12.7557 591.73 12.4317 591.131 12.1057C589.95 11.4247 588.446 10.6757 586.611 9.98971C584.779 9.30671 582.606 8.68773 580.136 8.34573C577.668 8.00473 574.911 7.92272 571.992 8.19872C569.07 8.46172 565.999 9.07073 562.854 9.91473C559.713 10.7687 556.493 11.8497 553.219 13.0407C551.592 13.6427 549.935 14.2557 548.255 14.8767C546.586 15.5467 544.893 16.2257 543.179 16.9127C540.853 17.8577 538.571 18.8017 536.342 19.7377C534.119 20.6857 531.919 21.5677 529.849 22.5677C525.681 24.5107 521.76 26.3897 518.161 28.1467C516.358 29.0197 514.647 29.8807 513.03 30.7147C511.414 31.5497 509.883 32.3407 508.447 33.0817C505.581 34.5747 503.106 35.8897 501.096 36.9707C496.815 38.5537 490.593 40.8757 483.175 43.8237C479.497 45.2397 475.451 46.5967 471.11 47.6817C466.771 48.7607 462.125 49.5327 457.324 49.7207C453.797 49.8517 450.345 49.7077 447.084 49.1237L446.47 49.0357C446.267 48.9997 446.068 48.9487 445.868 48.9067C445.467 48.8187 445.069 48.7317 444.672 48.6457C444.274 48.5597 443.879 48.4747 443.485 48.3907C443.095 48.2907 442.715 48.1667 442.332 48.0577C441.572 47.8217 440.8 47.6377 440.067 47.3707C439.335 47.0967 438.612 46.8257 437.897 46.5587L437.362 46.3577L436.847 46.1187C436.504 45.9607 436.163 45.8027 435.825 45.6467C435.163 45.3317 434.431 45.0347 433.883 44.7147C432.713 44.0427 431.595 43.1907 430.535 42.3197C428.416 40.5567 426.488 38.7297 424.64 37.1427C422.799 35.5457 421.023 34.1757 419.339 33.1487C418.492 32.6407 417.668 32.2227 416.887 31.8907C416.094 31.5797 415.354 31.3387 414.665 31.2137C413.293 30.9337 412.198 31.0337 411.497 31.1817C411.141 31.2287 410.884 31.3377 410.707 31.3797C410.532 31.4307 410.442 31.4567 410.442 31.4567C410.442 31.4567 410.535 31.4457 410.717 31.4257C410.899 31.4147 411.163 31.3507 411.517 31.3607C412.216 31.3277 413.263 31.3997 414.494 31.8457C415.113 32.0547 415.767 32.3767 416.457 32.7627C417.14 33.1717 417.852 33.6607 418.582 34.2377C420.038 35.4057 421.563 36.9027 423.187 38.6537C424.822 40.3967 426.542 42.3917 428.614 44.4457C429.66 45.4667 430.797 46.5057 432.181 47.4467C432.907 47.9397 433.582 48.2617 434.296 48.6647C434.651 48.8577 435.008 49.0527 435.367 49.2477L435.909 49.5417L436.474 49.7967C437.234 50.1327 438.003 50.4727 438.781 50.8167C439.564 51.1507 440.391 51.3977 441.21 51.6937C441.623 51.8327 442.034 51.9867 442.455 52.1147C442.881 52.2257 443.309 52.3377 443.738 52.4507C444.169 52.5617 444.601 52.6737 445.036 52.7867C445.254 52.8407 445.471 52.9027 445.691 52.9497L446.357 53.0707C449.906 53.8247 453.675 54.0537 457.488 53.9107C462.681 53.7067 467.619 52.7497 472.125 51.4177C476.635 50.0787 480.736 48.3967 484.392 46.6427C491.58 43.0967 497.485 40.0467 501.512 37.8977C503.65 37.0997 506.27 36.1067 509.282 34.9387C512.287 33.7557 515.691 32.4157 519.41 30.9517C523.127 29.4907 527.145 27.8767 531.374 26.1257C533.478 25.2207 535.685 24.4237 537.912 23.5337C540.143 22.6567 542.417 21.7487 544.722 20.8117C546.415 20.1147 548.088 19.4267 549.737 18.7487C551.399 18.0857 553.036 17.4327 554.646 16.7907C557.849 15.5037 560.921 14.3047 563.877 13.3017C566.832 12.3097 569.672 11.5217 572.371 11.0397C575.068 10.5467 577.619 10.3697 579.953 10.4347C584.627 10.5857 588.367 11.7247 590.848 12.6987C591.477 12.9307 592.022 13.1707 592.495 13.3797C592.973 13.5797 593.37 13.7677 593.687 13.9267C594.332 14.2337 594.669 14.3957 594.669 14.3957Z" fill="url(#paint2_linear_6_29625)"/>
<path d="M586.282 10.9487C586.282 10.9487 586.73 11.0916 587.498 11.3076C587.881 11.4176 588.333 11.6166 588.845 11.7946C589.338 12.0406 589.905 12.2627 590.44 12.6307C591.53 13.3177 592.591 14.3027 593.167 15.6387C593.341 15.9527 593.431 16.3257 593.56 16.6747C593.601 16.8637 593.645 17.0516 593.693 17.2386C593.749 17.4226 593.752 17.6317 593.789 17.8267C593.889 18.6247 593.934 19.4777 593.833 20.3747C593.617 22.8157 592.754 25.1376 591.704 26.9756C591.19 27.9136 590.575 28.6897 590.006 29.3837C589.415 30.0497 588.84 30.6107 588.327 31.0257C587.037 31.3297 585.17 31.5037 583.109 31.1487C582.019 30.9297 580.835 30.7347 579.743 30.3477C579.198 30.1597 578.667 29.9487 578.192 29.6977C577.942 29.5827 577.755 29.4227 577.523 29.3007C577.43 29.2237 577.341 29.1477 577.245 29.0757L577.101 28.9687L576.988 28.8477C576.52 28.3877 576.254 27.9187 576.108 27.3287C575.973 26.7397 576.014 26.0317 576.184 25.3457C576.528 23.9587 577.36 22.7117 578.247 22.0367C578.693 21.6877 579.159 21.4927 579.607 21.4387C579.665 21.4287 579.722 21.4197 579.777 21.4097C579.832 21.4117 579.886 21.4136 579.94 21.4156C580.048 21.4206 580.158 21.4196 580.264 21.4286C580.461 21.4846 580.67 21.5067 580.839 21.5807C581.014 21.6577 581.17 21.7267 581.305 21.7867C581.433 21.8697 581.541 21.9397 581.628 21.9967C581.81 22.1147 581.907 22.1777 581.907 22.1777C581.907 22.1777 581.858 22.0747 581.764 21.8787C581.715 21.7797 581.654 21.6547 581.573 21.5087C581.476 21.3777 581.359 21.2237 581.218 21.0477C581.076 20.8737 580.869 20.7257 580.649 20.5377C580.529 20.4617 580.395 20.3927 580.253 20.3157C580.181 20.2787 580.107 20.2407 580.032 20.2027C579.952 20.1777 579.871 20.1517 579.788 20.1257C579.122 19.8967 578.256 19.8727 577.406 20.1177C575.697 20.6027 573.977 21.9297 572.901 24.0327C572.378 25.0857 572.009 26.3777 572.129 27.8287C572.209 28.5467 572.374 29.2997 572.722 29.9907L572.985 30.5087L573.313 30.9837C573.529 31.3127 573.793 31.5817 574.063 31.8497L574.339 32.1197L574.633 32.3466C574.83 32.4946 575.027 32.6436 575.227 32.7816C575.634 33.0026 576.041 33.2586 576.449 33.4156C577.266 33.7636 578.067 33.9706 578.836 34.1096C579.218 34.1606 579.594 34.2107 579.965 34.2607C580.329 34.2747 580.687 34.2877 581.04 34.3017C581.393 34.3207 581.731 34.3007 582.063 34.2807C582.393 34.2587 582.717 34.2377 583.034 34.2167C583.363 34.1747 583.689 34.1206 584.001 34.0706C584.156 34.0436 584.31 34.0177 584.462 33.9917C584.612 33.9507 584.76 33.9097 584.905 33.8697C585.192 33.7857 585.471 33.7037 585.742 33.6237C586.006 33.5227 586.258 33.4117 586.5 33.3087C587.465 32.8937 588.212 32.3817 588.772 31.9367C589.473 31.7737 590.316 31.4717 591.247 30.9937C592.152 30.4897 593.176 29.8287 594.1 28.8877C595.965 27.0507 597.685 24.2237 598.004 20.7507C598.139 19.4857 598.013 18.1977 597.709 16.9937C597.619 16.6927 597.561 16.3937 597.438 16.1057C597.32 15.8197 597.203 15.5377 597.087 15.2577C596.795 14.7187 596.523 14.1897 596.144 13.7367C595.809 13.2597 595.385 12.8697 594.991 12.4957C594.789 12.3127 594.56 12.1657 594.35 12.0087C594.136 11.8567 593.932 11.7007 593.703 11.5937C593.258 11.3617 592.84 11.1307 592.403 11.0047C592.19 10.9337 591.982 10.8647 591.778 10.7967C591.574 10.7357 591.367 10.7097 591.171 10.6687C590.387 10.4897 589.672 10.5056 589.068 10.4886C588.457 10.5436 587.946 10.5707 587.534 10.6547C586.714 10.8287 586.282 10.9487 586.282 10.9487Z" fill="url(#paint3_linear_6_29625)"/>
<path d="M421.215 17.1107C421.215 17.1107 421.03 17.0337 420.678 16.8887C420.321 16.7557 419.793 16.5507 419.063 16.3967C418.698 16.3217 418.282 16.2517 417.802 16.2487C417.326 16.2447 416.775 16.2907 416.182 16.5507C415.582 16.8027 414.989 17.3607 414.707 18.1097C414.416 18.8477 414.403 19.6427 414.514 20.3987C414.76 21.9147 415.472 23.3707 416.568 24.7117C417.123 25.3777 417.784 26.0157 418.609 26.5567C419.426 27.0957 420.433 27.5487 421.628 27.6767C422.222 27.7387 422.858 27.7097 423.481 27.5647C424.104 27.4187 424.702 27.1607 425.235 26.8307C425.77 26.5027 426.243 26.1037 426.644 25.6757C427.056 25.2487 427.4 24.7907 427.705 24.3217C428.008 23.8517 428.276 23.3697 428.502 22.8817C428.735 22.3897 428.936 21.9117 429.108 21.3687C429.195 21.1027 429.285 20.8377 429.367 20.5677C429.428 20.2857 429.489 20.0027 429.55 19.7187L429.636 19.2907L429.68 18.8447C429.704 18.5457 429.743 18.2497 429.747 17.9457C429.79 16.2887 429.359 14.5887 428.56 13.1887C427.767 11.7787 426.668 10.6697 425.513 9.83667C423.177 8.16567 420.653 7.47866 418.375 7.20966C416.083 6.94866 413.985 7.16366 412.217 7.61066C410.444 8.04866 409.014 8.77568 407.973 9.49268C407.382 9.71968 406.726 10.0177 406.06 10.4567C405.894 10.5687 405.724 10.6837 405.551 10.8007C405.382 10.9247 405.224 11.0707 405.054 11.2107C404.701 11.4947 404.411 11.8047 404.087 12.1247C403.464 12.7857 402.829 13.5457 402.269 14.4667C401.711 15.3837 401.23 16.4757 400.989 17.7257C400.739 18.9707 400.794 20.3667 401.139 21.6987C401.489 23.0327 402.108 24.2927 402.873 25.4267C404.411 27.7067 406.449 29.5697 408.62 31.2477C411.836 33.7027 415.084 35.5587 418.006 37.2277C420.934 38.8847 423.561 40.3237 425.679 41.6607C427.804 42.9857 429.413 44.2176 430.425 45.1996C430.939 45.6826 431.302 46.0997 431.547 46.3857C431.784 46.6807 431.908 46.8357 431.908 46.8357C431.908 46.8357 431.837 46.6487 431.701 46.2927C431.551 45.9417 431.318 45.4227 430.939 44.7937C430.201 43.5227 428.869 41.8227 426.974 40.0127C425.088 38.1907 422.66 36.2567 419.927 34.2577C417.203 32.2517 414.143 30.1947 411.175 27.9237C409.168 26.3797 407.331 24.8117 406.009 23.1587C404.666 21.5067 403.971 19.8007 404.034 18.1037C404.083 16.3977 404.847 14.7447 405.687 13.3807C405.909 13.0457 406.117 12.6967 406.337 12.4267C406.447 12.2847 406.547 12.1367 406.66 12.0037C406.78 11.8747 406.897 11.7487 407.011 11.6247C407.476 11.1287 407.975 10.7287 408.445 10.3897C409.535 9.99765 410.917 9.67367 412.526 9.62067C414.129 9.55867 415.949 9.71766 417.819 10.2267C418.75 10.4847 419.694 10.8167 420.606 11.2527C421.511 11.6977 422.382 12.2407 423.139 12.8917C423.895 13.5417 424.527 14.2997 424.945 15.1337C425.365 15.9677 425.577 16.8767 425.557 17.8657C425.556 18.0467 425.525 18.2327 425.515 18.4157L425.496 18.6907L425.44 18.9697L425.336 19.5277L425.169 20.0867C425.073 20.4527 424.925 20.8497 424.775 21.2067C424.628 21.5727 424.462 21.9097 424.288 22.2237C423.942 22.8507 423.54 23.3497 423.138 23.6587C422.734 23.9737 422.338 24.1297 421.843 24.1477C420.846 24.2017 419.583 23.5587 418.638 22.7317C417.676 21.9007 416.922 20.8737 416.552 19.9117C416.372 19.4327 416.291 18.9737 416.338 18.6077C416.375 18.2507 416.551 17.9287 416.84 17.7037C417.132 17.4667 417.524 17.3117 417.906 17.2167C418.289 17.1157 418.669 17.0757 419.014 17.0507C419.707 17.0047 420.263 17.0447 420.639 17.0657C421.017 17.0947 421.215 17.1107 421.215 17.1107Z" fill="url(#paint4_linear_6_29625)"/>
<path d="M777.736 15.8267L779.408 23.1987C779.429 23.2927 779.428 23.3917 779.405 23.4847L777.664 30.4437C777.532 30.9717 778.098 31.3997 778.57 31.1287L783.751 28.1597C785.532 27.1387 787.449 26.3737 789.444 25.8857L797.141 24.0057C797.749 23.8577 797.775 23.0027 797.178 22.8167L788.214 20.0277C787.066 19.6707 785.956 19.1967 784.904 18.6147L778.639 15.1497C778.17 14.8917 777.618 15.3067 777.736 15.8267Z" fill="url(#paint5_linear_6_29625)"/>
<path d="M619.152 21.6836C617.402 20.0406 613.812 17.9106 611.684 17.9106C608.794 17.9106 606.452 20.2526 606.452 23.1426C606.452 26.0326 608.794 28.3746 611.684 28.3746C613.926 28.3746 617.789 26.3966 619.414 24.6016H766.325V23.1426V21.6836H619.152Z" fill="url(#paint6_linear_6_29625)"/>
<path d="M770.072 19.3936C768.002 19.3936 766.324 21.0716 766.324 23.1416C766.324 25.2116 768.002 26.8896 770.072 26.8896C772.142 26.8896 773.82 25.2116 773.82 23.1416C773.82 21.0716 772.142 19.3936 770.072 19.3936Z" fill="url(#paint7_linear_6_29625)"/>
<path d="M202.943 14.3957C202.943 14.3957 203.21 14.1327 203.717 13.6317C204.23 13.1357 204.96 12.3627 206.031 11.5167C208.107 9.75466 211.387 7.43366 215.902 5.42566C216.467 5.17866 217.042 4.91366 217.64 4.66666C218.245 4.43966 218.863 4.20765 219.493 3.97165C219.81 3.85465 220.13 3.73765 220.453 3.61865C220.781 3.51565 221.111 3.41167 221.445 3.30667C222.114 3.09967 222.794 2.87767 223.492 2.67667C226.293 1.90767 229.334 1.26265 232.565 0.795653C235.798 0.361653 239.213 0.0906542 242.756 0.0156542C246.298 -0.0513458 249.961 0.0986486 253.692 0.428649C263.842 1.35165 273.13 3.58067 280.82 6.10367C284.668 7.36767 288.123 8.71166 291.114 10.0207C294.11 11.3257 296.628 12.6217 298.651 13.6777C302.965 15.2087 309.191 17.5957 316.66 20.4277C320.402 21.8157 324.448 23.3397 328.762 24.7877C333.076 26.2357 337.645 27.6507 342.414 28.8747C349.435 30.6447 356.234 31.7827 362.487 32.2577C368.604 32.8467 374.169 31.7717 378.815 30.6717C381.139 30.1137 383.234 29.5197 385.078 28.9917C386.922 28.4647 388.516 28.0016 389.827 27.6486C391.136 27.2926 392.163 27.0436 392.861 26.8936C393.56 26.7476 393.927 26.6717 393.927 26.6717C393.927 26.6717 393.578 26.8076 392.913 27.0666C392.25 27.3256 391.281 27.7286 390.042 28.2686C388.801 28.8106 387.284 29.4727 385.522 30.2427C383.752 31.0047 381.721 31.8547 379.417 32.6807C377.113 33.5057 374.536 34.3197 371.673 34.9247C370.956 35.0727 370.228 35.2307 369.473 35.3317C368.722 35.4497 367.958 35.5707 367.17 35.6297C366.777 35.6667 366.381 35.7037 365.982 35.7417C365.582 35.7707 365.176 35.7737 364.768 35.7897C364.36 35.8017 363.949 35.8137 363.535 35.8257C363.134 35.8157 362.73 35.8047 362.323 35.7937C355.814 35.7027 348.654 34.7767 341.38 32.9407C336.442 31.6737 331.775 30.0986 327.44 28.4286C323.102 26.7576 319.113 24.9537 315.463 23.2577C308.189 19.8137 302.306 16.7107 298.243 14.6117C296.086 13.8357 293.466 12.8817 290.4 11.9307C287.334 10.9737 283.832 9.99165 279.976 9.05865C272.265 7.19465 263.133 5.49966 253.314 4.60766C249.703 4.28866 246.172 4.07965 242.762 4.03165C239.353 3.99165 236.068 4.09165 232.947 4.31665C229.831 4.57265 226.886 4.96866 224.149 5.46966C223.468 5.60366 222.803 5.75866 222.146 5.89566C221.818 5.96566 221.492 6.03567 221.17 6.10467C220.852 6.18767 220.537 6.27066 220.225 6.35266C219.6 6.51766 218.988 6.67965 218.388 6.83765C217.795 7.01365 217.222 7.20865 216.656 7.38565C212.138 8.83265 208.686 10.6336 206.412 12.0536C205.244 12.7276 204.417 13.3677 203.832 13.7747C203.25 14.1797 202.943 14.3957 202.943 14.3957Z" fill="url(#paint8_linear_6_29625)"/>
<path d="M204.085 11.7956C204.085 11.7956 204.423 11.6416 205.067 11.3486C205.715 11.0636 206.661 10.6126 207.908 10.0956C210.419 9.12164 214.12 7.77162 218.912 6.83362C223.692 5.88762 229.556 5.41465 236.03 5.85465C239.256 6.12465 242.639 6.54663 246.085 7.25663C249.527 7.96863 253.054 8.87162 256.59 9.99362C261.401 11.5116 265.934 13.2786 270.159 15.0736C274.385 16.8706 278.308 18.6956 281.902 20.4046C289.082 23.8416 294.979 26.7656 299.078 28.7016C301.236 29.3916 303.893 30.2076 306.957 31.1136C310.038 32.0056 313.491 32.9126 317.368 33.9076C321.216 34.9156 325.363 36.0476 329.749 37.1296C334.134 38.2096 338.762 39.2386 343.563 39.9526C350.616 41.0136 357.406 41.1796 363.375 40.0506C363.747 39.9786 364.117 39.9066 364.485 39.8356C364.849 39.7486 365.21 39.6626 365.569 39.5776C366.293 39.4226 366.983 39.1926 367.678 39.0036C368.354 38.7846 369.05 38.5576 369.676 38.3276C370.29 38.1036 370.885 37.8126 371.47 37.5156C373.802 36.2796 375.87 34.6806 377.8 33.2636C379.727 31.8316 381.531 30.5416 383.232 29.5796C384.926 28.6066 386.516 27.9766 387.854 27.6556C389.192 27.3236 390.263 27.2856 390.974 27.3146C391.33 27.3116 391.6 27.3596 391.781 27.3706C391.961 27.3886 392.054 27.3976 392.054 27.3976C392.054 27.3976 391.961 27.4046 391.78 27.4176C391.599 27.4366 391.33 27.4346 390.983 27.4946C390.288 27.5786 389.268 27.7796 388.054 28.2786C386.837 28.7676 385.441 29.5606 383.958 30.6876C382.467 31.8056 380.893 33.2446 379.136 34.8766C377.367 36.4936 375.439 38.3456 372.915 39.9886C372.276 40.3886 371.611 40.7866 370.881 41.1246C370.165 41.4566 369.472 41.7436 368.74 42.0426C368.004 42.3056 367.264 42.6086 366.491 42.8326C366.106 42.9516 365.718 43.0716 365.328 43.1926C364.933 43.2956 364.536 43.3996 364.136 43.5046C363.337 43.7246 362.515 43.8706 361.687 44.0496C360.854 44.1846 360.012 44.3506 359.155 44.4436C357.444 44.6786 355.687 44.7886 353.902 44.8376C350.331 44.9216 346.651 44.6446 342.948 44.0996C337.912 43.3496 333.16 42.1626 328.74 40.8656C324.319 39.5656 320.223 38.1546 316.47 36.8416C314.597 36.1866 312.805 35.5586 311.087 34.9176C310.659 34.7596 310.237 34.6036 309.821 34.4496C309.409 34.2856 309.003 34.1246 308.603 33.9656C307.805 33.6446 307.03 33.3326 306.28 33.0316C303.302 31.7786 300.757 30.6266 298.705 29.6446C294.368 28.2816 288.116 26.0686 280.695 23.2246C273.261 20.4156 264.664 16.9516 255.326 13.9896C251.891 12.8996 248.511 11.9696 245.226 11.1746C241.939 10.3826 238.735 9.82462 235.667 9.37262C229.524 8.57162 223.907 8.50363 219.201 8.90863C214.491 9.30463 210.715 10.1246 208.107 10.7186C205.519 11.4116 204.085 11.7956 204.085 11.7956Z" fill="url(#paint9_linear_6_29625)"/>
<path d="M202.943 14.3957C202.943 14.3957 203.249 14.1797 203.831 13.7697C204.121 13.5607 204.485 13.3117 204.931 13.0377C205.372 12.7557 205.882 12.4317 206.48 12.1057C207.661 11.4247 209.165 10.6757 211 9.98971C212.832 9.30671 215.005 8.68773 217.475 8.34573C219.943 8.00473 222.7 7.92272 225.619 8.19872C228.541 8.46172 231.612 9.07073 234.757 9.91473C237.898 10.7687 241.119 11.8497 244.391 13.0407C246.019 13.6427 247.675 14.2557 249.355 14.8767C251.024 15.5467 252.717 16.2257 254.431 16.9127C256.757 17.8577 259.039 18.8017 261.268 19.7377C263.491 20.6857 265.691 21.5677 267.761 22.5677C271.929 24.5107 275.85 26.3897 279.449 28.1467C281.252 29.0197 282.963 29.8807 284.58 30.7147C286.197 31.5497 287.727 32.3407 289.163 33.0817C292.029 34.5747 294.504 35.8897 296.514 36.9707C300.796 38.5537 307.017 40.8757 314.435 43.8237C318.113 45.2397 322.159 46.5967 326.5 47.6817C330.839 48.7607 335.485 49.5327 340.286 49.7207C343.813 49.8517 347.265 49.7077 350.526 49.1237L351.14 49.0357C351.343 48.9997 351.542 48.9487 351.743 48.9067C352.144 48.8187 352.542 48.7317 352.939 48.6457C353.337 48.5597 353.733 48.4747 354.126 48.3907C354.516 48.2907 354.896 48.1667 355.279 48.0577C356.039 47.8217 356.811 47.6377 357.544 47.3707C358.276 47.0967 358.999 46.8257 359.714 46.5587L360.25 46.3577L360.765 46.1187C361.108 45.9607 361.449 45.8027 361.787 45.6467C362.449 45.3317 363.18 45.0347 363.729 44.7147C364.899 44.0427 366.017 43.1907 367.077 42.3197C369.196 40.5567 371.124 38.7297 372.973 37.1427C374.814 35.5457 376.59 34.1757 378.274 33.1487C379.121 32.6407 379.945 32.2227 380.726 31.8907C381.519 31.5797 382.259 31.3387 382.948 31.2137C384.32 30.9337 385.415 31.0337 386.116 31.1817C386.472 31.2287 386.729 31.3377 386.906 31.3797C387.081 31.4307 387.171 31.4567 387.171 31.4567C387.171 31.4567 387.078 31.4457 386.896 31.4257C386.714 31.4147 386.45 31.3507 386.096 31.3607C385.397 31.3277 384.35 31.3997 383.119 31.8457C382.5 32.0547 381.846 32.3767 381.156 32.7627C380.473 33.1717 379.761 33.6607 379.031 34.2377C377.575 35.4057 376.05 36.9027 374.426 38.6537C372.791 40.3967 371.07 42.3917 368.999 44.4457C367.953 45.4667 366.816 46.5057 365.432 47.4467C364.706 47.9397 364.031 48.2617 363.317 48.6647C362.962 48.8577 362.605 49.0527 362.246 49.2477L361.704 49.5417L361.139 49.7967C360.379 50.1327 359.61 50.4727 358.832 50.8167C358.049 51.1507 357.222 51.3977 356.403 51.6937C355.99 51.8327 355.579 51.9867 355.158 52.1147C354.732 52.2257 354.304 52.3377 353.875 52.4507C353.444 52.5617 353.011 52.6737 352.577 52.7867C352.359 52.8407 352.142 52.9027 351.922 52.9497L351.256 53.0707C347.707 53.8247 343.938 54.0537 340.125 53.9107C334.932 53.7067 329.994 52.7497 325.488 51.4177C320.978 50.0787 316.877 48.3967 313.221 46.6427C306.033 43.0967 300.128 40.0467 296.101 37.8977C293.963 37.0997 291.343 36.1067 288.331 34.9387C285.326 33.7557 281.922 32.4157 278.203 30.9517C274.486 29.4907 270.469 27.8767 266.239 26.1257C264.135 25.2207 261.928 24.4237 259.701 23.5337C257.47 22.6567 255.196 21.7487 252.891 20.8117C251.198 20.1147 249.525 19.4267 247.876 18.7487C246.214 18.0857 244.577 17.4327 242.967 16.7907C239.764 15.5037 236.692 14.3047 233.736 13.3017C230.781 12.3097 227.941 11.5217 225.242 11.0397C222.545 10.5467 219.994 10.3697 217.66 10.4347C212.986 10.5857 209.246 11.7247 206.765 12.6987C206.136 12.9307 205.591 13.1707 205.118 13.3797C204.64 13.5797 204.243 13.7677 203.926 13.9267C203.28 14.2337 202.943 14.3957 202.943 14.3957Z" fill="url(#paint10_linear_6_29625)"/>
<path d="M211.33 10.9487C211.33 10.9487 210.882 11.0916 210.114 11.3076C209.731 11.4176 209.279 11.6166 208.767 11.7946C208.274 12.0406 207.707 12.2627 207.172 12.6307C206.082 13.3177 205.021 14.3027 204.444 15.6387C204.271 15.9527 204.18 16.3257 204.051 16.6747C204.01 16.8637 203.966 17.0516 203.918 17.2386C203.862 17.4226 203.859 17.6317 203.822 17.8267C203.722 18.6247 203.677 19.4777 203.778 20.3747C203.993 22.8157 204.857 25.1376 205.907 26.9756C206.421 27.9136 207.036 28.6897 207.605 29.3837C208.196 30.0497 208.771 30.6107 209.284 31.0257C210.574 31.3297 212.441 31.5037 214.501 31.1487C215.591 30.9297 216.776 30.7347 217.867 30.3477C218.412 30.1597 218.943 29.9487 219.418 29.6977C219.668 29.5827 219.855 29.4227 220.087 29.3007C220.18 29.2237 220.269 29.1477 220.365 29.0757L220.509 28.9687L220.622 28.8477C221.089 28.3877 221.355 27.9187 221.501 27.3287C221.636 26.7397 221.595 26.0317 221.425 25.3457C221.081 23.9587 220.249 22.7117 219.362 22.0367C218.916 21.6877 218.45 21.4927 218.002 21.4387C217.944 21.4287 217.888 21.4197 217.832 21.4097C217.777 21.4117 217.723 21.4136 217.67 21.4156C217.562 21.4206 217.452 21.4196 217.346 21.4286C217.15 21.4846 216.94 21.5067 216.771 21.5807C216.596 21.6577 216.44 21.7267 216.305 21.7867C216.177 21.8697 216.069 21.9397 215.982 21.9967C215.8 22.1147 215.703 22.1777 215.703 22.1777C215.703 22.1777 215.752 22.0747 215.846 21.8787C215.895 21.7797 215.956 21.6547 216.037 21.5087C216.134 21.3777 216.251 21.2237 216.392 21.0477C216.534 20.8737 216.741 20.7257 216.961 20.5377C217.081 20.4617 217.215 20.3927 217.357 20.3157C217.429 20.2787 217.503 20.2407 217.578 20.2027C217.658 20.1777 217.739 20.1517 217.822 20.1257C218.488 19.8967 219.355 19.8727 220.204 20.1177C221.913 20.6027 223.633 21.9297 224.709 24.0327C225.232 25.0857 225.601 26.3777 225.481 27.8287C225.401 28.5467 225.235 29.2997 224.888 29.9907L224.625 30.5087L224.296 30.9837C224.081 31.3127 223.816 31.5817 223.546 31.8497L223.27 32.1197L222.976 32.3466C222.779 32.4946 222.581 32.6436 222.382 32.7816C221.975 33.0026 221.568 33.2586 221.16 33.4156C220.343 33.7636 219.542 33.9706 218.773 34.1096C218.391 34.1606 218.015 34.2107 217.643 34.2607C217.279 34.2747 216.921 34.2877 216.568 34.3017C216.215 34.3207 215.877 34.3007 215.545 34.2807C215.215 34.2587 214.891 34.2377 214.574 34.2167C214.245 34.1747 213.919 34.1206 213.607 34.0706C213.452 34.0436 213.298 34.0177 213.146 33.9917C212.996 33.9507 212.848 33.9097 212.703 33.8697C212.417 33.7857 212.137 33.7037 211.866 33.6237C211.602 33.5227 211.35 33.4117 211.108 33.3087C210.143 32.8937 209.396 32.3817 208.836 31.9367C208.135 31.7737 207.292 31.4717 206.361 30.9937C205.456 30.4897 204.432 29.8287 203.508 28.8877C201.643 27.0507 199.923 24.2237 199.604 20.7507C199.469 19.4857 199.595 18.1977 199.899 16.9937C199.989 16.6927 200.047 16.3937 200.17 16.1057C200.288 15.8197 200.405 15.5377 200.521 15.2577C200.813 14.7187 201.085 14.1897 201.464 13.7367C201.799 13.2597 202.223 12.8697 202.617 12.4957C202.819 12.3127 203.048 12.1657 203.258 12.0087C203.473 11.8567 203.676 11.7007 203.905 11.5937C204.351 11.3617 204.769 11.1307 205.205 11.0047C205.417 10.9337 205.626 10.8647 205.83 10.7967C206.034 10.7357 206.241 10.7097 206.437 10.6687C207.221 10.4897 207.936 10.5056 208.54 10.4886C209.151 10.5436 209.662 10.5707 210.074 10.6547C210.898 10.8287 211.33 10.9487 211.33 10.9487Z" fill="url(#paint11_linear_6_29625)"/>
<path d="M376.397 17.1107C376.397 17.1107 376.582 17.0337 376.934 16.8887C377.291 16.7557 377.819 16.5507 378.549 16.3967C378.914 16.3217 379.33 16.2517 379.81 16.2487C380.286 16.2447 380.837 16.2907 381.43 16.5507C382.03 16.8027 382.623 17.3607 382.905 18.1097C383.196 18.8477 383.209 19.6427 383.099 20.3987C382.853 21.9147 382.141 23.3707 381.045 24.7117C380.49 25.3777 379.829 26.0157 379.004 26.5567C378.187 27.0957 377.18 27.5487 375.985 27.6767C375.391 27.7387 374.755 27.7097 374.132 27.5647C373.509 27.4187 372.911 27.1607 372.378 26.8307C371.843 26.5027 371.37 26.1037 370.969 25.6757C370.557 25.2487 370.213 24.7907 369.908 24.3217C369.605 23.8517 369.337 23.3697 369.111 22.8817C368.878 22.3897 368.676 21.9117 368.505 21.3687C368.418 21.1027 368.328 20.8377 368.246 20.5677C368.185 20.2857 368.124 20.0027 368.063 19.7187L367.977 19.2907L367.933 18.8447C367.909 18.5457 367.87 18.2497 367.866 17.9457C367.823 16.2887 368.254 14.5887 369.053 13.1887C369.846 11.7787 370.945 10.6697 372.1 9.83667C374.436 8.16567 376.96 7.47866 379.238 7.20966C381.53 6.94866 383.628 7.16366 385.396 7.61066C387.169 8.04866 388.599 8.77568 389.64 9.49268C390.231 9.71968 390.887 10.0177 391.553 10.4567C391.719 10.5687 391.889 10.6837 392.062 10.8007C392.231 10.9247 392.389 11.0707 392.559 11.2107C392.912 11.4947 393.202 11.8047 393.526 12.1247C394.149 12.7857 394.784 13.5457 395.344 14.4667C395.902 15.3837 396.383 16.4757 396.624 17.7257C396.874 18.9707 396.818 20.3667 396.474 21.6987C396.124 23.0327 395.505 24.2927 394.74 25.4267C393.202 27.7067 391.164 29.5697 388.993 31.2477C385.777 33.7027 382.529 35.5587 379.607 37.2277C376.679 38.8847 374.052 40.3237 371.934 41.6607C369.81 42.9857 368.2 44.2176 367.188 45.1996C366.674 45.6826 366.311 46.0997 366.067 46.3857C365.83 46.6807 365.706 46.8357 365.706 46.8357C365.706 46.8357 365.777 46.6487 365.913 46.2927C366.063 45.9417 366.296 45.4227 366.675 44.7937C367.413 43.5227 368.745 41.8227 370.64 40.0127C372.526 38.1907 374.954 36.2567 377.687 34.2577C380.411 32.2517 383.471 30.1947 386.439 27.9237C388.446 26.3797 390.283 24.8117 391.605 23.1587C392.948 21.5067 393.644 19.8007 393.58 18.1037C393.531 16.3977 392.767 14.7447 391.927 13.3807C391.705 13.0457 391.497 12.6967 391.277 12.4267C391.167 12.2847 391.067 12.1367 390.954 12.0037C390.834 11.8747 390.717 11.7487 390.603 11.6247C390.138 11.1287 389.639 10.7287 389.169 10.3897C388.079 9.99765 386.697 9.67367 385.088 9.62067C383.485 9.55867 381.665 9.71766 379.795 10.2267C378.864 10.4847 377.92 10.8167 377.008 11.2527C376.103 11.6977 375.232 12.2407 374.475 12.8917C373.719 13.5417 373.087 14.2997 372.669 15.1337C372.249 15.9677 372.037 16.8767 372.057 17.8657C372.059 18.0467 372.089 18.2327 372.1 18.4157L372.119 18.6907L372.175 18.9697L372.279 19.5277L372.446 20.0867C372.542 20.4527 372.69 20.8497 372.84 21.2067C372.987 21.5727 373.153 21.9097 373.327 22.2237C373.673 22.8507 374.075 23.3497 374.477 23.6587C374.881 23.9737 375.277 24.1297 375.772 24.1477C376.769 24.2017 378.032 23.5587 378.977 22.7317C379.939 21.9007 380.693 20.8737 381.063 19.9117C381.243 19.4327 381.324 18.9737 381.276 18.6077C381.239 18.2507 381.063 17.9287 380.774 17.7037C380.482 17.4667 380.09 17.3117 379.708 17.2167C379.325 17.1157 378.945 17.0757 378.6 17.0507C377.907 17.0047 377.351 17.0447 376.975 17.0657C376.595 17.0947 376.397 17.1107 376.397 17.1107Z" fill="url(#paint12_linear_6_29625)"/>
<path d="M19.8757 15.8267L18.2037 23.1987C18.1827 23.2927 18.1837 23.3917 18.2067 23.4847L19.9477 30.4437C20.0797 30.9717 19.5137 31.3997 19.0417 31.1287L13.8607 28.1597C12.0787 27.1387 10.1627 26.3737 8.16768 25.8857L0.470677 24.0057C-0.137323 23.8577 -0.16331 23.0027 0.43369 22.8167L9.39768 20.0277C10.5457 19.6707 11.6557 19.1967 12.7077 18.6147L18.9727 15.1497C19.4417 14.8917 19.9937 15.3067 19.8757 15.8267Z" fill="url(#paint13_linear_6_29625)"/>
<path d="M178.46 21.6836C180.21 20.0406 183.801 17.9106 185.928 17.9106C188.817 17.9106 191.16 20.2526 191.16 23.1426C191.16 26.0326 188.818 28.3746 185.928 28.3746C183.686 28.3746 179.823 26.3966 178.198 24.6016H31.2877V23.1426V21.6836H178.46Z" fill="url(#paint14_linear_6_29625)"/>
<path d="M27.5397 19.3936C29.6097 19.3936 31.2877 21.0716 31.2877 23.1416C31.2877 25.2116 29.6097 26.8896 27.5397 26.8896C25.4697 26.8896 23.7917 25.2116 23.7917 23.1416C23.7917 21.0716 25.4697 19.3936 27.5397 19.3936Z" fill="url(#paint15_linear_6_29625)"/>
<defs>
<linearGradient id="paint0_linear_6_29625" x1="403.686" y1="17.9101" x2="594.669" y2="17.9101" gradientUnits="userSpaceOnUse">
<stop stop-color="#9A7A5F"/>
<stop offset="0.077" stop-color="#C9A885"/>
<stop offset="0.1472" stop-color="#D4B895"/>
<stop offset="0.2662" stop-color="#E2CDAB"/>
<stop offset="0.3818" stop-color="#EBDAB8"/>
<stop offset="0.4892" stop-color="#EEDEBC"/>
<stop offset="0.5877" stop-color="#EBDAB8"/>
<stop offset="0.6903" stop-color="#E3CEAB"/>
<stop offset="0.7944" stop-color="#D5B997"/>
<stop offset="0.8616" stop-color="#C9A885"/>
<stop offset="1" stop-color="#9A7A5F"/>
</linearGradient>
<linearGradient id="paint1_linear_6_29625" x1="405.557" y1="25.2704" x2="593.526" y2="25.2704" gradientUnits="userSpaceOnUse">
<stop stop-color="#9A7A5F"/>
<stop offset="0.077" stop-color="#C9A885"/>
<stop offset="0.1472" stop-color="#D4B895"/>
<stop offset="0.2662" stop-color="#E2CDAB"/>
<stop offset="0.3818" stop-color="#EBDAB8"/>
<stop offset="0.4892" stop-color="#EEDEBC"/>
<stop offset="0.5877" stop-color="#EBDAB8"/>
<stop offset="0.6903" stop-color="#E3CEAB"/>
<stop offset="0.7944" stop-color="#D5B997"/>
<stop offset="0.8616" stop-color="#C9A885"/>
<stop offset="1" stop-color="#9A7A5F"/>
</linearGradient>
<linearGradient id="paint2_linear_6_29625" x1="410.443" y1="30.9913" x2="594.669" y2="30.9913" gradientUnits="userSpaceOnUse">
<stop stop-color="#9A7A5F"/>
<stop offset="0.077" stop-color="#C9A885"/>
<stop offset="0.1472" stop-color="#D4B895"/>
<stop offset="0.2662" stop-color="#E2CDAB"/>
<stop offset="0.3818" stop-color="#EBDAB8"/>
<stop offset="0.4892" stop-color="#EEDEBC"/>
<stop offset="0.5877" stop-color="#EBDAB8"/>
<stop offset="0.6903" stop-color="#E3CEAB"/>
<stop offset="0.7944" stop-color="#D5B997"/>
<stop offset="0.8616" stop-color="#C9A885"/>
<stop offset="1" stop-color="#9A7A5F"/>
</linearGradient>
<linearGradient id="paint3_linear_6_29625" x1="572.109" y1="22.3977" x2="598.062" y2="22.3977" gradientUnits="userSpaceOnUse">
<stop stop-color="#9A7A5F"/>
<stop offset="0.077" stop-color="#C9A885"/>
<stop offset="0.1472" stop-color="#D4B895"/>
<stop offset="0.2662" stop-color="#E2CDAB"/>
<stop offset="0.3818" stop-color="#EBDAB8"/>
<stop offset="0.4892" stop-color="#EEDEBC"/>
<stop offset="0.5877" stop-color="#EBDAB8"/>
<stop offset="0.6903" stop-color="#E3CEAB"/>
<stop offset="0.7944" stop-color="#D5B997"/>
<stop offset="0.8616" stop-color="#C9A885"/>
<stop offset="1" stop-color="#9A7A5F"/>
</linearGradient>
<linearGradient id="paint4_linear_6_29625" x1="400.834" y1="26.9643" x2="431.908" y2="26.9643" gradientUnits="userSpaceOnUse">
<stop stop-color="#9A7A5F"/>
<stop offset="0.077" stop-color="#C9A885"/>
<stop offset="0.1472" stop-color="#D4B895"/>
<stop offset="0.2662" stop-color="#E2CDAB"/>
<stop offset="0.3818" stop-color="#EBDAB8"/>
<stop offset="0.4892" stop-color="#EEDEBC"/>
<stop offset="0.5877" stop-color="#EBDAB8"/>
<stop offset="0.6903" stop-color="#E3CEAB"/>
<stop offset="0.7944" stop-color="#D5B997"/>
<stop offset="0.8616" stop-color="#C9A885"/>
<stop offset="1" stop-color="#9A7A5F"/>
</linearGradient>
<linearGradient id="paint5_linear_6_29625" x1="777.644" y1="23.1421" x2="797.61" y2="23.1421" gradientUnits="userSpaceOnUse">
<stop stop-color="#9A7A5F"/>
<stop offset="0.077" stop-color="#C9A885"/>
<stop offset="0.1472" stop-color="#D4B895"/>
<stop offset="0.2662" stop-color="#E2CDAB"/>
<stop offset="0.3818" stop-color="#EBDAB8"/>
<stop offset="0.4892" stop-color="#EEDEBC"/>
<stop offset="0.5877" stop-color="#EBDAB8"/>
<stop offset="0.6903" stop-color="#E3CEAB"/>
<stop offset="0.7944" stop-color="#D5B997"/>
<stop offset="0.8616" stop-color="#C9A885"/>
<stop offset="1" stop-color="#9A7A5F"/>
</linearGradient>
<linearGradient id="paint6_linear_6_29625" x1="606.451" y1="23.142" x2="766.323" y2="23.142" gradientUnits="userSpaceOnUse">
<stop stop-color="#9A7A5F"/>
<stop offset="0.077" stop-color="#C9A885"/>
<stop offset="0.1472" stop-color="#D4B895"/>
<stop offset="0.2662" stop-color="#E2CDAB"/>
<stop offset="0.3818" stop-color="#EBDAB8"/>
<stop offset="0.4892" stop-color="#EEDEBC"/>
<stop offset="0.5877" stop-color="#EBDAB8"/>
<stop offset="0.6903" stop-color="#E3CEAB"/>
<stop offset="0.7944" stop-color="#D5B997"/>
<stop offset="0.8616" stop-color="#C9A885"/>
<stop offset="1" stop-color="#9A7A5F"/>
</linearGradient>
<linearGradient id="paint7_linear_6_29625" x1="766.323" y1="23.1419" x2="773.82" y2="23.1419" gradientUnits="userSpaceOnUse">
<stop stop-color="#9A7A5F"/>
<stop offset="0.077" stop-color="#C9A885"/>
<stop offset="0.1472" stop-color="#D4B895"/>
<stop offset="0.2662" stop-color="#E2CDAB"/>
<stop offset="0.3818" stop-color="#EBDAB8"/>
<stop offset="0.4892" stop-color="#EEDEBC"/>
<stop offset="0.5877" stop-color="#EBDAB8"/>
<stop offset="0.6903" stop-color="#E3CEAB"/>
<stop offset="0.7944" stop-color="#D5B997"/>
<stop offset="0.8616" stop-color="#C9A885"/>
<stop offset="1" stop-color="#9A7A5F"/>
</linearGradient>
<linearGradient id="paint8_linear_6_29625" x1="202.942" y1="17.9101" x2="393.925" y2="17.9101" gradientUnits="userSpaceOnUse">
<stop stop-color="#9A7A5F"/>
<stop offset="0.077" stop-color="#C9A885"/>
<stop offset="0.1472" stop-color="#D4B895"/>
<stop offset="0.2662" stop-color="#E2CDAB"/>
<stop offset="0.3818" stop-color="#EBDAB8"/>
<stop offset="0.4892" stop-color="#EEDEBC"/>
<stop offset="0.5877" stop-color="#EBDAB8"/>
<stop offset="0.6903" stop-color="#E3CEAB"/>
<stop offset="0.7944" stop-color="#D5B997"/>
<stop offset="0.8616" stop-color="#C9A885"/>
<stop offset="1" stop-color="#9A7A5F"/>
</linearGradient>
<linearGradient id="paint9_linear_6_29625" x1="204.085" y1="25.2704" x2="392.054" y2="25.2704" gradientUnits="userSpaceOnUse">
<stop stop-color="#9A7A5F"/>
<stop offset="0.077" stop-color="#C9A885"/>
<stop offset="0.1472" stop-color="#D4B895"/>
<stop offset="0.2662" stop-color="#E2CDAB"/>
<stop offset="0.3818" stop-color="#EBDAB8"/>
<stop offset="0.4892" stop-color="#EEDEBC"/>
<stop offset="0.5877" stop-color="#EBDAB8"/>
<stop offset="0.6903" stop-color="#E3CEAB"/>
<stop offset="0.7944" stop-color="#D5B997"/>
<stop offset="0.8616" stop-color="#C9A885"/>
<stop offset="1" stop-color="#9A7A5F"/>
</linearGradient>
<linearGradient id="paint10_linear_6_29625" x1="202.942" y1="30.9913" x2="387.168" y2="30.9913" gradientUnits="userSpaceOnUse">
<stop stop-color="#9A7A5F"/>
<stop offset="0.077" stop-color="#C9A885"/>
<stop offset="0.1472" stop-color="#D4B895"/>
<stop offset="0.2662" stop-color="#E2CDAB"/>
<stop offset="0.3818" stop-color="#EBDAB8"/>
<stop offset="0.4892" stop-color="#EEDEBC"/>
<stop offset="0.5877" stop-color="#EBDAB8"/>
<stop offset="0.6903" stop-color="#E3CEAB"/>
<stop offset="0.7944" stop-color="#D5B997"/>
<stop offset="0.8616" stop-color="#C9A885"/>
<stop offset="1" stop-color="#9A7A5F"/>
</linearGradient>
<linearGradient id="paint11_linear_6_29625" x1="199.549" y1="22.3977" x2="225.503" y2="22.3977" gradientUnits="userSpaceOnUse">
<stop stop-color="#9A7A5F"/>
<stop offset="0.077" stop-color="#C9A885"/>
<stop offset="0.1472" stop-color="#D4B895"/>
<stop offset="0.2662" stop-color="#E2CDAB"/>
<stop offset="0.3818" stop-color="#EBDAB8"/>
<stop offset="0.4892" stop-color="#EEDEBC"/>
<stop offset="0.5877" stop-color="#EBDAB8"/>
<stop offset="0.6903" stop-color="#E3CEAB"/>
<stop offset="0.7944" stop-color="#D5B997"/>
<stop offset="0.8616" stop-color="#C9A885"/>
<stop offset="1" stop-color="#9A7A5F"/>
</linearGradient>
<linearGradient id="paint12_linear_6_29625" x1="365.704" y1="26.9643" x2="396.777" y2="26.9643" gradientUnits="userSpaceOnUse">
<stop stop-color="#9A7A5F"/>
<stop offset="0.077" stop-color="#C9A885"/>
<stop offset="0.1472" stop-color="#D4B895"/>
<stop offset="0.2662" stop-color="#E2CDAB"/>
<stop offset="0.3818" stop-color="#EBDAB8"/>
<stop offset="0.4892" stop-color="#EEDEBC"/>
<stop offset="0.5877" stop-color="#EBDAB8"/>
<stop offset="0.6903" stop-color="#E3CEAB"/>
<stop offset="0.7944" stop-color="#D5B997"/>
<stop offset="0.8616" stop-color="#C9A885"/>
<stop offset="1" stop-color="#9A7A5F"/>
</linearGradient>
<linearGradient id="paint13_linear_6_29625" x1="0.0012837" y1="23.1421" x2="19.9672" y2="23.1421" gradientUnits="userSpaceOnUse">
<stop stop-color="#9A7A5F"/>
<stop offset="0.077" stop-color="#C9A885"/>
<stop offset="0.1472" stop-color="#D4B895"/>
<stop offset="0.2662" stop-color="#E2CDAB"/>
<stop offset="0.3818" stop-color="#EBDAB8"/>
<stop offset="0.4892" stop-color="#EEDEBC"/>
<stop offset="0.5877" stop-color="#EBDAB8"/>
<stop offset="0.6903" stop-color="#E3CEAB"/>
<stop offset="0.7944" stop-color="#D5B997"/>
<stop offset="0.8616" stop-color="#C9A885"/>
<stop offset="1" stop-color="#9A7A5F"/>
</linearGradient>
<linearGradient id="paint14_linear_6_29625" x1="31.288" y1="23.142" x2="191.16" y2="23.142" gradientUnits="userSpaceOnUse">
<stop stop-color="#9A7A5F"/>
<stop offset="0.077" stop-color="#C9A885"/>
<stop offset="0.1472" stop-color="#D4B895"/>
<stop offset="0.2662" stop-color="#E2CDAB"/>
<stop offset="0.3818" stop-color="#EBDAB8"/>
<stop offset="0.4892" stop-color="#EEDEBC"/>
<stop offset="0.5877" stop-color="#EBDAB8"/>
<stop offset="0.6903" stop-color="#E3CEAB"/>
<stop offset="0.7944" stop-color="#D5B997"/>
<stop offset="0.8616" stop-color="#C9A885"/>
<stop offset="1" stop-color="#9A7A5F"/>
</linearGradient>
<linearGradient id="paint15_linear_6_29625" x1="23.7915" y1="23.1419" x2="31.288" y2="23.1419" gradientUnits="userSpaceOnUse">
<stop stop-color="#9A7A5F"/>
<stop offset="0.077" stop-color="#C9A885"/>
<stop offset="0.1472" stop-color="#D4B895"/>
<stop offset="0.2662" stop-color="#E2CDAB"/>
<stop offset="0.3818" stop-color="#EBDAB8"/>
<stop offset="0.4892" stop-color="#EEDEBC"/>
<stop offset="0.5877" stop-color="#EBDAB8"/>
<stop offset="0.6903" stop-color="#E3CEAB"/>
<stop offset="0.7944" stop-color="#D5B997"/>
<stop offset="0.8616" stop-color="#C9A885"/>
<stop offset="1" stop-color="#9A7A5F"/>
</linearGradient>
</defs>
</svg>
