<svg width="822" height="57" viewBox="0 0 822 57" fill="none" xmlns="http://www.w3.org/2000/svg">
<path d="M709.884 28.2988H410.795V32.6608H709.884V28.2988Z" fill="url(#paint0_linear_6_29725)"/>
<path d="M410.574 28.2988H111.485V32.6608H410.574V28.2988Z" fill="url(#paint1_linear_6_29725)"/>
<path d="M13.7006 42.8777C13.5526 43.1847 13.2786 43.4087 12.8526 43.5107C12.4326 43.6057 11.8616 43.5497 11.2246 43.2357C10.5916 42.9237 9.9166 42.3047 9.4536 41.4307C8.9826 40.5627 8.77461 39.4617 8.88961 38.3977C8.93161 37.8587 9.11161 37.1897 9.42061 36.4837C9.73261 35.7777 10.2016 35.0537 10.8016 34.4107C11.3976 33.7637 12.1186 33.1967 12.8946 32.7527C13.6696 32.3077 14.4966 31.9867 15.3006 31.7777C16.1086 31.5797 16.8896 31.4887 17.5956 31.4707C17.9496 31.4687 18.2836 31.4787 18.5946 31.4997C18.9066 31.5337 19.1936 31.5607 19.4546 31.6067C19.7156 31.6577 19.9496 31.7087 20.1536 31.7587C20.3576 31.8107 20.5316 31.8777 20.6736 31.9317C20.9566 32.0437 21.1086 32.1427 21.1056 32.2207C21.1036 32.2897 20.9446 32.3787 20.6706 32.4827C20.3646 32.5897 19.9856 32.7227 19.5546 32.8737C19.3276 32.9557 19.0856 33.0587 18.8296 33.1537C18.5766 33.2617 18.3136 33.3807 18.0456 33.5057C17.5136 33.7707 16.9716 34.0887 16.4676 34.4507C15.9696 34.8237 15.5156 35.2437 15.1446 35.6827C14.7726 36.1217 14.4836 36.5787 14.2826 37.0057C14.0786 37.4317 13.9646 37.8267 13.9076 38.1487C13.8836 38.2287 13.8826 38.3057 13.8706 38.3767C13.8586 38.4487 13.8446 38.5157 13.8446 38.5777C13.8396 38.6397 13.8326 38.6977 13.8236 38.7517C13.8236 38.8047 13.8206 38.8527 13.8146 38.8977C13.7776 39.2547 13.7456 39.5417 13.7236 39.8297C13.7006 40.1157 13.6816 40.4297 13.7136 40.7757C13.7606 41.4687 13.9986 42.2537 13.7006 42.8777Z" fill="url(#paint2_linear_6_29725)"/>
<path d="M8.34261 31.9598C12.7616 30.1938 18.8876 29.8918 19.6956 29.8588C19.7476 29.8568 19.7856 29.8278 19.7866 29.7928L21.9706 27.9948C22.2596 27.7568 22.2746 27.3198 22.0036 27.0618L19.9496 25.1158C19.9506 25.0808 19.9146 25.0498 19.8626 25.0438C19.0596 24.9548 13.4366 24.3238 8.6846 22.1558C8.6476 22.1388 1.5926 25.7688 0.115601 26.5898C-0.0333994 26.6728 -0.0393929 26.8438 0.103607 26.9378C1.51961 27.8608 8.30461 31.9748 8.34261 31.9598Z" fill="url(#paint3_linear_6_29725)"/>
<path d="M14.8006 11.3917C14.6746 11.0747 14.4166 10.8327 13.9986 10.7017C13.5856 10.5777 13.0126 10.5937 12.3546 10.8627C11.7016 11.1297 10.9846 11.7007 10.4616 12.5397C9.93161 13.3737 9.6466 14.4567 9.6876 15.5267C9.6916 16.0667 9.82461 16.7467 10.0846 17.4737C10.3466 18.1997 10.7646 18.9547 11.3176 19.6377C11.8676 20.3247 12.5466 20.9417 13.2896 21.4377C14.0316 21.9357 14.8346 22.3137 15.6216 22.5787C16.4146 22.8327 17.1866 22.9777 17.8896 23.0447C18.2416 23.0717 18.5766 23.0847 18.8876 23.0857C19.2006 23.0737 19.4896 23.0667 19.7536 23.0387C20.0176 23.0057 20.2546 22.9717 20.4616 22.9357C20.6686 22.8977 20.8476 22.8437 20.9916 22.7997C21.2816 22.7077 21.4406 22.6197 21.4426 22.5417C21.4456 22.4727 21.2926 22.3727 21.0276 22.2497C20.7296 22.1207 20.3616 21.9627 19.9416 21.7817C19.7206 21.6847 19.4866 21.5647 19.2376 21.4517C18.9926 21.3267 18.7386 21.1897 18.4806 21.0457C17.9686 20.7447 17.4496 20.3897 16.9726 19.9927C16.5026 19.5857 16.0786 19.1357 15.7386 18.6707C15.3976 18.2067 15.1416 17.7307 14.9716 17.2907C14.7976 16.8517 14.7116 16.4497 14.6766 16.1247C14.6586 16.0437 14.6626 15.9667 14.6556 15.8947C14.6486 15.8227 14.6396 15.7547 14.6436 15.6927C14.6436 15.6297 14.6396 15.5717 14.6346 15.5177C14.6386 15.4657 14.6386 15.4167 14.6366 15.3717C14.6246 15.0127 14.6136 14.7247 14.6116 14.4367C14.6086 14.1497 14.6116 13.8347 14.6676 13.4917C14.7616 12.8017 15.0536 12.0347 14.8006 11.3917Z" fill="url(#paint4_linear_6_29725)"/>
<path d="M21.5756 11.6647C21.3816 11.4897 21.3296 11.1707 21.4156 10.7177C21.5006 10.2637 21.7206 9.67467 22.1016 8.98367C22.2856 8.63267 22.5146 8.26067 22.7856 7.86667C23.0486 7.46667 23.3626 7.05067 23.7206 6.61667C24.4316 5.74567 25.3246 4.80166 26.4686 3.87466C27.6076 2.94666 28.9966 2.02171 30.6956 1.28171C32.3926 0.559708 34.4266 0.0226931 36.6236 0.00369306C38.8196 -0.0473069 41.1086 0.432652 43.2176 1.27365C45.3246 2.12565 47.2736 3.3117 49.0306 4.6727C50.8026 6.0277 52.8726 7.98065 54.9806 10.3777C57.0996 12.7687 59.2716 15.5967 61.4886 18.6077C63.7106 21.6127 65.9786 24.8207 68.4226 27.8217C69.0346 28.5687 69.6566 29.3047 70.2956 30.0077C70.6166 30.3567 70.9376 30.7057 71.2656 31.0387C71.4306 31.2147 71.5896 31.3667 71.7456 31.5127C71.9046 31.6617 72.0576 31.8167 72.2206 31.9627C73.5346 33.1167 75.0386 34.1157 76.6616 34.8747C78.2766 35.6477 79.9876 36.2167 81.7046 36.5777C83.4196 36.9417 85.1396 37.1317 86.7916 37.1237C90.1026 37.1277 93.1236 36.4307 95.5046 35.4117C96.7016 34.9107 97.7426 34.3297 98.6146 33.7437C99.5016 33.1737 100.205 32.5827 100.788 32.0957C101.346 31.5857 101.792 31.1817 102.082 30.8927C102.382 30.6117 102.567 30.4757 102.616 30.5097C102.659 30.5397 102.58 30.7477 102.388 31.1207C102.206 31.5017 101.871 32.0167 101.409 32.6657C100.923 33.2907 100.303 34.0497 99.4666 34.8147C98.6456 35.5947 97.6236 36.3987 96.4006 37.1367C93.9696 38.6297 90.7206 39.8567 86.9926 40.3057C85.1306 40.5397 83.1556 40.5587 81.1286 40.3627C79.1016 40.1697 77.0226 39.7307 74.9756 39.0057C72.9236 38.2977 70.9166 37.2637 69.0566 35.9307C68.8256 35.7617 68.6026 35.5807 68.3746 35.4047C68.1446 35.2267 67.9216 35.0487 67.7216 34.8747C67.3036 34.5257 66.9036 34.1677 66.5046 33.8087C65.7106 33.0877 64.9566 32.3467 64.2206 31.6007C61.2926 28.6107 58.7146 25.5407 56.2936 22.7467C53.8826 19.9467 51.6426 17.4117 49.6176 15.3597C47.5986 13.2977 45.7996 11.7337 44.4136 10.6737C43.0306 9.59868 41.6476 8.73069 40.3106 8.09769C38.9696 7.48069 37.6806 7.09769 36.4276 6.97769C35.1756 6.83369 33.9436 6.95767 32.7456 7.21567C31.5506 7.49067 30.4036 7.91666 29.3476 8.38766C28.2886 8.85366 27.3226 9.37068 26.4606 9.84268C26.0276 10.0767 25.6186 10.2977 25.2416 10.5107C24.8806 10.7017 24.5266 10.8897 24.1776 11.0747C22.8636 11.7407 21.9716 12.0247 21.5756 11.6647Z" fill="url(#paint5_linear_6_29725)"/>
<path d="M44.5746 28.6816C45.2826 28.5826 45.9246 30.7016 47.4636 33.3636C47.6606 33.6906 47.8626 34.0306 48.1046 34.3536C48.3226 34.6956 48.5966 35.0046 48.8556 35.3366C49.4106 35.9676 50.0416 36.5726 50.7746 37.0916C52.2316 38.1386 54.1386 38.8176 56.3576 39.0266C57.4616 39.1346 58.9616 39.1635 60.7446 38.9425C62.5236 38.7135 64.5816 38.2486 66.7106 37.4596C68.8136 36.7016 71.0756 35.5235 73.4326 34.3385C75.7926 33.1545 78.2746 31.9096 80.8906 31.0896C83.4916 30.2506 86.1876 29.8675 88.6206 30.0285C91.0736 30.1705 93.1426 30.7556 94.8656 31.1656C95.7276 31.3866 96.5066 31.5525 97.1966 31.7055C97.8866 31.8405 98.4876 31.9316 98.9826 32.0226C99.9736 32.1216 100.546 32.2116 100.551 32.2876C100.555 32.3536 99.9946 32.4466 98.9636 32.5566C98.4526 32.5706 97.8206 32.5885 97.0946 32.5675C96.3726 32.5285 95.5476 32.4796 94.6586 32.3806C92.8766 32.2116 90.7966 31.9166 88.6236 32.0506C86.4396 32.1636 84.1216 32.7556 81.8756 33.7416C79.6176 34.7096 77.4136 36.0826 75.1846 37.4646C72.9496 38.8456 70.7136 40.2726 68.3126 41.3556C65.9526 42.4346 63.5936 43.1426 61.4496 43.5316C59.3036 43.9146 57.3696 43.9536 55.8866 43.8066C54.4036 43.6626 52.9386 43.3216 51.5856 42.7636C50.2316 42.2096 48.9996 41.4356 47.9876 40.5296C46.9716 39.6256 46.1806 38.6045 45.5786 37.6015C45.2996 37.0875 45.0246 36.5976 44.8356 36.1006C44.6166 35.6136 44.4646 35.1335 44.3296 34.6745C43.8006 32.8365 43.7746 31.3316 43.8646 30.3076C43.9996 29.2796 44.2476 28.7186 44.5746 28.6816Z" fill="url(#paint6_linear_6_29725)"/>
<path d="M85.6416 45.4287C85.6326 45.2077 85.8286 44.9837 86.1806 44.7687C86.3566 44.6607 86.5716 44.5557 86.8216 44.4547C87.0696 44.3437 87.3496 44.2307 87.6586 44.1237C88.8956 43.6837 90.5546 43.1987 92.3356 42.5777C93.2216 42.2557 94.6666 41.7517 96.2456 40.9177C97.8296 40.0967 99.5156 38.9087 101.002 37.6187C101.377 37.2997 101.723 36.9597 102.076 36.6417C102.231 36.4837 102.386 36.3257 102.539 36.1687C102.689 36.0097 102.826 35.8337 102.968 35.6717C103.519 34.9977 104.005 34.3227 104.443 33.7647C104.883 33.2047 105.281 32.7667 105.584 32.4907C105.9 32.2227 106.089 32.0957 106.126 32.1297C106.159 32.1597 106.059 32.3707 105.865 32.7087C105.681 33.0577 105.431 33.5607 105.144 34.1907C104.856 34.8237 104.529 35.5827 104.089 36.4167C103.972 36.6237 103.862 36.8387 103.728 37.0527C103.589 37.2637 103.447 37.4877 103.299 37.6997C102.996 38.0967 102.697 38.5187 102.361 38.9237C101.037 40.5557 99.3896 42.1497 97.7186 43.3067C96.0566 44.4767 94.4266 45.2247 93.4006 45.5947C91.3306 46.3177 89.3396 46.4927 87.9296 46.3697C87.5756 46.3357 87.2566 46.2937 86.9766 46.2357C86.6966 46.1687 86.4566 46.0937 86.2596 46.0107C85.8676 45.8467 85.6516 45.6497 85.6416 45.4287Z" fill="url(#paint7_linear_6_29725)"/>
<path d="M20.4636 43.5167C20.8836 43.1857 21.7536 43.5307 23.0196 44.2857C23.3546 44.4947 23.6946 44.7067 24.0416 44.9227C24.4026 45.1617 24.7956 45.4107 25.2116 45.6737C26.0386 46.2047 26.9656 46.7887 27.9906 47.3267C29.0116 47.8707 30.1256 48.3747 31.2986 48.7327C32.4746 49.0737 33.6956 49.2837 34.9546 49.2267C36.2126 49.1947 37.5256 48.9017 38.9056 48.3807C40.2846 47.8427 41.7236 47.0737 43.1786 46.0977C44.6356 45.1367 46.5376 43.7007 48.6936 41.7827C50.8546 39.8747 53.2626 37.4997 55.8596 34.8717C58.4656 32.2497 61.2486 29.3637 64.3746 26.5807C65.1596 25.8867 65.9636 25.1997 66.8056 24.5337C67.2286 24.2027 67.6536 23.8717 68.0946 23.5527C68.3056 23.3927 68.5406 23.2307 68.7836 23.0687C69.0236 22.9087 69.2586 22.7427 69.5016 22.5907C71.4526 21.3857 73.5296 20.4917 75.6286 19.9247C77.7246 19.3417 79.8316 19.0467 81.8706 18.9937C83.9096 18.9387 85.8826 19.0937 87.7276 19.4567C91.4236 20.1647 94.5866 21.6177 96.9116 23.2827C98.0816 24.1077 99.0466 24.9837 99.8116 25.8227C100.593 26.6477 101.157 27.4517 101.597 28.1137C102.01 28.7977 102.305 29.3377 102.455 29.7337C102.616 30.1227 102.675 30.3397 102.623 30.3697C102.578 30.3967 102.409 30.2447 102.133 29.9397C101.869 29.6267 101.456 29.1897 100.937 28.6377C100.391 28.1077 99.7326 27.4647 98.8876 26.8307C98.0586 26.1817 97.0596 25.5267 95.8976 24.9397C93.5886 23.7507 90.6156 22.8417 87.3056 22.6147C85.6536 22.4927 83.9216 22.5627 82.1816 22.8077C80.4406 23.0497 78.6906 23.4997 77.0226 24.1617C75.3476 24.8077 73.7756 25.7037 72.3816 26.7667C72.2086 26.9017 72.0446 27.0457 71.8766 27.1837C71.7106 27.3187 71.5416 27.4607 71.3636 27.6247C71.0126 27.9347 70.6676 28.2617 70.3236 28.5877C69.6376 29.2457 68.9656 29.9387 68.3036 30.6417C65.6586 33.4697 63.1766 36.5147 60.7536 39.3607C58.3356 42.2137 55.9756 44.8847 53.6966 47.1247C51.4286 49.3697 49.2286 51.1757 47.3666 52.4037C45.5186 53.6387 43.4926 54.6857 41.3306 55.3887C39.1676 56.0807 36.8516 56.3997 34.6636 56.1957C32.4726 56.0237 30.4816 55.3457 28.8386 54.5077C27.1956 53.6507 25.8736 52.6317 24.8026 51.6257C23.7256 50.6207 22.9006 49.6167 22.2526 48.6987C21.9256 48.2407 21.6416 47.8037 21.4076 47.3867C21.1636 46.9747 20.9616 46.5877 20.8026 46.2247C20.4706 45.5097 20.2916 44.9067 20.2386 44.4477C20.1836 43.9927 20.2576 43.6787 20.4636 43.5167Z" fill="url(#paint8_linear_6_29725)"/>
<path d="M44.5936 28.1456C44.2696 28.0866 44.0616 27.5096 44.0006 26.4726C43.9826 25.4456 44.1126 23.9456 44.7696 22.1486C44.9366 21.7006 45.1216 21.2316 45.3736 20.7616C45.5976 20.2786 45.9056 19.8096 46.2196 19.3166C46.8906 18.3576 47.7496 17.3946 48.8266 16.5636C49.8996 15.7306 51.1826 15.0436 52.5716 14.5866C53.9606 14.1246 55.4456 13.8866 56.9346 13.8466C58.4246 13.8036 60.3516 13.9756 62.4656 14.5056C64.5776 15.0406 66.8826 15.9096 69.1636 17.1486C71.4856 18.3936 73.6186 19.9716 75.7536 21.5026C77.8826 23.0336 79.9866 24.5536 82.1696 25.6736C84.3396 26.8106 86.6066 27.5606 88.7736 27.8246C90.9266 28.1096 93.0216 27.9606 94.8116 27.9176C95.7056 27.8826 96.5326 27.8916 97.2566 27.9046C97.9836 27.9356 98.6126 27.9996 99.1226 28.0516C100.144 28.2386 100.696 28.3776 100.686 28.4526C100.678 28.5186 100.101 28.5616 99.1046 28.5856C98.6036 28.6386 97.9966 28.6856 97.2986 28.7706C96.5986 28.8736 95.8096 28.9836 94.9336 29.1436C93.1856 29.4296 91.0826 29.8686 88.6296 29.8406C86.1946 29.8326 83.5366 29.2656 81.0016 28.2506C78.4506 27.2536 76.0606 25.8416 73.7876 24.4986C71.5176 23.1546 69.3406 21.8246 67.2936 20.9236C65.2226 19.9906 63.2016 19.3856 61.4416 19.0346C59.6776 18.6906 58.1786 18.6176 57.0696 18.6476C54.8416 18.7016 52.8926 19.2466 51.3656 20.1886C50.5976 20.6556 49.9266 21.2146 49.3286 21.8056C49.0476 22.1196 48.7516 22.4086 48.5106 22.7346C48.2466 23.0406 48.0216 23.3646 47.8016 23.6776C46.0806 26.2246 45.2926 28.2936 44.5936 28.1456Z" fill="url(#paint9_linear_6_29725)"/>
<path d="M32.5296 32.8436C35.2136 32.9376 37.4656 30.8376 37.5596 28.1536C37.6536 25.4696 35.5536 23.2176 32.8696 23.1236C30.1856 23.0296 27.9336 25.1296 27.8396 27.8136C27.7456 30.4976 29.8456 32.7496 32.5296 32.8436Z" fill="url(#paint10_linear_6_29725)"/>
<path d="M111.556 35.3497C113.964 35.4337 115.984 33.5497 116.068 31.1417C116.152 28.7337 114.268 26.7137 111.86 26.6287C109.452 26.5447 107.432 28.4287 107.347 30.8367C107.264 33.2457 109.148 35.2657 111.556 35.3497Z" fill="url(#paint11_linear_6_29725)"/>
<path d="M86.7176 14.6368C86.7426 14.4168 86.9716 14.2358 87.3746 14.0978C87.5766 14.0288 87.8216 13.9698 88.1056 13.9228C88.3886 13.8848 88.7106 13.8648 89.0656 13.8558C90.4806 13.8318 92.4546 14.1447 94.4696 15.0107C95.4676 15.4517 97.0426 16.3087 98.6216 17.5887C100.211 18.8557 101.748 20.5588 102.957 22.2778C103.264 22.7048 103.534 23.1468 103.809 23.5638C103.942 23.7858 104.069 24.0197 104.194 24.2397C104.313 24.4627 104.408 24.6848 104.511 24.8998C104.893 25.7628 105.166 26.5438 105.407 27.1958C105.647 27.8448 105.86 28.3637 106.016 28.7267C106.183 29.0797 106.263 29.2997 106.223 29.3307C106.188 29.3587 106.013 29.2157 105.72 28.9247C105.44 28.6277 105.075 28.1617 104.677 27.5727C104.28 26.9857 103.843 26.2788 103.339 25.5658C103.209 25.3938 103.084 25.2088 102.945 25.0398C102.803 24.8728 102.659 24.7048 102.515 24.5348C102.184 24.1938 101.861 23.8297 101.509 23.4867C100.114 22.0967 98.5096 20.7967 96.9846 19.8697C95.4646 18.9307 94.0566 18.3298 93.1956 17.9468C91.4626 17.2038 89.8406 16.6037 88.6376 16.0777C88.3366 15.9497 88.0646 15.8167 87.8256 15.6897C87.5846 15.5707 87.3766 15.4508 87.2086 15.3318C86.8726 15.0938 86.6926 14.8568 86.7176 14.6368Z" fill="url(#paint12_linear_6_29725)"/>
<path d="M807.739 42.8777C807.887 43.1847 808.161 43.4087 808.587 43.5107C809.007 43.6057 809.578 43.5497 810.216 43.2357C810.849 42.9237 811.524 42.3047 811.987 41.4307C812.458 40.5627 812.666 39.4617 812.551 38.3977C812.509 37.8587 812.329 37.1897 812.02 36.4837C811.708 35.7777 811.239 35.0537 810.639 34.4107C810.043 33.7637 809.322 33.1967 808.546 32.7527C807.771 32.3077 806.944 31.9867 806.14 31.7777C805.332 31.5797 804.551 31.4887 803.845 31.4707C803.491 31.4687 803.157 31.4787 802.846 31.4997C802.534 31.5337 802.247 31.5607 801.986 31.6067C801.725 31.6577 801.491 31.7087 801.286 31.7587C801.082 31.8107 800.908 31.8777 800.766 31.9317C800.483 32.0437 800.331 32.1427 800.334 32.2207C800.336 32.2897 800.495 32.3787 800.769 32.4827C801.075 32.5897 801.454 32.7227 801.885 32.8737C802.112 32.9557 802.354 33.0587 802.61 33.1537C802.863 33.2617 803.126 33.3807 803.394 33.5057C803.926 33.7707 804.468 34.0887 804.972 34.4507C805.47 34.8237 805.924 35.2437 806.295 35.6827C806.667 36.1217 806.956 36.5787 807.157 37.0057C807.361 37.4317 807.475 37.8267 807.532 38.1487C807.556 38.2287 807.557 38.3057 807.569 38.3767C807.581 38.4487 807.594 38.5157 807.595 38.5777C807.6 38.6397 807.607 38.6977 807.617 38.7517C807.617 38.8047 807.62 38.8527 807.626 38.8977C807.663 39.2547 807.695 39.5417 807.717 39.8297C807.74 40.1157 807.759 40.4297 807.726 40.7757C807.679 41.4687 807.441 42.2537 807.739 42.8777Z" fill="url(#paint13_linear_6_29725)"/>
<path d="M813.097 31.9598C808.678 30.1938 802.552 29.8918 801.744 29.8588C801.692 29.8568 801.654 29.8288 801.653 29.7928L799.469 27.9948C799.18 27.7568 799.165 27.3198 799.436 27.0618L801.49 25.1158C801.489 25.0808 801.525 25.0498 801.577 25.0438C802.38 24.9548 808.003 24.3238 812.755 22.1558C812.792 22.1388 819.847 25.7688 821.324 26.5898C821.473 26.6728 821.479 26.8438 821.336 26.9378C819.92 27.8608 813.135 31.9748 813.097 31.9598Z" fill="url(#paint14_linear_6_29725)"/>
<path d="M806.639 11.3917C806.765 11.0747 807.023 10.8327 807.441 10.7017C807.853 10.5777 808.426 10.5937 809.085 10.8627C809.738 11.1297 810.455 11.7007 810.978 12.5397C811.508 13.3737 811.793 14.4567 811.752 15.5267C811.748 16.0667 811.615 16.7467 811.356 17.4737C811.094 18.1997 810.676 18.9547 810.123 19.6377C809.573 20.3247 808.894 20.9417 808.151 21.4377C807.409 21.9357 806.606 22.3137 805.819 22.5787C805.026 22.8327 804.254 22.9777 803.551 23.0447C803.198 23.0717 802.864 23.0847 802.552 23.0857C802.239 23.0737 801.95 23.0667 801.686 23.0387C801.422 23.0057 801.185 22.9717 800.978 22.9357C800.771 22.8977 800.592 22.8437 800.448 22.7997C800.158 22.7077 799.999 22.6197 799.997 22.5417C799.994 22.4727 800.147 22.3727 800.412 22.2497C800.71 22.1207 801.078 21.9627 801.498 21.7817C801.719 21.6847 801.953 21.5647 802.202 21.4517C802.447 21.3267 802.701 21.1897 802.959 21.0457C803.471 20.7447 803.99 20.3897 804.467 19.9927C804.938 19.5857 805.361 19.1357 805.701 18.6707C806.042 18.2067 806.298 17.7307 806.468 17.2907C806.642 16.8517 806.728 16.4497 806.762 16.1247C806.78 16.0437 806.776 15.9667 806.783 15.8947C806.79 15.8227 806.799 15.7547 806.795 15.6927C806.795 15.6307 806.799 15.5717 806.804 15.5177C806.8 15.4657 806.8 15.4167 806.802 15.3717C806.814 15.0127 806.825 14.7247 806.827 14.4367C806.83 14.1497 806.827 13.8347 806.771 13.4917C806.678 12.8017 806.386 12.0347 806.639 11.3917Z" fill="url(#paint15_linear_6_29725)"/>
<path d="M799.864 11.6647C800.058 11.4897 800.11 11.1707 800.024 10.7177C799.939 10.2637 799.719 9.67467 799.338 8.98367C799.154 8.63267 798.925 8.26067 798.654 7.86667C798.391 7.46667 798.077 7.05067 797.719 6.61667C797.008 5.74567 796.115 4.80166 794.971 3.87466C793.832 2.94666 792.443 2.02171 790.743 1.28171C789.046 0.559708 787.012 0.0226931 784.815 0.00369306C782.619 -0.0473069 780.33 0.432652 778.221 1.27365C776.114 2.12565 774.165 3.3117 772.408 4.6727C770.636 6.0277 768.566 7.98065 766.458 10.3777C764.339 12.7687 762.167 15.5967 759.95 18.6077C757.728 21.6127 755.46 24.8207 753.016 27.8217C752.404 28.5687 751.782 29.3047 751.143 30.0077C750.823 30.3567 750.501 30.7057 750.173 31.0387C750.007 31.2147 749.849 31.3667 749.692 31.5127C749.533 31.6617 749.38 31.8167 749.218 31.9627C747.904 33.1167 746.4 34.1157 744.777 34.8747C743.162 35.6477 741.451 36.2167 739.734 36.5777C738.018 36.9417 736.299 37.1317 734.647 37.1237C731.336 37.1277 728.315 36.4307 725.934 35.4117C724.737 34.9107 723.696 34.3297 722.824 33.7437C721.937 33.1737 721.235 32.5827 720.651 32.0957C720.093 31.5857 719.647 31.1817 719.357 30.8927C719.057 30.6117 718.872 30.4757 718.823 30.5097C718.78 30.5397 718.859 30.7477 719.051 31.1207C719.233 31.5017 719.568 32.0167 720.03 32.6657C720.517 33.2907 721.136 34.0497 721.972 34.8147C722.793 35.5947 723.816 36.3987 725.038 37.1367C727.469 38.6297 730.718 39.8567 734.446 40.3057C736.308 40.5397 738.283 40.5587 740.31 40.3627C742.337 40.1697 744.416 39.7307 746.463 39.0067C748.515 38.2987 750.522 37.2647 752.382 35.9317C752.613 35.7627 752.837 35.5817 753.064 35.4057C753.295 35.2277 753.517 35.0497 753.717 34.8757C754.135 34.5267 754.535 34.1687 754.934 33.8097C755.728 33.0887 756.482 32.3477 757.218 31.6017C760.145 28.6117 762.724 25.5417 765.145 22.7477C767.556 19.9477 769.796 17.4127 771.821 15.3607C773.84 13.2987 775.639 11.7347 777.025 10.6747C778.408 9.59965 779.791 8.73166 781.128 8.09866C782.469 7.48166 783.758 7.09867 785.011 6.97867C786.263 6.83467 787.495 6.95871 788.693 7.21671C789.888 7.49171 791.035 7.9177 792.091 8.3887C793.15 8.8547 794.116 9.37166 794.978 9.84366C795.411 10.0777 795.82 10.2987 796.197 10.5117C796.558 10.7027 796.912 10.8907 797.261 11.0757C798.576 11.7407 799.468 12.0247 799.864 11.6647Z" fill="url(#paint16_linear_6_29725)"/>
<path d="M776.865 28.6816C776.157 28.5826 775.515 30.7016 773.976 33.3636C773.779 33.6906 773.577 34.0306 773.335 34.3536C773.117 34.6956 772.843 35.0046 772.584 35.3366C772.028 35.9676 771.398 36.5726 770.664 37.0916C769.207 38.1386 767.3 38.8176 765.081 39.0266C763.977 39.1346 762.477 39.1635 760.693 38.9425C758.914 38.7135 756.856 38.2486 754.727 37.4596C752.624 36.7016 750.362 35.5235 748.005 34.3385C745.645 33.1545 743.163 31.9096 740.546 31.0896C737.945 30.2506 735.25 29.8675 732.816 30.0285C730.363 30.1705 728.294 30.7556 726.571 31.1656C725.709 31.3866 724.93 31.5525 724.24 31.7055C723.55 31.8405 722.949 31.9316 722.454 32.0226C721.463 32.1216 720.891 32.2116 720.886 32.2876C720.882 32.3536 721.442 32.4466 722.473 32.5566C722.984 32.5706 723.616 32.5885 724.342 32.5675C725.064 32.5285 725.889 32.4796 726.778 32.3806C728.56 32.2116 730.64 31.9166 732.813 32.0506C734.997 32.1636 737.315 32.7556 739.561 33.7416C741.819 34.7096 744.023 36.0826 746.252 37.4646C748.487 38.8456 750.723 40.2726 753.124 41.3556C755.484 42.4346 757.843 43.1426 759.986 43.5316C762.132 43.9146 764.066 43.9536 765.549 43.8066C767.032 43.6626 768.497 43.3216 769.85 42.7636C771.204 42.2096 772.436 41.4356 773.448 40.5296C774.464 39.6256 775.255 38.6045 775.857 37.6015C776.136 37.0875 776.411 36.5976 776.6 36.1006C776.819 35.6136 776.971 35.1335 777.106 34.6745C777.636 32.8365 777.661 31.3316 777.571 30.3076C777.44 29.2796 777.192 28.7186 776.865 28.6816Z" fill="url(#paint17_linear_6_29725)"/>
<path d="M735.798 45.4287C735.808 45.2077 735.611 44.9837 735.259 44.7687C735.083 44.6607 734.868 44.5557 734.618 44.4547C734.37 44.3437 734.09 44.2307 733.781 44.1237C732.544 43.6837 730.885 43.1987 729.104 42.5777C728.218 42.2557 726.773 41.7517 725.194 40.9177C723.61 40.0967 721.924 38.9087 720.439 37.6187C720.064 37.2997 719.718 36.9597 719.365 36.6417C719.21 36.4837 719.055 36.3257 718.902 36.1687C718.752 36.0097 718.615 35.8337 718.473 35.6717C717.922 34.9977 717.436 34.3227 716.998 33.7647C716.558 33.2047 716.16 32.7667 715.857 32.4907C715.541 32.2227 715.352 32.0957 715.315 32.1297C715.282 32.1597 715.382 32.3707 715.575 32.7087C715.759 33.0577 716.009 33.5607 716.296 34.1907C716.583 34.8237 716.911 35.5827 717.351 36.4167C717.468 36.6237 717.578 36.8387 717.712 37.0527C717.851 37.2637 717.993 37.4877 718.141 37.6997C718.444 38.0967 718.743 38.5187 719.079 38.9237C720.402 40.5557 722.05 42.1497 723.721 43.3067C725.383 44.4767 727.013 45.2247 728.039 45.5947C730.109 46.3177 732.1 46.4927 733.51 46.3697C733.864 46.3357 734.184 46.2937 734.463 46.2357C734.743 46.1687 734.984 46.0937 735.18 46.0107C735.572 45.8467 735.788 45.6497 735.798 45.4287Z" fill="url(#paint18_linear_6_29725)"/>
<path d="M800.976 43.5167C800.556 43.1857 799.686 43.5307 798.42 44.2857C798.085 44.4947 797.745 44.7067 797.398 44.9227C797.037 45.1617 796.644 45.4107 796.228 45.6737C795.401 46.2047 794.474 46.7887 793.449 47.3267C792.428 47.8707 791.314 48.3747 790.141 48.7327C788.965 49.0737 787.744 49.2837 786.485 49.2267C785.227 49.1947 783.914 48.9017 782.533 48.3807C781.155 47.8427 779.715 47.0737 778.26 46.0977C776.803 45.1367 774.901 43.7007 772.745 41.7827C770.584 39.8747 768.176 37.4997 765.579 34.8717C762.973 32.2497 760.191 29.3637 757.064 26.5807C756.279 25.8867 755.475 25.1997 754.633 24.5337C754.21 24.2027 753.785 23.8717 753.344 23.5527C753.133 23.3927 752.898 23.2307 752.655 23.0687C752.415 22.9087 752.18 22.7427 751.937 22.5907C749.986 21.3857 747.909 20.4917 745.81 19.9247C743.714 19.3417 741.607 19.0467 739.568 18.9937C737.529 18.9387 735.556 19.0937 733.711 19.4567C730.015 20.1647 726.852 21.6177 724.527 23.2827C723.357 24.1077 722.392 24.9837 721.627 25.8227C720.846 26.6477 720.282 27.4517 719.843 28.1137C719.43 28.7977 719.135 29.3377 718.985 29.7337C718.824 30.1227 718.765 30.3397 718.817 30.3697C718.862 30.3967 719.031 30.2447 719.307 29.9397C719.571 29.6267 719.984 29.1897 720.503 28.6377C721.049 28.1077 721.707 27.4647 722.552 26.8307C723.381 26.1817 724.38 25.5267 725.542 24.9397C727.851 23.7507 730.824 22.8417 734.134 22.6147C735.786 22.4927 737.518 22.5627 739.258 22.8077C740.999 23.0497 742.749 23.4997 744.417 24.1617C746.092 24.8077 747.664 25.7037 749.058 26.7667C749.231 26.9017 749.395 27.0457 749.563 27.1837C749.729 27.3187 749.899 27.4607 750.076 27.6247C750.427 27.9347 750.771 28.2617 751.115 28.5877C751.802 29.2457 752.473 29.9387 753.135 30.6417C755.78 33.4697 758.262 36.5147 760.685 39.3607C763.104 42.2137 765.464 44.8847 767.742 47.1247C770.01 49.3697 772.21 51.1757 774.072 52.4037C775.92 53.6387 777.946 54.6857 780.108 55.3887C782.271 56.0807 784.587 56.3997 786.775 56.1957C788.966 56.0237 790.957 55.3457 792.6 54.5077C794.243 53.6507 795.565 52.6317 796.636 51.6257C797.713 50.6207 798.538 49.6167 799.186 48.6987C799.513 48.2407 799.797 47.8037 800.031 47.3867C800.275 46.9747 800.477 46.5877 800.636 46.2247C800.968 45.5097 801.147 44.9067 801.2 44.4477C801.255 43.9927 801.182 43.6787 800.976 43.5167Z" fill="url(#paint19_linear_6_29725)"/>
<path d="M776.846 28.1456C777.17 28.0866 777.378 27.5096 777.439 26.4726C777.457 25.4456 777.327 23.9456 776.67 22.1486C776.504 21.7006 776.318 21.2316 776.066 20.7616C775.842 20.2786 775.534 19.8096 775.22 19.3166C774.549 18.3576 773.69 17.3946 772.613 16.5636C771.54 15.7306 770.257 15.0436 768.868 14.5866C767.479 14.1246 765.993 13.8866 764.505 13.8466C763.015 13.8036 761.088 13.9756 758.974 14.5056C756.862 15.0406 754.557 15.9096 752.276 17.1486C749.954 18.3936 747.82 19.9716 745.686 21.5026C743.557 23.0336 741.453 24.5536 739.27 25.6736C737.101 26.8106 734.833 27.5606 732.666 27.8246C730.512 28.1096 728.418 27.9606 726.628 27.9176C725.734 27.8826 724.907 27.8916 724.183 27.9046C723.456 27.9356 722.827 27.9996 722.317 28.0516C721.296 28.2386 720.744 28.3776 720.754 28.4526C720.762 28.5186 721.339 28.5616 722.335 28.5856C722.836 28.6386 723.443 28.6856 724.141 28.7706C724.841 28.8736 725.63 28.9836 726.506 29.1436C728.254 29.4296 730.357 29.8686 732.81 29.8406C735.245 29.8326 737.903 29.2656 740.438 28.2506C742.989 27.2536 745.379 25.8416 747.652 24.4986C749.921 23.1546 752.098 21.8246 754.146 20.9236C756.216 19.9906 758.238 19.3856 759.998 19.0346C761.762 18.6906 763.261 18.6176 764.37 18.6476C766.598 18.7016 768.547 19.2466 770.074 20.1886C770.842 20.6556 771.513 21.2146 772.111 21.8056C772.392 22.1196 772.688 22.4086 772.929 22.7346C773.193 23.0406 773.418 23.3646 773.638 23.6776C775.359 26.2246 776.147 28.2936 776.846 28.1456Z" fill="url(#paint20_linear_6_29725)"/>
<path d="M788.91 32.8436C786.226 32.9376 783.974 30.8376 783.88 28.1536C783.786 25.4696 785.886 23.2176 788.57 23.1236C791.254 23.0296 793.506 25.1296 793.6 27.8136C793.694 30.4976 791.594 32.7496 788.91 32.8436Z" fill="url(#paint21_linear_6_29725)"/>
<path d="M709.884 35.3497C707.476 35.4337 705.456 33.5497 705.371 31.1417C705.287 28.7337 707.171 26.7137 709.579 26.6287C711.987 26.5447 714.007 28.4287 714.091 30.8367C714.176 33.2457 712.292 35.2657 709.884 35.3497Z" fill="url(#paint22_linear_6_29725)"/>
<path d="M734.722 14.6368C734.697 14.4168 734.468 14.2358 734.065 14.0978C733.863 14.0288 733.618 13.9698 733.334 13.9228C733.051 13.8848 732.73 13.8648 732.374 13.8558C730.959 13.8318 728.985 14.1447 726.97 15.0107C725.972 15.4517 724.397 16.3087 722.818 17.5887C721.229 18.8557 719.693 20.5588 718.483 22.2778C718.176 22.7048 717.906 23.1468 717.631 23.5638C717.498 23.7858 717.371 24.0197 717.246 24.2397C717.127 24.4627 717.032 24.6848 716.929 24.8998C716.547 25.7628 716.274 26.5438 716.033 27.1958C715.793 27.8448 715.58 28.3637 715.424 28.7267C715.257 29.0797 715.177 29.2997 715.217 29.3307C715.252 29.3587 715.427 29.2157 715.72 28.9247C716 28.6277 716.365 28.1617 716.763 27.5727C717.16 26.9857 717.597 26.2788 718.101 25.5658C718.231 25.3938 718.356 25.2088 718.495 25.0398C718.637 24.8728 718.781 24.7048 718.925 24.5348C719.256 24.1938 719.579 23.8297 719.931 23.4867C721.326 22.0967 722.93 20.7967 724.455 19.8697C725.975 18.9307 727.383 18.3298 728.244 17.9468C729.977 17.2038 731.599 16.6037 732.802 16.0777C733.103 15.9497 733.375 15.8167 733.614 15.6897C733.855 15.5707 734.063 15.4508 734.231 15.3318C734.567 15.0938 734.747 14.8568 734.722 14.6368Z" fill="url(#paint23_linear_6_29725)"/>
<defs>
<linearGradient id="paint0_linear_6_29725" x1="410.795" y1="30.4796" x2="709.884" y2="30.4796" gradientUnits="userSpaceOnUse">
<stop stop-color="#9A7A5F"/>
<stop offset="0.077" stop-color="#C9A885"/>
<stop offset="0.1472" stop-color="#D4B895"/>
<stop offset="0.2662" stop-color="#E2CDAB"/>
<stop offset="0.3818" stop-color="#EBDAB8"/>
<stop offset="0.4892" stop-color="#EEDEBC"/>
<stop offset="0.5877" stop-color="#EBDAB8"/>
<stop offset="0.6903" stop-color="#E3CEAB"/>
<stop offset="0.7944" stop-color="#D5B997"/>
<stop offset="0.8616" stop-color="#C9A885"/>
<stop offset="1" stop-color="#9A7A5F"/>
</linearGradient>
<linearGradient id="paint1_linear_6_29725" x1="111.485" y1="30.4796" x2="410.574" y2="30.4796" gradientUnits="userSpaceOnUse">
<stop stop-color="#9A7A5F"/>
<stop offset="0.077" stop-color="#C9A885"/>
<stop offset="0.1472" stop-color="#D4B895"/>
<stop offset="0.2662" stop-color="#E2CDAB"/>
<stop offset="0.3818" stop-color="#EBDAB8"/>
<stop offset="0.4892" stop-color="#EEDEBC"/>
<stop offset="0.5877" stop-color="#EBDAB8"/>
<stop offset="0.6903" stop-color="#E3CEAB"/>
<stop offset="0.7944" stop-color="#D5B997"/>
<stop offset="0.8616" stop-color="#C9A885"/>
<stop offset="1" stop-color="#9A7A5F"/>
</linearGradient>
<linearGradient id="paint2_linear_6_29725" x1="8.85771" y1="37.5108" x2="21.1053" y2="37.5108" gradientUnits="userSpaceOnUse">
<stop stop-color="#9A7A5F"/>
<stop offset="0.077" stop-color="#C9A885"/>
<stop offset="0.1472" stop-color="#D4B895"/>
<stop offset="0.2662" stop-color="#E2CDAB"/>
<stop offset="0.3818" stop-color="#EBDAB8"/>
<stop offset="0.4892" stop-color="#EEDEBC"/>
<stop offset="0.5877" stop-color="#EBDAB8"/>
<stop offset="0.6903" stop-color="#E3CEAB"/>
<stop offset="0.7944" stop-color="#D5B997"/>
<stop offset="0.8616" stop-color="#C9A885"/>
<stop offset="1" stop-color="#9A7A5F"/>
</linearGradient>
<linearGradient id="paint3_linear_6_29725" x1="0.000504002" y1="27.0582" x2="22.1979" y2="27.0582" gradientUnits="userSpaceOnUse">
<stop stop-color="#9A7A5F"/>
<stop offset="0.077" stop-color="#C9A885"/>
<stop offset="0.1472" stop-color="#D4B895"/>
<stop offset="0.2662" stop-color="#E2CDAB"/>
<stop offset="0.3818" stop-color="#EBDAB8"/>
<stop offset="0.4892" stop-color="#EEDEBC"/>
<stop offset="0.5877" stop-color="#EBDAB8"/>
<stop offset="0.6903" stop-color="#E3CEAB"/>
<stop offset="0.7944" stop-color="#D5B997"/>
<stop offset="0.8616" stop-color="#C9A885"/>
<stop offset="1" stop-color="#9A7A5F"/>
</linearGradient>
<linearGradient id="paint4_linear_6_29725" x1="9.6835" y1="16.8555" x2="21.4433" y2="16.8555" gradientUnits="userSpaceOnUse">
<stop stop-color="#9A7A5F"/>
<stop offset="0.077" stop-color="#C9A885"/>
<stop offset="0.1472" stop-color="#D4B895"/>
<stop offset="0.2662" stop-color="#E2CDAB"/>
<stop offset="0.3818" stop-color="#EBDAB8"/>
<stop offset="0.4892" stop-color="#EEDEBC"/>
<stop offset="0.5877" stop-color="#EBDAB8"/>
<stop offset="0.6903" stop-color="#E3CEAB"/>
<stop offset="0.7944" stop-color="#D5B997"/>
<stop offset="0.8616" stop-color="#C9A885"/>
<stop offset="1" stop-color="#9A7A5F"/>
</linearGradient>
<linearGradient id="paint5_linear_6_29725" x1="21.3761" y1="20.2486" x2="102.629" y2="20.2486" gradientUnits="userSpaceOnUse">
<stop stop-color="#9A7A5F"/>
<stop offset="0.077" stop-color="#C9A885"/>
<stop offset="0.1472" stop-color="#D4B895"/>
<stop offset="0.2662" stop-color="#E2CDAB"/>
<stop offset="0.3818" stop-color="#EBDAB8"/>
<stop offset="0.4892" stop-color="#EEDEBC"/>
<stop offset="0.5877" stop-color="#EBDAB8"/>
<stop offset="0.6903" stop-color="#E3CEAB"/>
<stop offset="0.7944" stop-color="#D5B997"/>
<stop offset="0.8616" stop-color="#C9A885"/>
<stop offset="1" stop-color="#9A7A5F"/>
</linearGradient>
<linearGradient id="paint6_linear_6_29725" x1="43.8262" y1="36.2824" x2="100.552" y2="36.2824" gradientUnits="userSpaceOnUse">
<stop stop-color="#9A7A5F"/>
<stop offset="0.077" stop-color="#C9A885"/>
<stop offset="0.1472" stop-color="#D4B895"/>
<stop offset="0.2662" stop-color="#E2CDAB"/>
<stop offset="0.3818" stop-color="#EBDAB8"/>
<stop offset="0.4892" stop-color="#EEDEBC"/>
<stop offset="0.5877" stop-color="#EBDAB8"/>
<stop offset="0.6903" stop-color="#E3CEAB"/>
<stop offset="0.7944" stop-color="#D5B997"/>
<stop offset="0.8616" stop-color="#C9A885"/>
<stop offset="1" stop-color="#9A7A5F"/>
</linearGradient>
<linearGradient id="paint7_linear_6_29725" x1="85.6417" y1="39.2663" x2="106.132" y2="39.2663" gradientUnits="userSpaceOnUse">
<stop stop-color="#9A7A5F"/>
<stop offset="0.077" stop-color="#C9A885"/>
<stop offset="0.1472" stop-color="#D4B895"/>
<stop offset="0.2662" stop-color="#E2CDAB"/>
<stop offset="0.3818" stop-color="#EBDAB8"/>
<stop offset="0.4892" stop-color="#EEDEBC"/>
<stop offset="0.5877" stop-color="#EBDAB8"/>
<stop offset="0.6903" stop-color="#E3CEAB"/>
<stop offset="0.7944" stop-color="#D5B997"/>
<stop offset="0.8616" stop-color="#C9A885"/>
<stop offset="1" stop-color="#9A7A5F"/>
</linearGradient>
<linearGradient id="paint8_linear_6_29725" x1="20.221" y1="37.6213" x2="102.64" y2="37.6213" gradientUnits="userSpaceOnUse">
<stop stop-color="#9A7A5F"/>
<stop offset="0.077" stop-color="#C9A885"/>
<stop offset="0.1472" stop-color="#D4B895"/>
<stop offset="0.2662" stop-color="#E2CDAB"/>
<stop offset="0.3818" stop-color="#EBDAB8"/>
<stop offset="0.4892" stop-color="#EEDEBC"/>
<stop offset="0.5877" stop-color="#EBDAB8"/>
<stop offset="0.6903" stop-color="#E3CEAB"/>
<stop offset="0.7944" stop-color="#D5B997"/>
<stop offset="0.8616" stop-color="#C9A885"/>
<stop offset="1" stop-color="#9A7A5F"/>
</linearGradient>
<linearGradient id="paint9_linear_6_29725" x1="43.9985" y1="21.8411" x2="100.686" y2="21.8411" gradientUnits="userSpaceOnUse">
<stop stop-color="#9A7A5F"/>
<stop offset="0.077" stop-color="#C9A885"/>
<stop offset="0.1472" stop-color="#D4B895"/>
<stop offset="0.2662" stop-color="#E2CDAB"/>
<stop offset="0.3818" stop-color="#EBDAB8"/>
<stop offset="0.4892" stop-color="#EEDEBC"/>
<stop offset="0.5877" stop-color="#EBDAB8"/>
<stop offset="0.6903" stop-color="#E3CEAB"/>
<stop offset="0.7944" stop-color="#D5B997"/>
<stop offset="0.8616" stop-color="#C9A885"/>
<stop offset="1" stop-color="#9A7A5F"/>
</linearGradient>
<linearGradient id="paint10_linear_6_29725" x1="27.8359" y1="27.9836" x2="37.5621" y2="27.9836" gradientUnits="userSpaceOnUse">
<stop stop-color="#9A7A5F"/>
<stop offset="0.077" stop-color="#C9A885"/>
<stop offset="0.1472" stop-color="#D4B895"/>
<stop offset="0.2662" stop-color="#E2CDAB"/>
<stop offset="0.3818" stop-color="#EBDAB8"/>
<stop offset="0.4892" stop-color="#EEDEBC"/>
<stop offset="0.5877" stop-color="#EBDAB8"/>
<stop offset="0.6903" stop-color="#E3CEAB"/>
<stop offset="0.7944" stop-color="#D5B997"/>
<stop offset="0.8616" stop-color="#C9A885"/>
<stop offset="1" stop-color="#9A7A5F"/>
</linearGradient>
<linearGradient id="paint11_linear_6_29725" x1="107.345" y1="30.9897" x2="116.071" y2="30.9897" gradientUnits="userSpaceOnUse">
<stop stop-color="#9A7A5F"/>
<stop offset="0.077" stop-color="#C9A885"/>
<stop offset="0.1472" stop-color="#D4B895"/>
<stop offset="0.2662" stop-color="#E2CDAB"/>
<stop offset="0.3818" stop-color="#EBDAB8"/>
<stop offset="0.4892" stop-color="#EEDEBC"/>
<stop offset="0.5877" stop-color="#EBDAB8"/>
<stop offset="0.6903" stop-color="#E3CEAB"/>
<stop offset="0.7944" stop-color="#D5B997"/>
<stop offset="0.8616" stop-color="#C9A885"/>
<stop offset="1" stop-color="#9A7A5F"/>
</linearGradient>
<linearGradient id="paint12_linear_6_29725" x1="86.715" y1="21.5951" x2="106.233" y2="21.5951" gradientUnits="userSpaceOnUse">
<stop stop-color="#9A7A5F"/>
<stop offset="0.077" stop-color="#C9A885"/>
<stop offset="0.1472" stop-color="#D4B895"/>
<stop offset="0.2662" stop-color="#E2CDAB"/>
<stop offset="0.3818" stop-color="#EBDAB8"/>
<stop offset="0.4892" stop-color="#EEDEBC"/>
<stop offset="0.5877" stop-color="#EBDAB8"/>
<stop offset="0.6903" stop-color="#E3CEAB"/>
<stop offset="0.7944" stop-color="#D5B997"/>
<stop offset="0.8616" stop-color="#C9A885"/>
<stop offset="1" stop-color="#9A7A5F"/>
</linearGradient>
<linearGradient id="paint13_linear_6_29725" x1="800.334" y1="37.5108" x2="812.582" y2="37.5108" gradientUnits="userSpaceOnUse">
<stop stop-color="#9A7A5F"/>
<stop offset="0.077" stop-color="#C9A885"/>
<stop offset="0.1472" stop-color="#D4B895"/>
<stop offset="0.2662" stop-color="#E2CDAB"/>
<stop offset="0.3818" stop-color="#EBDAB8"/>
<stop offset="0.4892" stop-color="#EEDEBC"/>
<stop offset="0.5877" stop-color="#EBDAB8"/>
<stop offset="0.6903" stop-color="#E3CEAB"/>
<stop offset="0.7944" stop-color="#D5B997"/>
<stop offset="0.8616" stop-color="#C9A885"/>
<stop offset="1" stop-color="#9A7A5F"/>
</linearGradient>
<linearGradient id="paint14_linear_6_29725" x1="799.241" y1="27.0582" x2="821.439" y2="27.0582" gradientUnits="userSpaceOnUse">
<stop stop-color="#9A7A5F"/>
<stop offset="0.077" stop-color="#C9A885"/>
<stop offset="0.1472" stop-color="#D4B895"/>
<stop offset="0.2662" stop-color="#E2CDAB"/>
<stop offset="0.3818" stop-color="#EBDAB8"/>
<stop offset="0.4892" stop-color="#EEDEBC"/>
<stop offset="0.5877" stop-color="#EBDAB8"/>
<stop offset="0.6903" stop-color="#E3CEAB"/>
<stop offset="0.7944" stop-color="#D5B997"/>
<stop offset="0.8616" stop-color="#C9A885"/>
<stop offset="1" stop-color="#9A7A5F"/>
</linearGradient>
<linearGradient id="paint15_linear_6_29725" x1="799.996" y1="16.8555" x2="811.755" y2="16.8555" gradientUnits="userSpaceOnUse">
<stop stop-color="#9A7A5F"/>
<stop offset="0.077" stop-color="#C9A885"/>
<stop offset="0.1472" stop-color="#D4B895"/>
<stop offset="0.2662" stop-color="#E2CDAB"/>
<stop offset="0.3818" stop-color="#EBDAB8"/>
<stop offset="0.4892" stop-color="#EEDEBC"/>
<stop offset="0.5877" stop-color="#EBDAB8"/>
<stop offset="0.6903" stop-color="#E3CEAB"/>
<stop offset="0.7944" stop-color="#D5B997"/>
<stop offset="0.8616" stop-color="#C9A885"/>
<stop offset="1" stop-color="#9A7A5F"/>
</linearGradient>
<linearGradient id="paint16_linear_6_29725" x1="718.81" y1="20.2486" x2="800.063" y2="20.2486" gradientUnits="userSpaceOnUse">
<stop stop-color="#9A7A5F"/>
<stop offset="0.077" stop-color="#C9A885"/>
<stop offset="0.1472" stop-color="#D4B895"/>
<stop offset="0.2662" stop-color="#E2CDAB"/>
<stop offset="0.3818" stop-color="#EBDAB8"/>
<stop offset="0.4892" stop-color="#EEDEBC"/>
<stop offset="0.5877" stop-color="#EBDAB8"/>
<stop offset="0.6903" stop-color="#E3CEAB"/>
<stop offset="0.7944" stop-color="#D5B997"/>
<stop offset="0.8616" stop-color="#C9A885"/>
<stop offset="1" stop-color="#9A7A5F"/>
</linearGradient>
<linearGradient id="paint17_linear_6_29725" x1="720.887" y1="36.2824" x2="777.613" y2="36.2824" gradientUnits="userSpaceOnUse">
<stop stop-color="#9A7A5F"/>
<stop offset="0.077" stop-color="#C9A885"/>
<stop offset="0.1472" stop-color="#D4B895"/>
<stop offset="0.2662" stop-color="#E2CDAB"/>
<stop offset="0.3818" stop-color="#EBDAB8"/>
<stop offset="0.4892" stop-color="#EEDEBC"/>
<stop offset="0.5877" stop-color="#EBDAB8"/>
<stop offset="0.6903" stop-color="#E3CEAB"/>
<stop offset="0.7944" stop-color="#D5B997"/>
<stop offset="0.8616" stop-color="#C9A885"/>
<stop offset="1" stop-color="#9A7A5F"/>
</linearGradient>
<linearGradient id="paint18_linear_6_29725" x1="715.308" y1="39.2663" x2="735.798" y2="39.2663" gradientUnits="userSpaceOnUse">
<stop stop-color="#9A7A5F"/>
<stop offset="0.077" stop-color="#C9A885"/>
<stop offset="0.1472" stop-color="#D4B895"/>
<stop offset="0.2662" stop-color="#E2CDAB"/>
<stop offset="0.3818" stop-color="#EBDAB8"/>
<stop offset="0.4892" stop-color="#EEDEBC"/>
<stop offset="0.5877" stop-color="#EBDAB8"/>
<stop offset="0.6903" stop-color="#E3CEAB"/>
<stop offset="0.7944" stop-color="#D5B997"/>
<stop offset="0.8616" stop-color="#C9A885"/>
<stop offset="1" stop-color="#9A7A5F"/>
</linearGradient>
<linearGradient id="paint19_linear_6_29725" x1="718.799" y1="37.6213" x2="801.218" y2="37.6213" gradientUnits="userSpaceOnUse">
<stop stop-color="#9A7A5F"/>
<stop offset="0.077" stop-color="#C9A885"/>
<stop offset="0.1472" stop-color="#D4B895"/>
<stop offset="0.2662" stop-color="#E2CDAB"/>
<stop offset="0.3818" stop-color="#EBDAB8"/>
<stop offset="0.4892" stop-color="#EEDEBC"/>
<stop offset="0.5877" stop-color="#EBDAB8"/>
<stop offset="0.6903" stop-color="#E3CEAB"/>
<stop offset="0.7944" stop-color="#D5B997"/>
<stop offset="0.8616" stop-color="#C9A885"/>
<stop offset="1" stop-color="#9A7A5F"/>
</linearGradient>
<linearGradient id="paint20_linear_6_29725" x1="720.753" y1="21.8411" x2="777.441" y2="21.8411" gradientUnits="userSpaceOnUse">
<stop stop-color="#9A7A5F"/>
<stop offset="0.077" stop-color="#C9A885"/>
<stop offset="0.1472" stop-color="#D4B895"/>
<stop offset="0.2662" stop-color="#E2CDAB"/>
<stop offset="0.3818" stop-color="#EBDAB8"/>
<stop offset="0.4892" stop-color="#EEDEBC"/>
<stop offset="0.5877" stop-color="#EBDAB8"/>
<stop offset="0.6903" stop-color="#E3CEAB"/>
<stop offset="0.7944" stop-color="#D5B997"/>
<stop offset="0.8616" stop-color="#C9A885"/>
<stop offset="1" stop-color="#9A7A5F"/>
</linearGradient>
<linearGradient id="paint21_linear_6_29725" x1="783.877" y1="27.9836" x2="793.603" y2="27.9836" gradientUnits="userSpaceOnUse">
<stop stop-color="#9A7A5F"/>
<stop offset="0.077" stop-color="#C9A885"/>
<stop offset="0.1472" stop-color="#D4B895"/>
<stop offset="0.2662" stop-color="#E2CDAB"/>
<stop offset="0.3818" stop-color="#EBDAB8"/>
<stop offset="0.4892" stop-color="#EEDEBC"/>
<stop offset="0.5877" stop-color="#EBDAB8"/>
<stop offset="0.6903" stop-color="#E3CEAB"/>
<stop offset="0.7944" stop-color="#D5B997"/>
<stop offset="0.8616" stop-color="#C9A885"/>
<stop offset="1" stop-color="#9A7A5F"/>
</linearGradient>
<linearGradient id="paint22_linear_6_29725" x1="705.369" y1="30.9897" x2="714.094" y2="30.9897" gradientUnits="userSpaceOnUse">
<stop stop-color="#9A7A5F"/>
<stop offset="0.077" stop-color="#C9A885"/>
<stop offset="0.1472" stop-color="#D4B895"/>
<stop offset="0.2662" stop-color="#E2CDAB"/>
<stop offset="0.3818" stop-color="#EBDAB8"/>
<stop offset="0.4892" stop-color="#EEDEBC"/>
<stop offset="0.5877" stop-color="#EBDAB8"/>
<stop offset="0.6903" stop-color="#E3CEAB"/>
<stop offset="0.7944" stop-color="#D5B997"/>
<stop offset="0.8616" stop-color="#C9A885"/>
<stop offset="1" stop-color="#9A7A5F"/>
</linearGradient>
<linearGradient id="paint23_linear_6_29725" x1="715.206" y1="21.5951" x2="734.724" y2="21.5951" gradientUnits="userSpaceOnUse">
<stop stop-color="#9A7A5F"/>
<stop offset="0.077" stop-color="#C9A885"/>
<stop offset="0.1472" stop-color="#D4B895"/>
<stop offset="0.2662" stop-color="#E2CDAB"/>
<stop offset="0.3818" stop-color="#EBDAB8"/>
<stop offset="0.4892" stop-color="#EEDEBC"/>
<stop offset="0.5877" stop-color="#EBDAB8"/>
<stop offset="0.6903" stop-color="#E3CEAB"/>
<stop offset="0.7944" stop-color="#D5B997"/>
<stop offset="0.8616" stop-color="#C9A885"/>
<stop offset="1" stop-color="#9A7A5F"/>
</linearGradient>
</defs>
</svg>
